<svg xmlns="http://www.w3.org/2000/svg" width="1956.42" height="441.569" viewBox="0 0 1956.42 441.569">
  <defs>
    <style>
      .cls-1 {
        fill: #77c6eb;
      }

      .cls-2 {
        fill: #444c76;
      }

      .cls-10, .cls-14, .cls-3 {
        fill: #1a1311;
        font-family: AvantGardeITCbyBT-Book, AvantGarde Bk BT;
      }

      .cls-3 {
        font-size: 24px;
      }

      .cls-4, .cls-6 {
        fill: #fff;
      }

      .cls-4, .cls-5 {
        opacity: 0.996;
      }

      .cls-11, .cls-12, .cls-13, .cls-5, .cls-8, .cls-9 {
        fill: #00488b;
      }

      .cls-7 {
        fill: #dfdfde;
      }

      .cls-8 {
        font-size: 48px;
      }

      .cls-11, .cls-12, .cls-13, .cls-8, .cls-9 {
        font-family: Seravek-Bold, Seravek;
        font-weight: 700;
      }

      .cls-9 {
        font-size: 33px;
      }

      .cls-10 {
        font-size: 17px;
      }

      .cls-11 {
        font-size: 40px;
      }

      .cls-12 {
        font-size: 43px;
      }

      .cls-13 {
        font-size: 76px;
      }

      .cls-14 {
        font-size: 31px;
      }
    </style>
  </defs>
  <g id="组_619" data-name="组 619" transform="translate(105.321 -531)">
    <path id="联合_2" data-name="联合 2" class="cls-1" d="M-3330.99-2235.785c-16.889-.07-33.508-3.316-49.58-6.456-11.5-2.246-22.392-4.374-33.173-5.369h-23.615c-11.5,1.041-23.746,3.365-35.61,5.618-16.074,3.052-32.691,6.207-47.623,6.207-15.07,0-32.1-3.207-48.561-6.308-11.733-2.21-23.841-4.491-34.918-5.517h-2.681c0-64.349,52.95-117.3,117.3-117.3,64.287,0,117.2,52.853,117.3,117.122h0c.1-64.269,53.009-117.122,117.3-117.122,64.165,0,117,52.652,117.295,116.756.3-115.714,95.61-210.846,211.389-210.846,115.906,0,211.3,95.326,211.389,211.212h0v5.8l-.005,0a68.261,68.261,0,0,1-11.466,3.1c-4.514.9-9.482,1.617-14.765,2.131-6.606.643-13.726.969-21.165.969-16.337,0-32.222-3.161-47.583-6.218-11.3-2.248-22.953-4.568-34.712-5.607h-25.029c-11.878,1.045-23.7,3.385-35.148,5.652-7.671,1.519-15.6,3.089-23.441,4.245a161.935,161.935,0,0,1-23.688,1.927c-16,0-32-3.155-47.473-6.207-11.42-2.253-23.206-4.577-34.935-5.618h-24.779c-11.742,1.042-23.555,3.371-35,5.627l-.011,0c-15.45,3.046-31.427,6.2-47.318,6.2h-.085a162.027,162.027,0,0,1-23.588-1.93c-7.821-1.156-15.75-2.721-23.418-4.235-11.495-2.27-23.357-4.612-35.26-5.659h-24.931c-11.573,1.033-23.034,3.336-34.139,5.567l-.007,0c-15.313,3.076-31.147,6.257-47.718,6.257Zm-379.205,0c-14.613-.026-31.707-3.212-48.237-6.292-12.632-2.355-25.692-4.789-37.267-5.71H-3814.3c-11.739.931-25.061,3.4-37.945,5.79-16.469,3.054-33.5,6.212-47.482,6.212h-.075c-14.264-.011-32.108-3.26-49.364-6.4l-.012,0c-13.246-2.412-25.757-4.691-36.687-5.6H-4006.1a203.669,203.669,0,0,0-25.556,3.414c-6.107,1.213-9.927,2.27-10.343,2.387h0v-5.8h0a17.017,17.017,0,0,1,16.938-16.937,17.016,17.016,0,0,1,16.934,16.937,31.974,31.974,0,0,1,31.826-31.826,31.974,31.974,0,0,1,31.822,31.826,31.975,31.975,0,0,1,31.826-31.826,31.974,31.974,0,0,1,31.823,31.826,31.975,31.975,0,0,1,31.826-31.826,31.974,31.974,0,0,1,31.823,31.826,31.974,31.974,0,0,1,31.826-31.826,31.974,31.974,0,0,1,31.822,31.826h0c.1-40.181,33.19-73.212,73.392-73.212,40.261,0,73.389,33.128,73.389,73.389h-20.276c-11.176,1.035-23.412,3.34-35.269,5.573l-.273.052c-16.185,3.048-32.921,6.2-47.448,6.2Z" transform="translate(4260.695 2990)"/>
    <g id="组_545" data-name="组 545" transform="translate(766.066 290.082)">
      <g id="组_512" data-name="组 512" transform="translate(381.015 368.168)">
        <path id="路径_422" data-name="路径 422" class="cls-2" d="M316.752,524.328h91.323l-52.089,36.924H49.385a53.52,53.52,0,0,1-17.142-30.33H301.919Z" transform="translate(-32.243 -470.522)"/>
        <path id="路径_423" data-name="路径 423" class="cls-2" d="M219.648,502.221q1.76-2.56,3.52-5.118h31.487q2.318,2.56,4.639,5.118Z" transform="translate(-130.594 -479.198)"/>
        <path id="路径_424" data-name="路径 424" class="cls-2" d="M225.929,503.01q.024-8.442.047-16.885h16.535l4.237,16.885Z" transform="translate(-126.332 -482.697)"/>
        <g id="组_511" data-name="组 511" transform="translate(11.218 11.508)">
          <path id="路径_425" data-name="路径 425" class="cls-2" d="M92.707,497.92l7.039-5.668h62.972q4.639,2.834,9.278,5.668Z" transform="translate(112.882 -492.252)"/>
          <path id="路径_426" data-name="路径 426" class="cls-2" d="M80.635,505.016l3.4-4.514h267.7l7.389,4.514Z" transform="translate(-58.332 -489.623)"/>
          <g id="组_510" data-name="组 510" transform="translate(0 20.605)">
            <path id="路径_427" data-name="路径 427" class="cls-2" d="M68.493,512.446l3.443-4.569H362.892l7.48,4.569Z" transform="translate(-53.561 -507.877)"/>
            <path id="路径_428" data-name="路径 428" class="cls-2" d="M377.429,515.294l13.1,8H323.508q-7.416,3.3-14.833,6.593H52.086q5.5-7.3,11-14.6Z" transform="translate(-52.086 -505.513)"/>
          </g>
        </g>
        <path id="路径_429" data-name="路径 429" class="cls-2" d="M282.553,9.828,270.519-3.428H262.9l7.619,13.256Z" transform="translate(0.001 3.428)"/>
      </g>
    </g>
    <text id="Andere_Länderen" data-name="Andere
Länderen" class="cls-3" transform="translate(1007.442 934.068)"><tspan x="-38.965" y="0">Andere</tspan><tspan x="-51" y="31">Länderen</tspan></text>
    <g id="组_550" data-name="组 550" transform="translate(-4632.901 -2972.883)">
      <g id="组_546" data-name="组 546">
        <path id="路径_421" data-name="路径 421" class="cls-4" d="M2922.553,2956.866h-.587c-17.889-.068-35.008-3.134-51.563-6.1-15.235-2.728-29.6-5.295-43.164-5.269-13.809.037-29.076,2.694-45.24,5.507-16.552,2.881-33.667,5.86-49.592,5.86-16.056,0-33.575-3.025-50.518-5.95-16.075-2.776-31.259-5.4-44.3-5.417h-.139c-13.117,0-29.227,2.782-44.811,5.473-16.854,2.91-34.281,5.936-49.853,5.894-15.58-.026-33.159-3.029-50.159-5.934-16.354-2.794-31.8-5.433-44.623-5.433-12.905,0-29.38,2.8-45.313,5.51-16.94,2.88-34.456,5.858-49.415,5.858h-.082c-15.216-.011-33.54-3.07-51.26-6.029-16.445-2.745-31.977-5.338-43.533-5.338a199.457,199.457,0,0,0-44.5,5.313l-5.792-22.259a221.244,221.244,0,0,1,50.3-6.054c13.462,0,29.909,2.746,47.32,5.653,16.8,2.8,34.171,5.7,47.49,5.715h.065c13.018,0,29.56-2.812,45.559-5.532,16.874-2.869,34.322-5.835,49.168-5.835,14.771,0,31.916,2.929,48.5,5.762,16.064,2.745,32.675,5.583,46.324,5.605h.161c13.549,0,29.912-2.826,45.74-5.559,16.6-2.867,33.786-5.851,48.9-5.809,15,.023,31.865,2.935,48.179,5.752,15.988,2.761,32.52,5.615,46.6,5.615,13.938,0,30.058-2.806,45.648-5.519,16.4-2.854,33.357-5.806,49.123-5.848,15.6-.052,31.71,2.841,47.279,5.629,15.588,2.791,31.707,5.677,47.6,5.738,15.711.059,30.489-2.663,46.142-5.546,15.537-2.862,31.6-5.821,48.615-5.821,17.258,0,33.824,3,49.845,5.9,15.507,2.807,30.154,5.459,44.963,5.468,14.922,0,29.684-2.665,45.351-5.5,15.968-2.886,32.48-5.87,49.443-5.871s33.439,2.979,49.376,5.86c15.662,2.832,30.456,5.507,45.426,5.507,14.911,0,29.564-2.659,45.078-5.474,15.961-2.9,32.466-5.891,49.722-5.893h.016c17.183,0,33.494,2.976,49.268,5.854,15.543,2.835,30.223,5.514,45.519,5.514,29.471,0,43.229-4.9,43.364-4.952l8.162,21.5c-1.718.66-17.755,6.449-51.526,6.449-17.376,0-33.781-2.993-49.646-5.887-15.446-2.818-30.039-5.48-45.139-5.48h-.014c-15.188,0-29.969,2.684-45.619,5.524-15.832,2.873-32.2,5.844-49.184,5.844-17.033,0-33.548-2.986-49.519-5.874-15.626-2.825-30.385-5.494-45.282-5.493s-29.693,2.674-45.353,5.5c-15.949,2.883-32.441,5.863-49.364,5.863h-.093c-16.867-.011-33.226-2.972-49.046-5.836-15.714-2.844-30.556-5.531-45.748-5.531-14.911,0-29.259,2.643-44.449,5.44C2956.536,2953.853,2940.177,2956.866,2922.553,2956.866Z" transform="translate(2832.039 787.959)"/>
        <path id="路径_421-2" data-name="路径 421" class="cls-4" d="M2922.553,2956.866h-.587c-17.889-.068-35.008-3.134-51.563-6.1-15.235-2.728-29.6-5.295-43.164-5.269-13.809.037-29.076,2.694-45.24,5.507-16.552,2.881-33.667,5.86-49.592,5.86-16.056,0-33.575-3.025-50.518-5.95-16.075-2.776-31.259-5.4-44.3-5.417h-.139c-13.117,0-29.227,2.782-44.811,5.473-16.854,2.91-34.281,5.936-49.853,5.894-15.58-.026-33.159-3.029-50.159-5.934-16.354-2.794-31.8-5.433-44.623-5.433-12.905,0-29.38,2.8-45.313,5.51-16.94,2.88-34.456,5.858-49.415,5.858h-.082c-15.216-.011-33.54-3.07-51.26-6.029-16.445-2.745-31.977-5.338-43.533-5.338a199.457,199.457,0,0,0-44.5,5.313l-5.792-22.259a221.244,221.244,0,0,1,50.3-6.054c13.462,0,29.909,2.746,47.32,5.653,16.8,2.8,34.171,5.7,47.49,5.715h.065c13.018,0,29.56-2.812,45.559-5.532,16.874-2.869,34.322-5.835,49.168-5.835,14.771,0,31.916,2.929,48.5,5.762,16.064,2.745,32.675,5.583,46.324,5.605h.161c13.549,0,29.912-2.826,45.74-5.559,16.6-2.867,33.786-5.851,48.9-5.809,15,.023,31.865,2.935,48.179,5.752,15.988,2.761,32.52,5.615,46.6,5.615,13.938,0,30.058-2.806,45.648-5.519,16.4-2.854,33.357-5.806,49.123-5.848,15.6-.052,31.71,2.841,47.279,5.629,15.588,2.791,31.707,5.677,47.6,5.738,15.711.059,30.489-2.663,46.142-5.546,15.537-2.862,31.6-5.821,48.615-5.821,17.258,0,33.824,3,49.845,5.9,15.507,2.807,30.154,5.459,44.963,5.468,14.922,0,29.684-2.665,45.351-5.5,15.968-2.886,32.48-5.87,49.443-5.871s33.439,2.979,49.376,5.86c15.662,2.832,30.456,5.507,45.426,5.507,14.911,0,29.564-2.659,45.078-5.474,15.961-2.9,32.466-5.891,49.722-5.893h.016c17.183,0,33.494,2.976,49.268,5.854,15.543,2.835,30.223,5.514,45.519,5.514,29.471,0,43.229-4.9,43.364-4.952l8.162,21.5c-1.718.66-17.755,6.449-51.526,6.449-17.376,0-33.781-2.993-49.646-5.887-15.446-2.818-30.039-5.48-45.139-5.48h-.014c-15.188,0-29.969,2.684-45.619,5.524-15.832,2.873-32.2,5.844-49.184,5.844-17.033,0-33.548-2.986-49.519-5.874-15.626-2.825-30.385-5.494-45.282-5.493s-29.693,2.674-45.353,5.5c-15.949,2.883-32.441,5.863-49.364,5.863h-.093c-16.867-.011-33.226-2.972-49.046-5.836-15.714-2.844-30.556-5.531-45.748-5.531-14.911,0-29.259,2.643-44.449,5.44C2956.536,2953.853,2940.177,2956.866,2922.553,2956.866Z" transform="translate(2448.34 787.959)"/>
        <path id="路径_420" data-name="路径 420" class="cls-5" d="M2922.546,2947.866H2922c-17.106-.065-33.834-3.061-50.011-5.957-15.534-2.781-30.214-5.41-44.466-5.41h-.308c-14.575.039-30.936,2.886-46.759,5.641-16.175,2.815-32.9,5.727-48.049,5.727-15.285,0-32.417-2.958-48.986-5.819-7.921-1.368-16.111-2.781-23.846-3.819a169.231,169.231,0,0,0-21.972-1.729h-.155a168.928,168.928,0,0,0-22.11,1.726c-7.863,1.052-16.183,2.489-24.23,3.878-16.407,2.833-33.374,5.763-48.122,5.763h-.185c-14.824-.025-32.025-2.963-48.659-5.805-8.052-1.375-16.378-2.8-24.19-3.84A168.684,168.684,0,0,0,2448,2936.5c-13.665,0-30.521,2.866-46.822,5.637-16.571,2.817-33.706,5.73-47.905,5.73h-.077c-14.473-.011-32.424-3.008-49.784-5.906-16.823-2.809-32.713-5.461-45.015-5.461a205.613,205.613,0,0,0-32.812,2.8c-8.461,1.386-13.905,2.792-13.959,2.806l-1.259-4.839c.228-.059,5.671-1.466,14.34-2.889a213.425,213.425,0,0,1,33.69-2.875c12.716,0,28.805,2.686,45.838,5.53,17.16,2.865,34.9,5.827,48.965,5.837h.073c13.778,0,30.7-2.877,47.067-5.66,16.505-2.806,33.573-5.708,47.659-5.708a173.458,173.458,0,0,1,22.61,1.766c7.9,1.054,16.275,2.484,24.371,3.867,16.43,2.807,33.42,5.71,47.825,5.734h.177c14.32,0,31.07-2.893,47.27-5.69,16.164-2.792,32.877-5.677,47.193-5.677h.16a174.007,174.007,0,0,1,22.629,1.773c7.829,1.05,16.066,2.472,24.032,3.848,16.361,2.825,33.28,5.746,48.136,5.746,14.716,0,31.225-2.874,47.191-5.653,16.029-2.79,32.6-5.675,47.6-5.715h.323c14.7,0,29.586,2.667,45.346,5.489,15.967,2.859,32.477,5.815,49.148,5.879h.525a176.427,176.427,0,0,0,23.67-1.739c7.949-1.073,15.911-2.539,23.611-3.958,7.555-1.391,15.366-2.83,23.145-3.893a175.661,175.661,0,0,1,23.84-1.779c16.449,0,32.612,2.926,48.242,5.755,7.641,1.383,15.543,2.813,23.307,3.865a174.056,174.056,0,0,0,23.254,1.748h.082a174.442,174.442,0,0,0,23.349-1.747c7.838-1.058,15.813-2.5,23.526-3.893,15.578-2.815,31.686-5.727,47.843-5.727s32.228,2.906,47.774,5.717c7.708,1.394,15.677,2.834,23.524,3.894a157.7,157.7,0,0,0,46.858.012c7.782-1.053,15.686-2.487,23.33-3.874,15.57-2.825,31.67-5.747,48.116-5.749h.015c16.369,0,32.272,2.9,47.652,5.707,7.649,1.4,15.559,2.839,23.4,3.9a176.564,176.564,0,0,0,23.729,1.76,235.343,235.343,0,0,0,35.9-2.472,90.268,90.268,0,0,0,11.814-2.471l1.517,4.764a91.84,91.84,0,0,1-12.377,2.618,239.823,239.823,0,0,1-36.853,2.561c-16.562,0-32.56-2.919-48.031-5.741-7.614-1.389-15.487-2.825-23.272-3.88a174.607,174.607,0,0,0-23.482-1.746h-.016a176.965,176.965,0,0,0-23.7,1.764c-7.871,1.063-15.831,2.508-23.528,3.9-15.44,2.8-31.406,5.7-47.577,5.7-16.226,0-32.337-2.913-47.917-5.73-7.693-1.391-15.648-2.829-23.471-3.886a157.395,157.395,0,0,0-46.853,0c-7.837,1.059-15.806,2.5-23.513,3.892-15.559,2.812-31.647,5.719-47.764,5.719h-.086c-16.062-.01-32.018-2.9-47.448-5.692-7.726-1.4-15.716-2.845-23.611-3.91a177.434,177.434,0,0,0-23.74-1.766,170.793,170.793,0,0,0-23.163,1.733c-7.664,1.047-15.417,2.475-22.916,3.856C2955.3,2944.928,2939.354,2947.866,2922.546,2947.866Z" transform="translate(2449.34 778.039)"/>
        <path id="路径_419" data-name="路径 419" class="cls-5" d="M2922.546,2947.866H2922c-17.106-.065-33.834-3.061-50.011-5.957-15.534-2.781-30.214-5.41-44.466-5.41h-.308c-14.575.039-30.936,2.886-46.759,5.641-16.175,2.815-32.9,5.727-48.049,5.727-15.285,0-32.417-2.958-48.986-5.819-7.921-1.368-16.111-2.781-23.846-3.819a169.231,169.231,0,0,0-21.972-1.729h-.155a168.928,168.928,0,0,0-22.11,1.726c-7.863,1.052-16.183,2.489-24.23,3.878-16.407,2.833-33.374,5.763-48.122,5.763h-.185c-14.824-.025-32.025-2.963-48.658-5.805-8.052-1.375-16.378-2.8-24.19-3.84A168.684,168.684,0,0,0,2448,2936.5c-13.665,0-30.521,2.866-46.822,5.637-16.571,2.817-33.706,5.73-47.905,5.73h-.077c-14.473-.011-32.424-3.008-49.784-5.906-16.823-2.809-32.713-5.461-45.015-5.461a205.613,205.613,0,0,0-32.812,2.8c-8.461,1.386-13.905,2.792-13.959,2.806l-1.259-4.839c.228-.059,5.671-1.466,14.34-2.889a213.425,213.425,0,0,1,33.69-2.875c12.716,0,28.805,2.686,45.838,5.53,17.16,2.865,34.9,5.827,48.965,5.837h.073c13.778,0,30.7-2.877,47.067-5.659,16.505-2.806,33.573-5.708,47.659-5.708a173.458,173.458,0,0,1,22.61,1.766c7.9,1.054,16.275,2.484,24.371,3.867,16.43,2.807,33.42,5.71,47.825,5.734h.177c14.32,0,31.07-2.893,47.27-5.69,16.164-2.792,32.877-5.677,47.193-5.677h.16a174.014,174.014,0,0,1,22.629,1.773c7.829,1.05,16.066,2.472,24.032,3.848,16.361,2.825,33.28,5.746,48.136,5.746,14.716,0,31.225-2.874,47.191-5.653,16.029-2.79,32.6-5.675,47.6-5.715h.323c14.7,0,29.586,2.667,45.346,5.489,15.967,2.859,32.477,5.815,49.148,5.879h.525a176.427,176.427,0,0,0,23.67-1.739c7.949-1.073,15.911-2.539,23.611-3.958,7.555-1.391,15.366-2.83,23.145-3.893a175.658,175.658,0,0,1,23.84-1.779c16.449,0,32.612,2.926,48.242,5.755,7.641,1.383,15.543,2.813,23.307,3.865a174.056,174.056,0,0,0,23.254,1.748h.082a174.442,174.442,0,0,0,23.349-1.747c7.838-1.058,15.813-2.5,23.526-3.893,15.578-2.815,31.686-5.727,47.843-5.727s32.228,2.906,47.774,5.717c7.708,1.394,15.677,2.834,23.524,3.894a157.7,157.7,0,0,0,46.858.012c7.782-1.053,15.686-2.487,23.33-3.874,15.57-2.825,31.669-5.747,48.116-5.749h.015c16.369,0,32.272,2.9,47.652,5.707,7.649,1.4,15.559,2.839,23.4,3.9a176.564,176.564,0,0,0,23.729,1.76,233.05,233.05,0,0,0,35.871-2.491,89.187,89.187,0,0,0,11.792-2.49l1.532,4.76a90.809,90.809,0,0,1-12.36,2.64,237.5,237.5,0,0,1-36.835,2.582c-16.562,0-32.56-2.919-48.031-5.741-7.614-1.389-15.487-2.825-23.272-3.88a174.609,174.609,0,0,0-23.482-1.746h-.016a176.965,176.965,0,0,0-23.7,1.764c-7.871,1.063-15.831,2.508-23.528,3.9-15.44,2.8-31.406,5.7-47.577,5.7-16.226,0-32.337-2.913-47.917-5.73-7.693-1.391-15.648-2.829-23.471-3.886a157.395,157.395,0,0,0-46.853,0c-7.837,1.059-15.806,2.5-23.513,3.892-15.559,2.812-31.647,5.719-47.764,5.719h-.086c-16.062-.01-32.018-2.9-47.448-5.692-7.726-1.4-15.716-2.845-23.611-3.91a177.434,177.434,0,0,0-23.74-1.766,170.793,170.793,0,0,0-23.163,1.733c-7.664,1.047-15.417,2.475-22.916,3.856C2955.3,2944.928,2939.354,2947.866,2922.546,2947.866Z" transform="translate(2449.34 788.117)"/>
        <path id="路径_418" data-name="路径 418" class="cls-5" d="M2922.546,2947.866H2922c-17.106-.065-33.834-3.061-50.011-5.957-15.534-2.781-30.214-5.41-44.466-5.41h-.308c-14.575.039-30.936,2.886-46.759,5.641-16.175,2.815-32.9,5.727-48.049,5.727-15.285,0-32.418-2.958-48.986-5.819-7.921-1.368-16.111-2.781-23.846-3.819a169.231,169.231,0,0,0-21.972-1.729h-.155a168.928,168.928,0,0,0-22.11,1.726c-7.863,1.052-16.183,2.489-24.23,3.878-16.408,2.833-33.374,5.763-48.122,5.763h-.185c-14.825-.025-32.025-2.963-48.659-5.805-8.052-1.375-16.378-2.8-24.189-3.84A168.694,168.694,0,0,0,2448,2936.5c-13.665,0-30.521,2.866-46.822,5.637-16.571,2.817-33.706,5.73-47.905,5.73h-.077c-14.473-.011-32.424-3.008-49.784-5.906-16.823-2.809-32.713-5.461-45.015-5.461a205.613,205.613,0,0,0-32.812,2.8c-8.461,1.386-13.905,2.792-13.959,2.806l-1.259-4.839c.228-.059,5.671-1.466,14.34-2.889a213.425,213.425,0,0,1,33.69-2.875c12.716,0,28.805,2.686,45.838,5.53,17.16,2.865,34.9,5.827,48.965,5.837h.073c13.778,0,30.7-2.877,47.067-5.66,16.505-2.806,33.573-5.708,47.659-5.708a173.458,173.458,0,0,1,22.61,1.766c7.9,1.054,16.275,2.484,24.371,3.867,16.431,2.807,33.42,5.71,47.825,5.734h.177c14.32,0,31.07-2.893,47.27-5.69,16.164-2.792,32.877-5.677,47.193-5.677h.16a174.007,174.007,0,0,1,22.629,1.773c7.829,1.05,16.066,2.472,24.033,3.848,16.361,2.825,33.279,5.746,48.135,5.746,14.716,0,31.225-2.874,47.191-5.653,16.029-2.79,32.6-5.675,47.6-5.715h.323c14.7,0,29.587,2.667,45.346,5.489,15.966,2.859,32.477,5.815,49.148,5.879h.525a176.427,176.427,0,0,0,23.67-1.739c7.949-1.073,15.911-2.539,23.611-3.958,7.554-1.391,15.366-2.83,23.145-3.893a175.658,175.658,0,0,1,23.84-1.779c16.449,0,32.612,2.926,48.242,5.755,7.641,1.383,15.542,2.813,23.307,3.865a174.056,174.056,0,0,0,23.254,1.748h.082a174.448,174.448,0,0,0,23.349-1.747c7.837-1.058,15.813-2.5,23.526-3.893,15.578-2.815,31.686-5.727,47.842-5.727s32.228,2.906,47.774,5.717c7.708,1.394,15.677,2.834,23.524,3.894a157.7,157.7,0,0,0,46.858.012c7.782-1.053,15.686-2.487,23.33-3.874,15.57-2.825,31.67-5.747,48.117-5.749h.015c16.369,0,32.272,2.9,47.652,5.707,7.649,1.4,15.559,2.839,23.4,3.9a176.6,176.6,0,0,0,23.729,1.76,239.563,239.563,0,0,0,37.162-2.711,112.04,112.04,0,0,0,13.047-2.711l1.443,4.787a113.457,113.457,0,0,1-13.564,2.839c-5.088.812-10.528,1.459-16.168,1.923-7.039.579-14.414.872-21.921.872-16.562,0-32.56-2.919-48.031-5.741-7.614-1.389-15.487-2.825-23.273-3.88a174.6,174.6,0,0,0-23.482-1.746h-.016a176.965,176.965,0,0,0-23.7,1.764c-7.871,1.063-15.831,2.508-23.528,3.9-15.44,2.8-31.406,5.7-47.577,5.7-16.226,0-32.337-2.913-47.917-5.73-7.693-1.391-15.648-2.829-23.471-3.886a157.395,157.395,0,0,0-46.853,0c-7.837,1.059-15.806,2.5-23.513,3.892-15.559,2.812-31.647,5.719-47.764,5.719h-.086c-16.062-.01-32.018-2.9-47.448-5.692-7.726-1.4-15.716-2.845-23.611-3.91a177.437,177.437,0,0,0-23.74-1.766,170.793,170.793,0,0,0-23.163,1.733c-7.664,1.047-15.417,2.475-22.916,3.856C2955.3,2944.928,2939.354,2947.866,2922.546,2947.866Z" transform="translate(2449.155 797.878)"/>
        <g id="组_517" data-name="组 517" transform="translate(2545.226 32.64)">
          <path id="路径_420-2" data-name="路径 420" class="cls-5" d="M2922.546,2947.866H2922c-17.106-.065-33.834-3.061-50.011-5.957-15.534-2.781-30.214-5.41-44.466-5.41h-.308c-14.575.039-30.937,2.886-46.76,5.641-16.175,2.815-32.9,5.727-48.049,5.727-15.285,0-32.417-2.958-48.986-5.819-7.921-1.368-16.111-2.781-23.846-3.819a169.227,169.227,0,0,0-21.972-1.729h-.155a168.932,168.932,0,0,0-22.11,1.726c-7.863,1.052-16.184,2.489-24.23,3.878-16.408,2.833-33.374,5.763-48.121,5.763h-.185c-14.825-.025-32.025-2.963-48.659-5.805-8.052-1.375-16.378-2.8-24.19-3.84A168.684,168.684,0,0,0,2448,2936.5c-13.665,0-30.521,2.866-46.821,5.637-16.571,2.817-33.706,5.73-47.905,5.73h-.077c-14.473-.011-32.424-3.008-49.784-5.906-16.823-2.809-32.713-5.461-45.015-5.461a235.884,235.884,0,0,0-32.945,2.456c-8.509,1.217-14,2.45-14.052,2.462l-1.1-4.876c.229-.052,5.7-1.281,14.387-2.526a244.1,244.1,0,0,1,33.713-2.515c12.716,0,28.8,2.686,45.838,5.53,17.16,2.865,34.9,5.827,48.965,5.837h.073c13.778,0,30.7-2.877,47.067-5.66,16.505-2.806,33.573-5.708,47.659-5.708a173.458,173.458,0,0,1,22.61,1.766c7.9,1.054,16.275,2.484,24.371,3.867,16.43,2.807,33.42,5.71,47.825,5.734h.177c14.32,0,31.069-2.893,47.27-5.69,16.164-2.792,32.876-5.677,47.193-5.677h.16a174.007,174.007,0,0,1,22.629,1.773c7.829,1.05,16.066,2.472,24.032,3.848,16.361,2.825,33.28,5.746,48.136,5.746,14.716,0,31.225-2.874,47.191-5.653,16.029-2.79,32.6-5.675,47.6-5.715h.323c14.7,0,29.586,2.667,45.346,5.489,15.966,2.859,32.477,5.815,49.148,5.879h.525a176.427,176.427,0,0,0,23.67-1.739c7.949-1.073,15.911-2.539,23.611-3.958,7.554-1.391,15.366-2.83,23.145-3.893a175.661,175.661,0,0,1,23.84-1.779c16.449,0,32.612,2.926,48.242,5.755,7.641,1.383,15.543,2.813,23.307,3.865a174.059,174.059,0,0,0,23.254,1.748h.082a174.448,174.448,0,0,0,23.349-1.747c7.837-1.058,15.813-2.5,23.526-3.893,15.578-2.815,31.686-5.727,47.842-5.727s32.228,2.906,47.774,5.717c7.707,1.394,15.677,2.834,23.524,3.894a157.7,157.7,0,0,0,46.858.012c7.782-1.053,15.686-2.487,23.33-3.874,15.57-2.825,31.67-5.747,48.117-5.749h.016c16.369,0,32.272,2.9,47.652,5.707,7.649,1.4,15.559,2.839,23.4,3.9a176.564,176.564,0,0,0,23.729,1.76,200.256,200.256,0,0,0,35.257-2.76,71.467,71.467,0,0,0,11.251-2.758l1.79,4.669a73.289,73.289,0,0,1-11.918,2.968c-4.588.839-9.633,1.506-14.992,1.985-6.679.6-13.874.9-21.387.9-16.562,0-32.56-2.919-48.031-5.741-7.614-1.389-15.487-2.825-23.272-3.88a174.6,174.6,0,0,0-23.482-1.746h-.016a176.965,176.965,0,0,0-23.7,1.764c-7.871,1.063-15.831,2.508-23.528,3.9-15.44,2.8-31.406,5.7-47.577,5.7-16.226,0-32.337-2.913-47.917-5.73-7.693-1.391-15.649-2.829-23.471-3.886a157.395,157.395,0,0,0-46.853,0c-7.837,1.059-15.806,2.5-23.513,3.892-15.56,2.812-31.648,5.719-47.764,5.719h-.086c-16.062-.01-32.018-2.9-47.448-5.692-7.726-1.4-15.716-2.845-23.612-3.91a177.428,177.428,0,0,0-23.74-1.766,170.79,170.79,0,0,0-23.163,1.733c-7.664,1.047-15.417,2.475-22.916,3.856C2955.3,2944.928,2939.354,2947.866,2922.546,2947.866Z" transform="translate(287.813 745.399)"/>
        </g>
        <path id="路径_419-2" data-name="路径 419" class="cls-5" d="M2922.546,2947.866H2922c-17.106-.065-33.834-3.061-50.011-5.957-15.534-2.781-30.214-5.41-44.466-5.41h-.308c-14.575.039-30.936,2.886-46.759,5.641-16.175,2.815-32.9,5.727-48.049,5.727-15.285,0-32.418-2.958-48.987-5.819-7.92-1.368-16.111-2.781-23.846-3.819a169.231,169.231,0,0,0-21.972-1.729h-.155a168.928,168.928,0,0,0-22.11,1.726c-7.863,1.052-16.183,2.489-24.23,3.878-16.408,2.833-33.374,5.763-48.122,5.763h-.185c-14.825-.025-32.025-2.963-48.659-5.805-8.052-1.375-16.378-2.8-24.189-3.84A168.694,168.694,0,0,0,2448,2936.5c-13.665,0-30.521,2.866-46.822,5.637-16.571,2.817-33.706,5.73-47.905,5.73h-.077c-14.473-.011-32.424-3.008-49.784-5.906-16.823-2.809-32.713-5.461-45.015-5.461a236.453,236.453,0,0,0-32.944,2.45c-8.508,1.213-14,2.443-14.05,2.456l-1.1-4.877c.229-.052,5.694-1.278,14.385-2.52a244.657,244.657,0,0,1,33.711-2.509c12.716,0,28.805,2.686,45.838,5.53,17.16,2.865,34.9,5.827,48.965,5.837h.073c13.778,0,30.7-2.877,47.067-5.66,16.505-2.806,33.573-5.708,47.659-5.708a173.458,173.458,0,0,1,22.61,1.766c7.9,1.054,16.275,2.484,24.371,3.867,16.431,2.807,33.42,5.71,47.825,5.734h.177c14.32,0,31.07-2.893,47.27-5.69,16.164-2.792,32.877-5.677,47.193-5.677h.16a174.007,174.007,0,0,1,22.629,1.773c7.829,1.05,16.066,2.472,24.033,3.848,16.361,2.825,33.279,5.746,48.135,5.746,14.716,0,31.225-2.874,47.191-5.653,16.029-2.79,32.6-5.675,47.6-5.715h.323c14.7,0,29.587,2.667,45.346,5.489,15.966,2.859,32.477,5.815,49.148,5.879h.525a176.427,176.427,0,0,0,23.67-1.739c7.949-1.073,15.911-2.539,23.611-3.958,7.554-1.391,15.366-2.83,23.145-3.893a175.658,175.658,0,0,1,23.84-1.779c16.449,0,32.612,2.926,48.242,5.755,7.641,1.383,15.542,2.813,23.307,3.865a174.056,174.056,0,0,0,23.254,1.748h.082a174.448,174.448,0,0,0,23.349-1.747c7.837-1.058,15.813-2.5,23.526-3.893,15.578-2.815,31.686-5.727,47.842-5.727s32.228,2.906,47.774,5.717c7.708,1.394,15.677,2.834,23.524,3.894a157.7,157.7,0,0,0,46.858.012c7.782-1.053,15.686-2.487,23.33-3.874,15.57-2.825,31.67-5.747,48.117-5.749h.015c16.369,0,32.272,2.9,47.652,5.707,7.649,1.4,15.559,2.839,23.4,3.9a176.564,176.564,0,0,0,23.729,1.76,200.256,200.256,0,0,0,35.257-2.76,71.467,71.467,0,0,0,11.251-2.758l1.79,4.669a73.3,73.3,0,0,1-11.918,2.968c-4.588.839-9.633,1.506-14.993,1.985-6.678.6-13.874.9-21.386.9-16.562,0-32.56-2.919-48.031-5.741-7.614-1.389-15.487-2.825-23.273-3.88a174.6,174.6,0,0,0-23.482-1.746h-.016a176.965,176.965,0,0,0-23.7,1.764c-7.871,1.063-15.831,2.508-23.528,3.9-15.44,2.8-31.406,5.7-47.577,5.7-16.226,0-32.337-2.913-47.917-5.73-7.693-1.391-15.648-2.829-23.471-3.886a157.395,157.395,0,0,0-46.853,0c-7.837,1.059-15.806,2.5-23.513,3.892-15.559,2.812-31.648,5.719-47.764,5.719h-.086c-16.062-.01-32.018-2.9-47.448-5.692-7.726-1.4-15.716-2.845-23.611-3.91a177.437,177.437,0,0,0-23.74-1.766,170.793,170.793,0,0,0-23.163,1.733c-7.664,1.047-15.417,2.475-22.916,3.856C2955.3,2944.928,2939.354,2947.866,2922.546,2947.866Z" transform="translate(2833.039 788.117)"/>
        <path id="路径_418-2" data-name="路径 418" class="cls-5" d="M2922.546,2947.866H2922c-17.106-.065-33.834-3.061-50.011-5.957-15.534-2.781-30.214-5.41-44.466-5.41h-.309c-14.575.039-30.936,2.886-46.759,5.641-16.175,2.815-32.9,5.727-48.049,5.727-15.284,0-32.417-2.958-48.986-5.819-7.92-1.367-16.111-2.781-23.846-3.819a169.227,169.227,0,0,0-21.972-1.729h-.155a168.932,168.932,0,0,0-22.11,1.726c-7.863,1.052-16.184,2.489-24.23,3.878-16.408,2.833-33.374,5.763-48.121,5.763h-.185c-14.825-.025-32.025-2.963-48.659-5.805-8.052-1.375-16.378-2.8-24.19-3.84A168.684,168.684,0,0,0,2448,2936.5c-13.665,0-30.521,2.866-46.821,5.637-16.571,2.817-33.706,5.73-47.905,5.73h-.076c-14.474-.011-32.425-3.008-49.785-5.906-16.823-2.809-32.713-5.461-45.015-5.461a235.8,235.8,0,0,0-32.929,2.454c-8.5,1.216-13.982,2.448-14.037,2.46l-1.1-4.877c.228-.052,5.688-1.281,14.372-2.524a243.958,243.958,0,0,1,33.7-2.513c12.716,0,28.8,2.686,45.838,5.53,17.16,2.865,34.9,5.827,48.965,5.837h.073c13.778,0,30.7-2.877,47.067-5.66,16.505-2.806,33.573-5.708,47.659-5.708a173.458,173.458,0,0,1,22.61,1.766c7.9,1.054,16.275,2.484,24.371,3.867,16.43,2.807,33.42,5.71,47.825,5.734h.177c14.32,0,31.069-2.893,47.27-5.69,16.164-2.792,32.876-5.677,47.193-5.677h.16a174.007,174.007,0,0,1,22.629,1.773c7.829,1.05,16.066,2.472,24.032,3.848,16.361,2.825,33.28,5.746,48.136,5.746,14.716,0,31.225-2.874,47.191-5.653,16.029-2.79,32.6-5.675,47.6-5.715h.323c14.7,0,29.586,2.667,45.346,5.489,15.967,2.859,32.477,5.815,49.149,5.879h.525a176.427,176.427,0,0,0,23.67-1.739c7.949-1.073,15.911-2.539,23.611-3.958,7.555-1.391,15.366-2.83,23.145-3.893a175.658,175.658,0,0,1,23.84-1.779c16.449,0,32.612,2.926,48.242,5.755,7.641,1.383,15.543,2.813,23.307,3.865a174.059,174.059,0,0,0,23.253,1.748h.083a174.442,174.442,0,0,0,23.349-1.747c7.838-1.058,15.813-2.5,23.526-3.893,15.578-2.815,31.686-5.727,47.843-5.727s32.228,2.906,47.774,5.717c7.708,1.394,15.677,2.834,23.524,3.894a157.7,157.7,0,0,0,46.858.012c7.782-1.053,15.686-2.487,23.33-3.874,15.57-2.825,31.67-5.747,48.117-5.749h.016c16.369,0,32.272,2.9,47.652,5.707,7.649,1.4,15.559,2.839,23.4,3.9a176.6,176.6,0,0,0,23.729,1.76,200.256,200.256,0,0,0,35.257-2.76,71.467,71.467,0,0,0,11.251-2.758l1.79,4.669a73.289,73.289,0,0,1-11.918,2.968c-4.589.839-9.633,1.506-14.993,1.985-6.679.6-13.874.9-21.387.9-16.562,0-32.56-2.919-48.031-5.741-7.614-1.389-15.487-2.825-23.272-3.88a174.609,174.609,0,0,0-23.482-1.746h-.016a176.967,176.967,0,0,0-23.7,1.764c-7.871,1.063-15.831,2.508-23.528,3.9-15.44,2.8-31.406,5.7-47.577,5.7-16.226,0-32.337-2.913-47.917-5.73-7.693-1.391-15.648-2.829-23.471-3.886a157.395,157.395,0,0,0-46.853,0c-7.837,1.059-15.806,2.5-23.513,3.892-15.56,2.812-31.648,5.719-47.764,5.719h-.086c-16.062-.01-32.018-2.9-47.448-5.692-7.726-1.4-15.716-2.845-23.611-3.91a177.434,177.434,0,0,0-23.74-1.766,170.79,170.79,0,0,0-23.163,1.733c-7.664,1.047-15.417,2.475-22.916,3.856C2955.3,2944.928,2939.354,2947.866,2922.546,2947.866Z" transform="translate(2832.854 797.878)"/>
      </g>
      <g id="组_547" data-name="组 547" transform="translate(-95 22)">
        <path id="路径_421-3" data-name="路径 421" class="cls-4" d="M2922.553,2956.866h-.587c-17.889-.068-35.008-3.134-51.563-6.1-15.235-2.728-29.6-5.295-43.164-5.269-13.809.037-29.076,2.694-45.24,5.507-16.552,2.881-33.667,5.86-49.592,5.86-16.056,0-33.575-3.025-50.518-5.95-16.075-2.776-31.259-5.4-44.3-5.417h-.139c-13.117,0-29.227,2.782-44.811,5.473-16.854,2.91-34.281,5.936-49.853,5.894-15.58-.026-33.159-3.029-50.159-5.934-16.354-2.794-31.8-5.433-44.623-5.433-12.905,0-29.38,2.8-45.313,5.51-16.94,2.88-34.456,5.858-49.415,5.858h-.082c-15.216-.011-33.54-3.07-51.26-6.029-16.445-2.745-31.977-5.338-43.533-5.338a199.457,199.457,0,0,0-44.5,5.313l-5.792-22.259a221.244,221.244,0,0,1,50.3-6.054c13.462,0,29.909,2.746,47.32,5.653,16.8,2.8,34.171,5.7,47.49,5.715h.065c13.018,0,29.56-2.812,45.559-5.532,16.874-2.869,34.322-5.835,49.168-5.835,14.771,0,31.916,2.929,48.5,5.762,16.064,2.745,32.675,5.583,46.324,5.605h.161c13.549,0,29.912-2.826,45.74-5.559,16.6-2.867,33.786-5.851,48.9-5.809,15,.023,31.865,2.935,48.179,5.752,15.988,2.761,32.52,5.615,46.6,5.615,13.938,0,30.058-2.806,45.648-5.519,16.4-2.854,33.357-5.806,49.123-5.848,15.6-.052,31.71,2.841,47.279,5.629,15.588,2.791,31.707,5.677,47.6,5.738,15.711.059,30.489-2.663,46.142-5.546,15.537-2.862,31.6-5.821,48.615-5.821,17.258,0,33.824,3,49.845,5.9,15.507,2.807,30.154,5.459,44.963,5.468,14.922,0,29.684-2.665,45.351-5.5,15.968-2.886,32.48-5.87,49.443-5.871s33.439,2.979,49.376,5.86c15.662,2.832,30.456,5.507,45.426,5.507,14.911,0,29.564-2.659,45.078-5.474,15.961-2.9,32.466-5.891,49.722-5.893h.016c17.183,0,33.494,2.976,49.268,5.854,15.543,2.835,30.223,5.514,45.519,5.514,29.471,0,43.229-4.9,43.364-4.952l8.162,21.5c-1.718.66-17.755,6.449-51.526,6.449-17.376,0-33.781-2.993-49.646-5.887-15.446-2.818-30.039-5.48-45.139-5.48h-.014c-15.188,0-29.969,2.684-45.619,5.524-15.832,2.873-32.2,5.844-49.184,5.844-17.033,0-33.548-2.986-49.519-5.874-15.626-2.825-30.385-5.494-45.282-5.493s-29.693,2.674-45.353,5.5c-15.949,2.883-32.441,5.863-49.364,5.863h-.093c-16.867-.011-33.226-2.972-49.046-5.836-15.714-2.844-30.556-5.531-45.748-5.531-14.911,0-29.259,2.643-44.449,5.44C2956.536,2953.853,2940.177,2956.866,2922.553,2956.866Z" transform="translate(2832.039 787.959)"/>
        <path id="路径_421-4" data-name="路径 421" class="cls-4" d="M2922.553,2956.866h-.587c-17.889-.068-35.008-3.134-51.563-6.1-15.235-2.728-29.6-5.295-43.164-5.269-13.809.037-29.076,2.694-45.24,5.507-16.552,2.881-33.667,5.86-49.592,5.86-16.056,0-33.575-3.025-50.518-5.95-16.075-2.776-31.259-5.4-44.3-5.417h-.139c-13.117,0-29.227,2.782-44.811,5.473-16.854,2.91-34.281,5.936-49.853,5.894-15.58-.026-33.159-3.029-50.159-5.934-16.354-2.794-31.8-5.433-44.623-5.433-12.905,0-29.38,2.8-45.313,5.51-16.94,2.88-34.456,5.858-49.415,5.858h-.082c-15.216-.011-33.54-3.07-51.26-6.029-16.445-2.745-31.977-5.338-43.533-5.338a199.457,199.457,0,0,0-44.5,5.313l-5.792-22.259a221.244,221.244,0,0,1,50.3-6.054c13.462,0,29.909,2.746,47.32,5.653,16.8,2.8,34.171,5.7,47.49,5.715h.065c13.018,0,29.56-2.812,45.559-5.532,16.874-2.869,34.322-5.835,49.168-5.835,14.771,0,31.916,2.929,48.5,5.762,16.064,2.745,32.675,5.583,46.324,5.605h.161c13.549,0,29.912-2.826,45.74-5.559,16.6-2.867,33.786-5.851,48.9-5.809,15,.023,31.865,2.935,48.179,5.752,15.988,2.761,32.52,5.615,46.6,5.615,13.938,0,30.058-2.806,45.648-5.519,16.4-2.854,33.357-5.806,49.123-5.848,15.6-.052,31.71,2.841,47.279,5.629,15.588,2.791,31.707,5.677,47.6,5.738,15.711.059,30.489-2.663,46.142-5.546,15.537-2.862,31.6-5.821,48.615-5.821,17.258,0,33.824,3,49.845,5.9,15.507,2.807,30.154,5.459,44.963,5.468,14.922,0,29.684-2.665,45.351-5.5,15.968-2.886,32.48-5.87,49.443-5.871s33.439,2.979,49.376,5.86c15.662,2.832,30.456,5.507,45.426,5.507,14.911,0,29.564-2.659,45.078-5.474,15.961-2.9,32.466-5.891,49.722-5.893h.016c17.183,0,33.494,2.976,49.268,5.854,15.543,2.835,30.223,5.514,45.519,5.514,29.471,0,43.229-4.9,43.364-4.952l8.162,21.5c-1.718.66-17.755,6.449-51.526,6.449-17.376,0-33.781-2.993-49.646-5.887-15.446-2.818-30.039-5.48-45.139-5.48h-.014c-15.188,0-29.969,2.684-45.619,5.524-15.832,2.873-32.2,5.844-49.184,5.844-17.033,0-33.548-2.986-49.519-5.874-15.626-2.825-30.385-5.494-45.282-5.493s-29.693,2.674-45.353,5.5c-15.949,2.883-32.441,5.863-49.364,5.863h-.093c-16.867-.011-33.226-2.972-49.046-5.836-15.714-2.844-30.556-5.531-45.748-5.531-14.911,0-29.259,2.643-44.449,5.44C2956.536,2953.853,2940.177,2956.866,2922.553,2956.866Z" transform="translate(2448.34 787.959)"/>
        <path id="路径_420-3" data-name="路径 420" class="cls-5" d="M2922.546,2947.866H2922c-17.106-.065-33.834-3.061-50.011-5.957-15.534-2.781-30.214-5.41-44.466-5.41h-.308c-14.575.039-30.936,2.886-46.759,5.641-16.175,2.815-32.9,5.727-48.049,5.727-15.285,0-32.417-2.958-48.986-5.819-7.921-1.368-16.111-2.781-23.846-3.819a169.231,169.231,0,0,0-21.972-1.729h-.155a168.928,168.928,0,0,0-22.11,1.726c-7.863,1.052-16.183,2.489-24.23,3.878-16.407,2.833-33.374,5.763-48.122,5.763h-.185c-14.824-.025-32.025-2.963-48.659-5.805-8.052-1.375-16.378-2.8-24.19-3.84A168.684,168.684,0,0,0,2448,2936.5c-13.665,0-30.521,2.866-46.822,5.637-16.571,2.817-33.706,5.73-47.905,5.73h-.077c-14.473-.011-32.424-3.008-49.784-5.906-16.823-2.809-32.713-5.461-45.015-5.461a205.613,205.613,0,0,0-32.812,2.8c-8.461,1.386-13.905,2.792-13.959,2.806l-1.259-4.839c.228-.059,5.671-1.466,14.34-2.889a213.425,213.425,0,0,1,33.69-2.875c12.716,0,28.805,2.686,45.838,5.53,17.16,2.865,34.9,5.827,48.965,5.837h.073c13.778,0,30.7-2.877,47.067-5.66,16.505-2.806,33.573-5.708,47.659-5.708a173.458,173.458,0,0,1,22.61,1.766c7.9,1.054,16.275,2.484,24.371,3.867,16.43,2.807,33.42,5.71,47.825,5.734h.177c14.32,0,31.07-2.893,47.27-5.69,16.164-2.792,32.877-5.677,47.193-5.677h.16a174.007,174.007,0,0,1,22.629,1.773c7.829,1.05,16.066,2.472,24.032,3.848,16.361,2.825,33.28,5.746,48.136,5.746,14.716,0,31.225-2.874,47.191-5.653,16.029-2.79,32.6-5.675,47.6-5.715h.323c14.7,0,29.586,2.667,45.346,5.489,15.967,2.859,32.477,5.815,49.148,5.879h.525a176.427,176.427,0,0,0,23.67-1.739c7.949-1.073,15.911-2.539,23.611-3.958,7.555-1.391,15.366-2.83,23.145-3.893a175.661,175.661,0,0,1,23.84-1.779c16.449,0,32.612,2.926,48.242,5.755,7.641,1.383,15.543,2.813,23.307,3.865a174.056,174.056,0,0,0,23.254,1.748h.082a174.442,174.442,0,0,0,23.349-1.747c7.838-1.058,15.813-2.5,23.526-3.893,15.578-2.815,31.686-5.727,47.843-5.727s32.228,2.906,47.774,5.717c7.708,1.394,15.677,2.834,23.524,3.894a157.7,157.7,0,0,0,46.858.012c7.782-1.053,15.686-2.487,23.33-3.874,15.57-2.825,31.67-5.747,48.116-5.749h.015c16.369,0,32.272,2.9,47.652,5.707,7.649,1.4,15.559,2.839,23.4,3.9a176.564,176.564,0,0,0,23.729,1.76,235.343,235.343,0,0,0,35.9-2.472,90.268,90.268,0,0,0,11.814-2.471l1.517,4.764a91.84,91.84,0,0,1-12.377,2.618,239.823,239.823,0,0,1-36.853,2.561c-16.562,0-32.56-2.919-48.031-5.741-7.614-1.389-15.487-2.825-23.272-3.88a174.607,174.607,0,0,0-23.482-1.746h-.016a176.965,176.965,0,0,0-23.7,1.764c-7.871,1.063-15.831,2.508-23.528,3.9-15.44,2.8-31.406,5.7-47.577,5.7-16.226,0-32.337-2.913-47.917-5.73-7.693-1.391-15.648-2.829-23.471-3.886a157.395,157.395,0,0,0-46.853,0c-7.837,1.059-15.806,2.5-23.513,3.892-15.559,2.812-31.647,5.719-47.764,5.719h-.086c-16.062-.01-32.018-2.9-47.448-5.692-7.726-1.4-15.716-2.845-23.611-3.91a177.434,177.434,0,0,0-23.74-1.766,170.793,170.793,0,0,0-23.163,1.733c-7.664,1.047-15.417,2.475-22.916,3.856C2955.3,2944.928,2939.354,2947.866,2922.546,2947.866Z" transform="translate(2449.34 778.039)"/>
        <path id="路径_419-3" data-name="路径 419" class="cls-5" d="M2922.546,2947.866H2922c-17.106-.065-33.834-3.061-50.011-5.957-15.534-2.781-30.214-5.41-44.466-5.41h-.308c-14.575.039-30.936,2.886-46.759,5.641-16.175,2.815-32.9,5.727-48.049,5.727-15.285,0-32.417-2.958-48.986-5.819-7.921-1.368-16.111-2.781-23.846-3.819a169.231,169.231,0,0,0-21.972-1.729h-.155a168.928,168.928,0,0,0-22.11,1.726c-7.863,1.052-16.183,2.489-24.23,3.878-16.407,2.833-33.374,5.763-48.122,5.763h-.185c-14.824-.025-32.025-2.963-48.658-5.805-8.052-1.375-16.378-2.8-24.19-3.84A168.684,168.684,0,0,0,2448,2936.5c-13.665,0-30.521,2.866-46.822,5.637-16.571,2.817-33.706,5.73-47.905,5.73h-.077c-14.473-.011-32.424-3.008-49.784-5.906-16.823-2.809-32.713-5.461-45.015-5.461a205.613,205.613,0,0,0-32.812,2.8c-8.461,1.386-13.905,2.792-13.959,2.806l-1.259-4.839c.228-.059,5.671-1.466,14.34-2.889a213.425,213.425,0,0,1,33.69-2.875c12.716,0,28.805,2.686,45.838,5.53,17.16,2.865,34.9,5.827,48.965,5.837h.073c13.778,0,30.7-2.877,47.067-5.659,16.505-2.806,33.573-5.708,47.659-5.708a173.458,173.458,0,0,1,22.61,1.766c7.9,1.054,16.275,2.484,24.371,3.867,16.43,2.807,33.42,5.71,47.825,5.734h.177c14.32,0,31.07-2.893,47.27-5.69,16.164-2.792,32.877-5.677,47.193-5.677h.16a174.014,174.014,0,0,1,22.629,1.773c7.829,1.05,16.066,2.472,24.032,3.848,16.361,2.825,33.28,5.746,48.136,5.746,14.716,0,31.225-2.874,47.191-5.653,16.029-2.79,32.6-5.675,47.6-5.715h.323c14.7,0,29.586,2.667,45.346,5.489,15.967,2.859,32.477,5.815,49.148,5.879h.525a176.427,176.427,0,0,0,23.67-1.739c7.949-1.073,15.911-2.539,23.611-3.958,7.555-1.391,15.366-2.83,23.145-3.893a175.658,175.658,0,0,1,23.84-1.779c16.449,0,32.612,2.926,48.242,5.755,7.641,1.383,15.543,2.813,23.307,3.865a174.056,174.056,0,0,0,23.254,1.748h.082a174.442,174.442,0,0,0,23.349-1.747c7.838-1.058,15.813-2.5,23.526-3.893,15.578-2.815,31.686-5.727,47.843-5.727s32.228,2.906,47.774,5.717c7.708,1.394,15.677,2.834,23.524,3.894a157.7,157.7,0,0,0,46.858.012c7.782-1.053,15.686-2.487,23.33-3.874,15.57-2.825,31.669-5.747,48.116-5.749h.015c16.369,0,32.272,2.9,47.652,5.707,7.649,1.4,15.559,2.839,23.4,3.9a176.564,176.564,0,0,0,23.729,1.76,233.05,233.05,0,0,0,35.871-2.491,89.187,89.187,0,0,0,11.792-2.49l1.532,4.76a90.809,90.809,0,0,1-12.36,2.64,237.5,237.5,0,0,1-36.835,2.582c-16.562,0-32.56-2.919-48.031-5.741-7.614-1.389-15.487-2.825-23.272-3.88a174.609,174.609,0,0,0-23.482-1.746h-.016a176.965,176.965,0,0,0-23.7,1.764c-7.871,1.063-15.831,2.508-23.528,3.9-15.44,2.8-31.406,5.7-47.577,5.7-16.226,0-32.337-2.913-47.917-5.73-7.693-1.391-15.648-2.829-23.471-3.886a157.395,157.395,0,0,0-46.853,0c-7.837,1.059-15.806,2.5-23.513,3.892-15.559,2.812-31.647,5.719-47.764,5.719h-.086c-16.062-.01-32.018-2.9-47.448-5.692-7.726-1.4-15.716-2.845-23.611-3.91a177.434,177.434,0,0,0-23.74-1.766,170.793,170.793,0,0,0-23.163,1.733c-7.664,1.047-15.417,2.475-22.916,3.856C2955.3,2944.928,2939.354,2947.866,2922.546,2947.866Z" transform="translate(2449.34 788.117)"/>
        <path id="路径_418-3" data-name="路径 418" class="cls-5" d="M2922.546,2947.866H2922c-17.106-.065-33.834-3.061-50.011-5.957-15.534-2.781-30.214-5.41-44.466-5.41h-.308c-14.575.039-30.936,2.886-46.759,5.641-16.175,2.815-32.9,5.727-48.049,5.727-15.285,0-32.418-2.958-48.986-5.819-7.921-1.368-16.111-2.781-23.846-3.819a169.231,169.231,0,0,0-21.972-1.729h-.155a168.928,168.928,0,0,0-22.11,1.726c-7.863,1.052-16.183,2.489-24.23,3.878-16.408,2.833-33.374,5.763-48.122,5.763h-.185c-14.825-.025-32.025-2.963-48.659-5.805-8.052-1.375-16.378-2.8-24.189-3.84A168.694,168.694,0,0,0,2448,2936.5c-13.665,0-30.521,2.866-46.822,5.637-16.571,2.817-33.706,5.73-47.905,5.73h-.077c-14.473-.011-32.424-3.008-49.784-5.906-16.823-2.809-32.713-5.461-45.015-5.461a205.613,205.613,0,0,0-32.812,2.8c-8.461,1.386-13.905,2.792-13.959,2.806l-1.259-4.839c.228-.059,5.671-1.466,14.34-2.889a213.425,213.425,0,0,1,33.69-2.875c12.716,0,28.805,2.686,45.838,5.53,17.16,2.865,34.9,5.827,48.965,5.837h.073c13.778,0,30.7-2.877,47.067-5.66,16.505-2.806,33.573-5.708,47.659-5.708a173.458,173.458,0,0,1,22.61,1.766c7.9,1.054,16.275,2.484,24.371,3.867,16.431,2.807,33.42,5.71,47.825,5.734h.177c14.32,0,31.07-2.893,47.27-5.69,16.164-2.792,32.877-5.677,47.193-5.677h.16a174.007,174.007,0,0,1,22.629,1.773c7.829,1.05,16.066,2.472,24.033,3.848,16.361,2.825,33.279,5.746,48.135,5.746,14.716,0,31.225-2.874,47.191-5.653,16.029-2.79,32.6-5.675,47.6-5.715h.323c14.7,0,29.587,2.667,45.346,5.489,15.966,2.859,32.477,5.815,49.148,5.879h.525a176.427,176.427,0,0,0,23.67-1.739c7.949-1.073,15.911-2.539,23.611-3.958,7.554-1.391,15.366-2.83,23.145-3.893a175.658,175.658,0,0,1,23.84-1.779c16.449,0,32.612,2.926,48.242,5.755,7.641,1.383,15.542,2.813,23.307,3.865a174.056,174.056,0,0,0,23.254,1.748h.082a174.448,174.448,0,0,0,23.349-1.747c7.837-1.058,15.813-2.5,23.526-3.893,15.578-2.815,31.686-5.727,47.842-5.727s32.228,2.906,47.774,5.717c7.708,1.394,15.677,2.834,23.524,3.894a157.7,157.7,0,0,0,46.858.012c7.782-1.053,15.686-2.487,23.33-3.874,15.57-2.825,31.67-5.747,48.117-5.749h.015c16.369,0,32.272,2.9,47.652,5.707,7.649,1.4,15.559,2.839,23.4,3.9a176.6,176.6,0,0,0,23.729,1.76,239.563,239.563,0,0,0,37.162-2.711,112.04,112.04,0,0,0,13.047-2.711l1.443,4.787a113.457,113.457,0,0,1-13.564,2.839c-5.088.812-10.528,1.459-16.168,1.923-7.039.579-14.414.872-21.921.872-16.562,0-32.56-2.919-48.031-5.741-7.614-1.389-15.487-2.825-23.273-3.88a174.6,174.6,0,0,0-23.482-1.746h-.016a176.965,176.965,0,0,0-23.7,1.764c-7.871,1.063-15.831,2.508-23.528,3.9-15.44,2.8-31.406,5.7-47.577,5.7-16.226,0-32.337-2.913-47.917-5.73-7.693-1.391-15.648-2.829-23.471-3.886a157.395,157.395,0,0,0-46.853,0c-7.837,1.059-15.806,2.5-23.513,3.892-15.559,2.812-31.647,5.719-47.764,5.719h-.086c-16.062-.01-32.018-2.9-47.448-5.692-7.726-1.4-15.716-2.845-23.611-3.91a177.437,177.437,0,0,0-23.74-1.766,170.793,170.793,0,0,0-23.163,1.733c-7.664,1.047-15.417,2.475-22.916,3.856C2955.3,2944.928,2939.354,2947.866,2922.546,2947.866Z" transform="translate(2449.155 797.878)"/>
        <g id="组_517-2" data-name="组 517" transform="translate(2545.226 32.64)">
          <path id="路径_420-4" data-name="路径 420" class="cls-5" d="M2922.546,2947.866H2922c-17.106-.065-33.834-3.061-50.011-5.957-15.534-2.781-30.214-5.41-44.466-5.41h-.308c-14.575.039-30.937,2.886-46.76,5.641-16.175,2.815-32.9,5.727-48.049,5.727-15.285,0-32.417-2.958-48.986-5.819-7.921-1.368-16.111-2.781-23.846-3.819a169.227,169.227,0,0,0-21.972-1.729h-.155a168.932,168.932,0,0,0-22.11,1.726c-7.863,1.052-16.184,2.489-24.23,3.878-16.408,2.833-33.374,5.763-48.121,5.763h-.185c-14.825-.025-32.025-2.963-48.659-5.805-8.052-1.375-16.378-2.8-24.19-3.84A168.684,168.684,0,0,0,2448,2936.5c-13.665,0-30.521,2.866-46.821,5.637-16.571,2.817-33.706,5.73-47.905,5.73h-.077c-14.473-.011-32.424-3.008-49.784-5.906-16.823-2.809-32.713-5.461-45.015-5.461a235.884,235.884,0,0,0-32.945,2.456c-8.509,1.217-14,2.45-14.052,2.462l-1.1-4.876c.229-.052,5.7-1.281,14.387-2.526a244.1,244.1,0,0,1,33.713-2.515c12.716,0,28.8,2.686,45.838,5.53,17.16,2.865,34.9,5.827,48.965,5.837h.073c13.778,0,30.7-2.877,47.067-5.66,16.505-2.806,33.573-5.708,47.659-5.708a173.458,173.458,0,0,1,22.61,1.766c7.9,1.054,16.275,2.484,24.371,3.867,16.43,2.807,33.42,5.71,47.825,5.734h.177c14.32,0,31.069-2.893,47.27-5.69,16.164-2.792,32.876-5.677,47.193-5.677h.16a174.007,174.007,0,0,1,22.629,1.773c7.829,1.05,16.066,2.472,24.032,3.848,16.361,2.825,33.28,5.746,48.136,5.746,14.716,0,31.225-2.874,47.191-5.653,16.029-2.79,32.6-5.675,47.6-5.715h.323c14.7,0,29.586,2.667,45.346,5.489,15.966,2.859,32.477,5.815,49.148,5.879h.525a176.427,176.427,0,0,0,23.67-1.739c7.949-1.073,15.911-2.539,23.611-3.958,7.554-1.391,15.366-2.83,23.145-3.893a175.661,175.661,0,0,1,23.84-1.779c16.449,0,32.612,2.926,48.242,5.755,7.641,1.383,15.543,2.813,23.307,3.865a174.059,174.059,0,0,0,23.254,1.748h.082a174.448,174.448,0,0,0,23.349-1.747c7.837-1.058,15.813-2.5,23.526-3.893,15.578-2.815,31.686-5.727,47.842-5.727s32.228,2.906,47.774,5.717c7.707,1.394,15.677,2.834,23.524,3.894a157.7,157.7,0,0,0,46.858.012c7.782-1.053,15.686-2.487,23.33-3.874,15.57-2.825,31.67-5.747,48.117-5.749h.016c16.369,0,32.272,2.9,47.652,5.707,7.649,1.4,15.559,2.839,23.4,3.9a176.564,176.564,0,0,0,23.729,1.76,200.256,200.256,0,0,0,35.257-2.76,71.467,71.467,0,0,0,11.251-2.758l1.79,4.669a73.289,73.289,0,0,1-11.918,2.968c-4.588.839-9.633,1.506-14.992,1.985-6.679.6-13.874.9-21.387.9-16.562,0-32.56-2.919-48.031-5.741-7.614-1.389-15.487-2.825-23.272-3.88a174.6,174.6,0,0,0-23.482-1.746h-.016a176.965,176.965,0,0,0-23.7,1.764c-7.871,1.063-15.831,2.508-23.528,3.9-15.44,2.8-31.406,5.7-47.577,5.7-16.226,0-32.337-2.913-47.917-5.73-7.693-1.391-15.649-2.829-23.471-3.886a157.395,157.395,0,0,0-46.853,0c-7.837,1.059-15.806,2.5-23.513,3.892-15.56,2.812-31.648,5.719-47.764,5.719h-.086c-16.062-.01-32.018-2.9-47.448-5.692-7.726-1.4-15.716-2.845-23.612-3.91a177.428,177.428,0,0,0-23.74-1.766,170.79,170.79,0,0,0-23.163,1.733c-7.664,1.047-15.417,2.475-22.916,3.856C2955.3,2944.928,2939.354,2947.866,2922.546,2947.866Z" transform="translate(287.813 745.399)"/>
        </g>
        <path id="路径_419-4" data-name="路径 419" class="cls-5" d="M2922.546,2947.866H2922c-17.106-.065-33.834-3.061-50.011-5.957-15.534-2.781-30.214-5.41-44.466-5.41h-.308c-14.575.039-30.936,2.886-46.759,5.641-16.175,2.815-32.9,5.727-48.049,5.727-15.285,0-32.418-2.958-48.987-5.819-7.92-1.368-16.111-2.781-23.846-3.819a169.231,169.231,0,0,0-21.972-1.729h-.155a168.928,168.928,0,0,0-22.11,1.726c-7.863,1.052-16.183,2.489-24.23,3.878-16.408,2.833-33.374,5.763-48.122,5.763h-.185c-14.825-.025-32.025-2.963-48.659-5.805-8.052-1.375-16.378-2.8-24.189-3.84A168.694,168.694,0,0,0,2448,2936.5c-13.665,0-30.521,2.866-46.822,5.637-16.571,2.817-33.706,5.73-47.905,5.73h-.077c-14.473-.011-32.424-3.008-49.784-5.906-16.823-2.809-32.713-5.461-45.015-5.461a236.453,236.453,0,0,0-32.944,2.45c-8.508,1.213-14,2.443-14.05,2.456l-1.1-4.877c.229-.052,5.694-1.278,14.385-2.52a244.657,244.657,0,0,1,33.711-2.509c12.716,0,28.805,2.686,45.838,5.53,17.16,2.865,34.9,5.827,48.965,5.837h.073c13.778,0,30.7-2.877,47.067-5.66,16.505-2.806,33.573-5.708,47.659-5.708a173.458,173.458,0,0,1,22.61,1.766c7.9,1.054,16.275,2.484,24.371,3.867,16.431,2.807,33.42,5.71,47.825,5.734h.177c14.32,0,31.07-2.893,47.27-5.69,16.164-2.792,32.877-5.677,47.193-5.677h.16a174.007,174.007,0,0,1,22.629,1.773c7.829,1.05,16.066,2.472,24.033,3.848,16.361,2.825,33.279,5.746,48.135,5.746,14.716,0,31.225-2.874,47.191-5.653,16.029-2.79,32.6-5.675,47.6-5.715h.323c14.7,0,29.587,2.667,45.346,5.489,15.966,2.859,32.477,5.815,49.148,5.879h.525a176.427,176.427,0,0,0,23.67-1.739c7.949-1.073,15.911-2.539,23.611-3.958,7.554-1.391,15.366-2.83,23.145-3.893a175.658,175.658,0,0,1,23.84-1.779c16.449,0,32.612,2.926,48.242,5.755,7.641,1.383,15.542,2.813,23.307,3.865a174.056,174.056,0,0,0,23.254,1.748h.082a174.448,174.448,0,0,0,23.349-1.747c7.837-1.058,15.813-2.5,23.526-3.893,15.578-2.815,31.686-5.727,47.842-5.727s32.228,2.906,47.774,5.717c7.708,1.394,15.677,2.834,23.524,3.894a157.7,157.7,0,0,0,46.858.012c7.782-1.053,15.686-2.487,23.33-3.874,15.57-2.825,31.67-5.747,48.117-5.749h.015c16.369,0,32.272,2.9,47.652,5.707,7.649,1.4,15.559,2.839,23.4,3.9a176.564,176.564,0,0,0,23.729,1.76,200.256,200.256,0,0,0,35.257-2.76,71.467,71.467,0,0,0,11.251-2.758l1.79,4.669a73.3,73.3,0,0,1-11.918,2.968c-4.588.839-9.633,1.506-14.993,1.985-6.678.6-13.874.9-21.386.9-16.562,0-32.56-2.919-48.031-5.741-7.614-1.389-15.487-2.825-23.273-3.88a174.6,174.6,0,0,0-23.482-1.746h-.016a176.965,176.965,0,0,0-23.7,1.764c-7.871,1.063-15.831,2.508-23.528,3.9-15.44,2.8-31.406,5.7-47.577,5.7-16.226,0-32.337-2.913-47.917-5.73-7.693-1.391-15.648-2.829-23.471-3.886a157.395,157.395,0,0,0-46.853,0c-7.837,1.059-15.806,2.5-23.513,3.892-15.559,2.812-31.648,5.719-47.764,5.719h-.086c-16.062-.01-32.018-2.9-47.448-5.692-7.726-1.4-15.716-2.845-23.611-3.91a177.437,177.437,0,0,0-23.74-1.766,170.793,170.793,0,0,0-23.163,1.733c-7.664,1.047-15.417,2.475-22.916,3.856C2955.3,2944.928,2939.354,2947.866,2922.546,2947.866Z" transform="translate(2833.039 788.117)"/>
        <path id="路径_418-4" data-name="路径 418" class="cls-5" d="M2922.546,2947.866H2922c-17.106-.065-33.834-3.061-50.011-5.957-15.534-2.781-30.214-5.41-44.466-5.41h-.309c-14.575.039-30.936,2.886-46.759,5.641-16.175,2.815-32.9,5.727-48.049,5.727-15.284,0-32.417-2.958-48.986-5.819-7.92-1.367-16.111-2.781-23.846-3.819a169.227,169.227,0,0,0-21.972-1.729h-.155a168.932,168.932,0,0,0-22.11,1.726c-7.863,1.052-16.184,2.489-24.23,3.878-16.408,2.833-33.374,5.763-48.121,5.763h-.185c-14.825-.025-32.025-2.963-48.659-5.805-8.052-1.375-16.378-2.8-24.19-3.84A168.684,168.684,0,0,0,2448,2936.5c-13.665,0-30.521,2.866-46.821,5.637-16.571,2.817-33.706,5.73-47.905,5.73h-.076c-14.474-.011-32.425-3.008-49.785-5.906-16.823-2.809-32.713-5.461-45.015-5.461a235.8,235.8,0,0,0-32.929,2.454c-8.5,1.216-13.982,2.448-14.037,2.46l-1.1-4.877c.228-.052,5.688-1.281,14.372-2.524a243.958,243.958,0,0,1,33.7-2.513c12.716,0,28.8,2.686,45.838,5.53,17.16,2.865,34.9,5.827,48.965,5.837h.073c13.778,0,30.7-2.877,47.067-5.66,16.505-2.806,33.573-5.708,47.659-5.708a173.458,173.458,0,0,1,22.61,1.766c7.9,1.054,16.275,2.484,24.371,3.867,16.43,2.807,33.42,5.71,47.825,5.734h.177c14.32,0,31.069-2.893,47.27-5.69,16.164-2.792,32.876-5.677,47.193-5.677h.16a174.007,174.007,0,0,1,22.629,1.773c7.829,1.05,16.066,2.472,24.032,3.848,16.361,2.825,33.28,5.746,48.136,5.746,14.716,0,31.225-2.874,47.191-5.653,16.029-2.79,32.6-5.675,47.6-5.715h.323c14.7,0,29.586,2.667,45.346,5.489,15.967,2.859,32.477,5.815,49.149,5.879h.525a176.427,176.427,0,0,0,23.67-1.739c7.949-1.073,15.911-2.539,23.611-3.958,7.555-1.391,15.366-2.83,23.145-3.893a175.658,175.658,0,0,1,23.84-1.779c16.449,0,32.612,2.926,48.242,5.755,7.641,1.383,15.543,2.813,23.307,3.865a174.059,174.059,0,0,0,23.253,1.748h.083a174.442,174.442,0,0,0,23.349-1.747c7.838-1.058,15.813-2.5,23.526-3.893,15.578-2.815,31.686-5.727,47.843-5.727s32.228,2.906,47.774,5.717c7.708,1.394,15.677,2.834,23.524,3.894a157.7,157.7,0,0,0,46.858.012c7.782-1.053,15.686-2.487,23.33-3.874,15.57-2.825,31.67-5.747,48.117-5.749h.016c16.369,0,32.272,2.9,47.652,5.707,7.649,1.4,15.559,2.839,23.4,3.9a176.6,176.6,0,0,0,23.729,1.76,200.256,200.256,0,0,0,35.257-2.76,71.467,71.467,0,0,0,11.251-2.758l1.79,4.669a73.289,73.289,0,0,1-11.918,2.968c-4.589.839-9.633,1.506-14.993,1.985-6.679.6-13.874.9-21.387.9-16.562,0-32.56-2.919-48.031-5.741-7.614-1.389-15.487-2.825-23.272-3.88a174.609,174.609,0,0,0-23.482-1.746h-.016a176.967,176.967,0,0,0-23.7,1.764c-7.871,1.063-15.831,2.508-23.528,3.9-15.44,2.8-31.406,5.7-47.577,5.7-16.226,0-32.337-2.913-47.917-5.73-7.693-1.391-15.648-2.829-23.471-3.886a157.395,157.395,0,0,0-46.853,0c-7.837,1.059-15.806,2.5-23.513,3.892-15.56,2.812-31.648,5.719-47.764,5.719h-.086c-16.062-.01-32.018-2.9-47.448-5.692-7.726-1.4-15.716-2.845-23.611-3.91a177.434,177.434,0,0,0-23.74-1.766,170.79,170.79,0,0,0-23.163,1.733c-7.664,1.047-15.417,2.475-22.916,3.856C2955.3,2944.928,2939.354,2947.866,2922.546,2947.866Z" transform="translate(2832.854 797.878)"/>
      </g>
      <g id="组_548" data-name="组 548" transform="translate(0 45.208)">
        <path id="路径_421-5" data-name="路径 421" class="cls-4" d="M2922.553,2956.866h-.587c-17.889-.068-35.008-3.134-51.563-6.1-15.235-2.728-29.6-5.295-43.164-5.269-13.809.037-29.076,2.694-45.24,5.507-16.552,2.881-33.667,5.86-49.592,5.86-16.056,0-33.575-3.025-50.518-5.95-16.075-2.776-31.259-5.4-44.3-5.417h-.139c-13.117,0-29.227,2.782-44.811,5.473-16.854,2.91-34.281,5.936-49.853,5.894-15.58-.026-33.159-3.029-50.159-5.934-16.354-2.794-31.8-5.433-44.623-5.433-12.905,0-29.38,2.8-45.313,5.51-16.94,2.88-34.456,5.858-49.415,5.858h-.082c-15.216-.011-33.54-3.07-51.26-6.029-16.445-2.745-31.977-5.338-43.533-5.338a199.457,199.457,0,0,0-44.5,5.313l-5.792-22.259a221.244,221.244,0,0,1,50.3-6.054c13.462,0,29.909,2.746,47.32,5.653,16.8,2.8,34.171,5.7,47.49,5.715h.065c13.018,0,29.56-2.812,45.559-5.532,16.874-2.869,34.322-5.835,49.168-5.835,14.771,0,31.916,2.929,48.5,5.762,16.064,2.745,32.675,5.583,46.324,5.605h.161c13.549,0,29.912-2.826,45.74-5.559,16.6-2.867,33.786-5.851,48.9-5.809,15,.023,31.865,2.935,48.179,5.752,15.988,2.761,32.52,5.615,46.6,5.615,13.938,0,30.058-2.806,45.648-5.519,16.4-2.854,33.357-5.806,49.123-5.848,15.6-.052,31.71,2.841,47.279,5.629,15.588,2.791,31.707,5.677,47.6,5.738,15.711.059,30.489-2.663,46.142-5.546,15.537-2.862,31.6-5.821,48.615-5.821,17.258,0,33.824,3,49.845,5.9,15.507,2.807,30.154,5.459,44.963,5.468,14.922,0,29.684-2.665,45.351-5.5,15.968-2.886,32.48-5.87,49.443-5.871s33.439,2.979,49.376,5.86c15.662,2.832,30.456,5.507,45.426,5.507,14.911,0,29.564-2.659,45.078-5.474,15.961-2.9,32.466-5.891,49.722-5.893h.016c17.183,0,33.494,2.976,49.268,5.854,15.543,2.835,30.223,5.514,45.519,5.514,29.471,0,43.229-4.9,43.364-4.952l8.162,21.5c-1.718.66-17.755,6.449-51.526,6.449-17.376,0-33.781-2.993-49.646-5.887-15.446-2.818-30.039-5.48-45.139-5.48h-.014c-15.188,0-29.969,2.684-45.619,5.524-15.832,2.873-32.2,5.844-49.184,5.844-17.033,0-33.548-2.986-49.519-5.874-15.626-2.825-30.385-5.494-45.282-5.493s-29.693,2.674-45.353,5.5c-15.949,2.883-32.441,5.863-49.364,5.863h-.093c-16.867-.011-33.226-2.972-49.046-5.836-15.714-2.844-30.556-5.531-45.748-5.531-14.911,0-29.259,2.643-44.449,5.44C2956.536,2953.853,2940.177,2956.866,2922.553,2956.866Z" transform="translate(2832.039 787.959)"/>
        <path id="路径_421-6" data-name="路径 421" class="cls-4" d="M2922.553,2956.866h-.587c-17.889-.068-35.008-3.134-51.563-6.1-15.235-2.728-29.6-5.295-43.164-5.269-13.809.037-29.076,2.694-45.24,5.507-16.552,2.881-33.667,5.86-49.592,5.86-16.056,0-33.575-3.025-50.518-5.95-16.075-2.776-31.259-5.4-44.3-5.417h-.139c-13.117,0-29.227,2.782-44.811,5.473-16.854,2.91-34.281,5.936-49.853,5.894-15.58-.026-33.159-3.029-50.159-5.934-16.354-2.794-31.8-5.433-44.623-5.433-12.905,0-29.38,2.8-45.313,5.51-16.94,2.88-34.456,5.858-49.415,5.858h-.082c-15.216-.011-33.54-3.07-51.26-6.029-16.445-2.745-31.977-5.338-43.533-5.338a199.457,199.457,0,0,0-44.5,5.313l-5.792-22.259a221.244,221.244,0,0,1,50.3-6.054c13.462,0,29.909,2.746,47.32,5.653,16.8,2.8,34.171,5.7,47.49,5.715h.065c13.018,0,29.56-2.812,45.559-5.532,16.874-2.869,34.322-5.835,49.168-5.835,14.771,0,31.916,2.929,48.5,5.762,16.064,2.745,32.675,5.583,46.324,5.605h.161c13.549,0,29.912-2.826,45.74-5.559,16.6-2.867,33.786-5.851,48.9-5.809,15,.023,31.865,2.935,48.179,5.752,15.988,2.761,32.52,5.615,46.6,5.615,13.938,0,30.058-2.806,45.648-5.519,16.4-2.854,33.357-5.806,49.123-5.848,15.6-.052,31.71,2.841,47.279,5.629,15.588,2.791,31.707,5.677,47.6,5.738,15.711.059,30.489-2.663,46.142-5.546,15.537-2.862,31.6-5.821,48.615-5.821,17.258,0,33.824,3,49.845,5.9,15.507,2.807,30.154,5.459,44.963,5.468,14.922,0,29.684-2.665,45.351-5.5,15.968-2.886,32.48-5.87,49.443-5.871s33.439,2.979,49.376,5.86c15.662,2.832,30.456,5.507,45.426,5.507,14.911,0,29.564-2.659,45.078-5.474,15.961-2.9,32.466-5.891,49.722-5.893h.016c17.183,0,33.494,2.976,49.268,5.854,15.543,2.835,30.223,5.514,45.519,5.514,29.471,0,43.229-4.9,43.364-4.952l8.162,21.5c-1.718.66-17.755,6.449-51.526,6.449-17.376,0-33.781-2.993-49.646-5.887-15.446-2.818-30.039-5.48-45.139-5.48h-.014c-15.188,0-29.969,2.684-45.619,5.524-15.832,2.873-32.2,5.844-49.184,5.844-17.033,0-33.548-2.986-49.519-5.874-15.626-2.825-30.385-5.494-45.282-5.493s-29.693,2.674-45.353,5.5c-15.949,2.883-32.441,5.863-49.364,5.863h-.093c-16.867-.011-33.226-2.972-49.046-5.836-15.714-2.844-30.556-5.531-45.748-5.531-14.911,0-29.259,2.643-44.449,5.44C2956.536,2953.853,2940.177,2956.866,2922.553,2956.866Z" transform="translate(2448.34 787.959)"/>
        <path id="路径_420-5" data-name="路径 420" class="cls-5" d="M2922.546,2947.866H2922c-17.106-.065-33.834-3.061-50.011-5.957-15.534-2.781-30.214-5.41-44.466-5.41h-.308c-14.575.039-30.936,2.886-46.759,5.641-16.175,2.815-32.9,5.727-48.049,5.727-15.285,0-32.417-2.958-48.986-5.819-7.921-1.368-16.111-2.781-23.846-3.819a169.231,169.231,0,0,0-21.972-1.729h-.155a168.928,168.928,0,0,0-22.11,1.726c-7.863,1.052-16.183,2.489-24.23,3.878-16.407,2.833-33.374,5.763-48.122,5.763h-.185c-14.824-.025-32.025-2.963-48.659-5.805-8.052-1.375-16.378-2.8-24.19-3.84A168.684,168.684,0,0,0,2448,2936.5c-13.665,0-30.521,2.866-46.822,5.637-16.571,2.817-33.706,5.73-47.905,5.73h-.077c-14.473-.011-32.424-3.008-49.784-5.906-16.823-2.809-32.713-5.461-45.015-5.461a205.613,205.613,0,0,0-32.812,2.8c-8.461,1.386-13.905,2.792-13.959,2.806l-1.259-4.839c.228-.059,5.671-1.466,14.34-2.889a213.425,213.425,0,0,1,33.69-2.875c12.716,0,28.805,2.686,45.838,5.53,17.16,2.865,34.9,5.827,48.965,5.837h.073c13.778,0,30.7-2.877,47.067-5.66,16.505-2.806,33.573-5.708,47.659-5.708a173.458,173.458,0,0,1,22.61,1.766c7.9,1.054,16.275,2.484,24.371,3.867,16.43,2.807,33.42,5.71,47.825,5.734h.177c14.32,0,31.07-2.893,47.27-5.69,16.164-2.792,32.877-5.677,47.193-5.677h.16a174.007,174.007,0,0,1,22.629,1.773c7.829,1.05,16.066,2.472,24.032,3.848,16.361,2.825,33.28,5.746,48.136,5.746,14.716,0,31.225-2.874,47.191-5.653,16.029-2.79,32.6-5.675,47.6-5.715h.323c14.7,0,29.586,2.667,45.346,5.489,15.967,2.859,32.477,5.815,49.148,5.879h.525a176.427,176.427,0,0,0,23.67-1.739c7.949-1.073,15.911-2.539,23.611-3.958,7.555-1.391,15.366-2.83,23.145-3.893a175.661,175.661,0,0,1,23.84-1.779c16.449,0,32.612,2.926,48.242,5.755,7.641,1.383,15.543,2.813,23.307,3.865a174.056,174.056,0,0,0,23.254,1.748h.082a174.442,174.442,0,0,0,23.349-1.747c7.838-1.058,15.813-2.5,23.526-3.893,15.578-2.815,31.686-5.727,47.843-5.727s32.228,2.906,47.774,5.717c7.708,1.394,15.677,2.834,23.524,3.894a157.7,157.7,0,0,0,46.858.012c7.782-1.053,15.686-2.487,23.33-3.874,15.57-2.825,31.67-5.747,48.116-5.749h.015c16.369,0,32.272,2.9,47.652,5.707,7.649,1.4,15.559,2.839,23.4,3.9a176.564,176.564,0,0,0,23.729,1.76,235.343,235.343,0,0,0,35.9-2.472,90.268,90.268,0,0,0,11.814-2.471l1.517,4.764a91.84,91.84,0,0,1-12.377,2.618,239.823,239.823,0,0,1-36.853,2.561c-16.562,0-32.56-2.919-48.031-5.741-7.614-1.389-15.487-2.825-23.272-3.88a174.607,174.607,0,0,0-23.482-1.746h-.016a176.965,176.965,0,0,0-23.7,1.764c-7.871,1.063-15.831,2.508-23.528,3.9-15.44,2.8-31.406,5.7-47.577,5.7-16.226,0-32.337-2.913-47.917-5.73-7.693-1.391-15.648-2.829-23.471-3.886a157.395,157.395,0,0,0-46.853,0c-7.837,1.059-15.806,2.5-23.513,3.892-15.559,2.812-31.647,5.719-47.764,5.719h-.086c-16.062-.01-32.018-2.9-47.448-5.692-7.726-1.4-15.716-2.845-23.611-3.91a177.434,177.434,0,0,0-23.74-1.766,170.793,170.793,0,0,0-23.163,1.733c-7.664,1.047-15.417,2.475-22.916,3.856C2955.3,2944.928,2939.354,2947.866,2922.546,2947.866Z" transform="translate(2449.34 778.039)"/>
        <path id="路径_419-5" data-name="路径 419" class="cls-5" d="M2922.546,2947.866H2922c-17.106-.065-33.834-3.061-50.011-5.957-15.534-2.781-30.214-5.41-44.466-5.41h-.308c-14.575.039-30.936,2.886-46.759,5.641-16.175,2.815-32.9,5.727-48.049,5.727-15.285,0-32.417-2.958-48.986-5.819-7.921-1.368-16.111-2.781-23.846-3.819a169.231,169.231,0,0,0-21.972-1.729h-.155a168.928,168.928,0,0,0-22.11,1.726c-7.863,1.052-16.183,2.489-24.23,3.878-16.407,2.833-33.374,5.763-48.122,5.763h-.185c-14.824-.025-32.025-2.963-48.658-5.805-8.052-1.375-16.378-2.8-24.19-3.84A168.684,168.684,0,0,0,2448,2936.5c-13.665,0-30.521,2.866-46.822,5.637-16.571,2.817-33.706,5.73-47.905,5.73h-.077c-14.473-.011-32.424-3.008-49.784-5.906-16.823-2.809-32.713-5.461-45.015-5.461a205.613,205.613,0,0,0-32.812,2.8c-8.461,1.386-13.905,2.792-13.959,2.806l-1.259-4.839c.228-.059,5.671-1.466,14.34-2.889a213.425,213.425,0,0,1,33.69-2.875c12.716,0,28.805,2.686,45.838,5.53,17.16,2.865,34.9,5.827,48.965,5.837h.073c13.778,0,30.7-2.877,47.067-5.659,16.505-2.806,33.573-5.708,47.659-5.708a173.458,173.458,0,0,1,22.61,1.766c7.9,1.054,16.275,2.484,24.371,3.867,16.43,2.807,33.42,5.71,47.825,5.734h.177c14.32,0,31.07-2.893,47.27-5.69,16.164-2.792,32.877-5.677,47.193-5.677h.16a174.014,174.014,0,0,1,22.629,1.773c7.829,1.05,16.066,2.472,24.032,3.848,16.361,2.825,33.28,5.746,48.136,5.746,14.716,0,31.225-2.874,47.191-5.653,16.029-2.79,32.6-5.675,47.6-5.715h.323c14.7,0,29.586,2.667,45.346,5.489,15.967,2.859,32.477,5.815,49.148,5.879h.525a176.427,176.427,0,0,0,23.67-1.739c7.949-1.073,15.911-2.539,23.611-3.958,7.555-1.391,15.366-2.83,23.145-3.893a175.658,175.658,0,0,1,23.84-1.779c16.449,0,32.612,2.926,48.242,5.755,7.641,1.383,15.543,2.813,23.307,3.865a174.056,174.056,0,0,0,23.254,1.748h.082a174.442,174.442,0,0,0,23.349-1.747c7.838-1.058,15.813-2.5,23.526-3.893,15.578-2.815,31.686-5.727,47.843-5.727s32.228,2.906,47.774,5.717c7.708,1.394,15.677,2.834,23.524,3.894a157.7,157.7,0,0,0,46.858.012c7.782-1.053,15.686-2.487,23.33-3.874,15.57-2.825,31.669-5.747,48.116-5.749h.015c16.369,0,32.272,2.9,47.652,5.707,7.649,1.4,15.559,2.839,23.4,3.9a176.564,176.564,0,0,0,23.729,1.76,233.05,233.05,0,0,0,35.871-2.491,89.187,89.187,0,0,0,11.792-2.49l1.532,4.76a90.809,90.809,0,0,1-12.36,2.64,237.5,237.5,0,0,1-36.835,2.582c-16.562,0-32.56-2.919-48.031-5.741-7.614-1.389-15.487-2.825-23.272-3.88a174.609,174.609,0,0,0-23.482-1.746h-.016a176.965,176.965,0,0,0-23.7,1.764c-7.871,1.063-15.831,2.508-23.528,3.9-15.44,2.8-31.406,5.7-47.577,5.7-16.226,0-32.337-2.913-47.917-5.73-7.693-1.391-15.648-2.829-23.471-3.886a157.395,157.395,0,0,0-46.853,0c-7.837,1.059-15.806,2.5-23.513,3.892-15.559,2.812-31.647,5.719-47.764,5.719h-.086c-16.062-.01-32.018-2.9-47.448-5.692-7.726-1.4-15.716-2.845-23.611-3.91a177.434,177.434,0,0,0-23.74-1.766,170.793,170.793,0,0,0-23.163,1.733c-7.664,1.047-15.417,2.475-22.916,3.856C2955.3,2944.928,2939.354,2947.866,2922.546,2947.866Z" transform="translate(2449.34 788.117)"/>
        <path id="路径_418-5" data-name="路径 418" class="cls-5" d="M2922.546,2947.866H2922c-17.106-.065-33.834-3.061-50.011-5.957-15.534-2.781-30.214-5.41-44.466-5.41h-.308c-14.575.039-30.936,2.886-46.759,5.641-16.175,2.815-32.9,5.727-48.049,5.727-15.285,0-32.418-2.958-48.986-5.819-7.921-1.368-16.111-2.781-23.846-3.819a169.231,169.231,0,0,0-21.972-1.729h-.155a168.928,168.928,0,0,0-22.11,1.726c-7.863,1.052-16.183,2.489-24.23,3.878-16.408,2.833-33.374,5.763-48.122,5.763h-.185c-14.825-.025-32.025-2.963-48.659-5.805-8.052-1.375-16.378-2.8-24.189-3.84A168.694,168.694,0,0,0,2448,2936.5c-13.665,0-30.521,2.866-46.822,5.637-16.571,2.817-33.706,5.73-47.905,5.73h-.077c-14.473-.011-32.424-3.008-49.784-5.906-16.823-2.809-32.713-5.461-45.015-5.461a205.613,205.613,0,0,0-32.812,2.8c-8.461,1.386-13.905,2.792-13.959,2.806l-1.259-4.839c.228-.059,5.671-1.466,14.34-2.889a213.425,213.425,0,0,1,33.69-2.875c12.716,0,28.805,2.686,45.838,5.53,17.16,2.865,34.9,5.827,48.965,5.837h.073c13.778,0,30.7-2.877,47.067-5.66,16.505-2.806,33.573-5.708,47.659-5.708a173.458,173.458,0,0,1,22.61,1.766c7.9,1.054,16.275,2.484,24.371,3.867,16.431,2.807,33.42,5.71,47.825,5.734h.177c14.32,0,31.07-2.893,47.27-5.69,16.164-2.792,32.877-5.677,47.193-5.677h.16a174.007,174.007,0,0,1,22.629,1.773c7.829,1.05,16.066,2.472,24.033,3.848,16.361,2.825,33.279,5.746,48.135,5.746,14.716,0,31.225-2.874,47.191-5.653,16.029-2.79,32.6-5.675,47.6-5.715h.323c14.7,0,29.587,2.667,45.346,5.489,15.966,2.859,32.477,5.815,49.148,5.879h.525a176.427,176.427,0,0,0,23.67-1.739c7.949-1.073,15.911-2.539,23.611-3.958,7.554-1.391,15.366-2.83,23.145-3.893a175.658,175.658,0,0,1,23.84-1.779c16.449,0,32.612,2.926,48.242,5.755,7.641,1.383,15.542,2.813,23.307,3.865a174.056,174.056,0,0,0,23.254,1.748h.082a174.448,174.448,0,0,0,23.349-1.747c7.837-1.058,15.813-2.5,23.526-3.893,15.578-2.815,31.686-5.727,47.842-5.727s32.228,2.906,47.774,5.717c7.708,1.394,15.677,2.834,23.524,3.894a157.7,157.7,0,0,0,46.858.012c7.782-1.053,15.686-2.487,23.33-3.874,15.57-2.825,31.67-5.747,48.117-5.749h.015c16.369,0,32.272,2.9,47.652,5.707,7.649,1.4,15.559,2.839,23.4,3.9a176.6,176.6,0,0,0,23.729,1.76,239.563,239.563,0,0,0,37.162-2.711,112.04,112.04,0,0,0,13.047-2.711l1.443,4.787a113.457,113.457,0,0,1-13.564,2.839c-5.088.812-10.528,1.459-16.168,1.923-7.039.579-14.414.872-21.921.872-16.562,0-32.56-2.919-48.031-5.741-7.614-1.389-15.487-2.825-23.273-3.88a174.6,174.6,0,0,0-23.482-1.746h-.016a176.965,176.965,0,0,0-23.7,1.764c-7.871,1.063-15.831,2.508-23.528,3.9-15.44,2.8-31.406,5.7-47.577,5.7-16.226,0-32.337-2.913-47.917-5.73-7.693-1.391-15.648-2.829-23.471-3.886a157.395,157.395,0,0,0-46.853,0c-7.837,1.059-15.806,2.5-23.513,3.892-15.559,2.812-31.647,5.719-47.764,5.719h-.086c-16.062-.01-32.018-2.9-47.448-5.692-7.726-1.4-15.716-2.845-23.611-3.91a177.437,177.437,0,0,0-23.74-1.766,170.793,170.793,0,0,0-23.163,1.733c-7.664,1.047-15.417,2.475-22.916,3.856C2955.3,2944.928,2939.354,2947.866,2922.546,2947.866Z" transform="translate(2449.155 797.878)"/>
        <g id="组_517-3" data-name="组 517" transform="translate(2545.226 32.64)">
          <path id="路径_420-6" data-name="路径 420" class="cls-5" d="M2922.546,2947.866H2922c-17.106-.065-33.834-3.061-50.011-5.957-15.534-2.781-30.214-5.41-44.466-5.41h-.308c-14.575.039-30.937,2.886-46.76,5.641-16.175,2.815-32.9,5.727-48.049,5.727-15.285,0-32.417-2.958-48.986-5.819-7.921-1.368-16.111-2.781-23.846-3.819a169.227,169.227,0,0,0-21.972-1.729h-.155a168.932,168.932,0,0,0-22.11,1.726c-7.863,1.052-16.184,2.489-24.23,3.878-16.408,2.833-33.374,5.763-48.121,5.763h-.185c-14.825-.025-32.025-2.963-48.659-5.805-8.052-1.375-16.378-2.8-24.19-3.84A168.684,168.684,0,0,0,2448,2936.5c-13.665,0-30.521,2.866-46.821,5.637-16.571,2.817-33.706,5.73-47.905,5.73h-.077c-14.473-.011-32.424-3.008-49.784-5.906-16.823-2.809-32.713-5.461-45.015-5.461a235.884,235.884,0,0,0-32.945,2.456c-8.509,1.217-14,2.45-14.052,2.462l-1.1-4.876c.229-.052,5.7-1.281,14.387-2.526a244.1,244.1,0,0,1,33.713-2.515c12.716,0,28.8,2.686,45.838,5.53,17.16,2.865,34.9,5.827,48.965,5.837h.073c13.778,0,30.7-2.877,47.067-5.66,16.505-2.806,33.573-5.708,47.659-5.708a173.458,173.458,0,0,1,22.61,1.766c7.9,1.054,16.275,2.484,24.371,3.867,16.43,2.807,33.42,5.71,47.825,5.734h.177c14.32,0,31.069-2.893,47.27-5.69,16.164-2.792,32.876-5.677,47.193-5.677h.16a174.007,174.007,0,0,1,22.629,1.773c7.829,1.05,16.066,2.472,24.032,3.848,16.361,2.825,33.28,5.746,48.136,5.746,14.716,0,31.225-2.874,47.191-5.653,16.029-2.79,32.6-5.675,47.6-5.715h.323c14.7,0,29.586,2.667,45.346,5.489,15.966,2.859,32.477,5.815,49.148,5.879h.525a176.427,176.427,0,0,0,23.67-1.739c7.949-1.073,15.911-2.539,23.611-3.958,7.554-1.391,15.366-2.83,23.145-3.893a175.661,175.661,0,0,1,23.84-1.779c16.449,0,32.612,2.926,48.242,5.755,7.641,1.383,15.543,2.813,23.307,3.865a174.059,174.059,0,0,0,23.254,1.748h.082a174.448,174.448,0,0,0,23.349-1.747c7.837-1.058,15.813-2.5,23.526-3.893,15.578-2.815,31.686-5.727,47.842-5.727s32.228,2.906,47.774,5.717c7.707,1.394,15.677,2.834,23.524,3.894a157.7,157.7,0,0,0,46.858.012c7.782-1.053,15.686-2.487,23.33-3.874,15.57-2.825,31.67-5.747,48.117-5.749h.016c16.369,0,32.272,2.9,47.652,5.707,7.649,1.4,15.559,2.839,23.4,3.9a176.564,176.564,0,0,0,23.729,1.76,200.256,200.256,0,0,0,35.257-2.76,71.467,71.467,0,0,0,11.251-2.758l1.79,4.669a73.289,73.289,0,0,1-11.918,2.968c-4.588.839-9.633,1.506-14.992,1.985-6.679.6-13.874.9-21.387.9-16.562,0-32.56-2.919-48.031-5.741-7.614-1.389-15.487-2.825-23.272-3.88a174.6,174.6,0,0,0-23.482-1.746h-.016a176.965,176.965,0,0,0-23.7,1.764c-7.871,1.063-15.831,2.508-23.528,3.9-15.44,2.8-31.406,5.7-47.577,5.7-16.226,0-32.337-2.913-47.917-5.73-7.693-1.391-15.649-2.829-23.471-3.886a157.395,157.395,0,0,0-46.853,0c-7.837,1.059-15.806,2.5-23.513,3.892-15.56,2.812-31.648,5.719-47.764,5.719h-.086c-16.062-.01-32.018-2.9-47.448-5.692-7.726-1.4-15.716-2.845-23.612-3.91a177.428,177.428,0,0,0-23.74-1.766,170.79,170.79,0,0,0-23.163,1.733c-7.664,1.047-15.417,2.475-22.916,3.856C2955.3,2944.928,2939.354,2947.866,2922.546,2947.866Z" transform="translate(287.813 745.399)"/>
        </g>
        <path id="路径_419-6" data-name="路径 419" class="cls-5" d="M2922.546,2947.866H2922c-17.106-.065-33.834-3.061-50.011-5.957-15.534-2.781-30.214-5.41-44.466-5.41h-.308c-14.575.039-30.936,2.886-46.759,5.641-16.175,2.815-32.9,5.727-48.049,5.727-15.285,0-32.418-2.958-48.987-5.819-7.92-1.368-16.111-2.781-23.846-3.819a169.231,169.231,0,0,0-21.972-1.729h-.155a168.928,168.928,0,0,0-22.11,1.726c-7.863,1.052-16.183,2.489-24.23,3.878-16.408,2.833-33.374,5.763-48.122,5.763h-.185c-14.825-.025-32.025-2.963-48.659-5.805-8.052-1.375-16.378-2.8-24.189-3.84A168.694,168.694,0,0,0,2448,2936.5c-13.665,0-30.521,2.866-46.822,5.637-16.571,2.817-33.706,5.73-47.905,5.73h-.077c-14.473-.011-32.424-3.008-49.784-5.906-16.823-2.809-32.713-5.461-45.015-5.461a236.453,236.453,0,0,0-32.944,2.45c-8.508,1.213-14,2.443-14.05,2.456l-1.1-4.877c.229-.052,5.694-1.278,14.385-2.52a244.657,244.657,0,0,1,33.711-2.509c12.716,0,28.805,2.686,45.838,5.53,17.16,2.865,34.9,5.827,48.965,5.837h.073c13.778,0,30.7-2.877,47.067-5.66,16.505-2.806,33.573-5.708,47.659-5.708a173.458,173.458,0,0,1,22.61,1.766c7.9,1.054,16.275,2.484,24.371,3.867,16.431,2.807,33.42,5.71,47.825,5.734h.177c14.32,0,31.07-2.893,47.27-5.69,16.164-2.792,32.877-5.677,47.193-5.677h.16a174.007,174.007,0,0,1,22.629,1.773c7.829,1.05,16.066,2.472,24.033,3.848,16.361,2.825,33.279,5.746,48.135,5.746,14.716,0,31.225-2.874,47.191-5.653,16.029-2.79,32.6-5.675,47.6-5.715h.323c14.7,0,29.587,2.667,45.346,5.489,15.966,2.859,32.477,5.815,49.148,5.879h.525a176.427,176.427,0,0,0,23.67-1.739c7.949-1.073,15.911-2.539,23.611-3.958,7.554-1.391,15.366-2.83,23.145-3.893a175.658,175.658,0,0,1,23.84-1.779c16.449,0,32.612,2.926,48.242,5.755,7.641,1.383,15.542,2.813,23.307,3.865a174.056,174.056,0,0,0,23.254,1.748h.082a174.448,174.448,0,0,0,23.349-1.747c7.837-1.058,15.813-2.5,23.526-3.893,15.578-2.815,31.686-5.727,47.842-5.727s32.228,2.906,47.774,5.717c7.708,1.394,15.677,2.834,23.524,3.894a157.7,157.7,0,0,0,46.858.012c7.782-1.053,15.686-2.487,23.33-3.874,15.57-2.825,31.67-5.747,48.117-5.749h.015c16.369,0,32.272,2.9,47.652,5.707,7.649,1.4,15.559,2.839,23.4,3.9a176.564,176.564,0,0,0,23.729,1.76,200.256,200.256,0,0,0,35.257-2.76,71.467,71.467,0,0,0,11.251-2.758l1.79,4.669a73.3,73.3,0,0,1-11.918,2.968c-4.588.839-9.633,1.506-14.993,1.985-6.678.6-13.874.9-21.386.9-16.562,0-32.56-2.919-48.031-5.741-7.614-1.389-15.487-2.825-23.273-3.88a174.6,174.6,0,0,0-23.482-1.746h-.016a176.965,176.965,0,0,0-23.7,1.764c-7.871,1.063-15.831,2.508-23.528,3.9-15.44,2.8-31.406,5.7-47.577,5.7-16.226,0-32.337-2.913-47.917-5.73-7.693-1.391-15.648-2.829-23.471-3.886a157.395,157.395,0,0,0-46.853,0c-7.837,1.059-15.806,2.5-23.513,3.892-15.559,2.812-31.648,5.719-47.764,5.719h-.086c-16.062-.01-32.018-2.9-47.448-5.692-7.726-1.4-15.716-2.845-23.611-3.91a177.437,177.437,0,0,0-23.74-1.766,170.793,170.793,0,0,0-23.163,1.733c-7.664,1.047-15.417,2.475-22.916,3.856C2955.3,2944.928,2939.354,2947.866,2922.546,2947.866Z" transform="translate(2833.039 788.117)"/>
        <path id="路径_418-6" data-name="路径 418" class="cls-5" d="M2922.546,2947.866H2922c-17.106-.065-33.834-3.061-50.011-5.957-15.534-2.781-30.214-5.41-44.466-5.41h-.309c-14.575.039-30.936,2.886-46.759,5.641-16.175,2.815-32.9,5.727-48.049,5.727-15.284,0-32.417-2.958-48.986-5.819-7.92-1.367-16.111-2.781-23.846-3.819a169.227,169.227,0,0,0-21.972-1.729h-.155a168.932,168.932,0,0,0-22.11,1.726c-7.863,1.052-16.184,2.489-24.23,3.878-16.408,2.833-33.374,5.763-48.121,5.763h-.185c-14.825-.025-32.025-2.963-48.659-5.805-8.052-1.375-16.378-2.8-24.19-3.84A168.684,168.684,0,0,0,2448,2936.5c-13.665,0-30.521,2.866-46.821,5.637-16.571,2.817-33.706,5.73-47.905,5.73h-.076c-14.474-.011-32.425-3.008-49.785-5.906-16.823-2.809-32.713-5.461-45.015-5.461a235.8,235.8,0,0,0-32.929,2.454c-8.5,1.216-13.982,2.448-14.037,2.46l-1.1-4.877c.228-.052,5.688-1.281,14.372-2.524a243.958,243.958,0,0,1,33.7-2.513c12.716,0,28.8,2.686,45.838,5.53,17.16,2.865,34.9,5.827,48.965,5.837h.073c13.778,0,30.7-2.877,47.067-5.66,16.505-2.806,33.573-5.708,47.659-5.708a173.458,173.458,0,0,1,22.61,1.766c7.9,1.054,16.275,2.484,24.371,3.867,16.43,2.807,33.42,5.71,47.825,5.734h.177c14.32,0,31.069-2.893,47.27-5.69,16.164-2.792,32.876-5.677,47.193-5.677h.16a174.007,174.007,0,0,1,22.629,1.773c7.829,1.05,16.066,2.472,24.032,3.848,16.361,2.825,33.28,5.746,48.136,5.746,14.716,0,31.225-2.874,47.191-5.653,16.029-2.79,32.6-5.675,47.6-5.715h.323c14.7,0,29.586,2.667,45.346,5.489,15.967,2.859,32.477,5.815,49.149,5.879h.525a176.427,176.427,0,0,0,23.67-1.739c7.949-1.073,15.911-2.539,23.611-3.958,7.555-1.391,15.366-2.83,23.145-3.893a175.658,175.658,0,0,1,23.84-1.779c16.449,0,32.612,2.926,48.242,5.755,7.641,1.383,15.543,2.813,23.307,3.865a174.059,174.059,0,0,0,23.253,1.748h.083a174.442,174.442,0,0,0,23.349-1.747c7.838-1.058,15.813-2.5,23.526-3.893,15.578-2.815,31.686-5.727,47.843-5.727s32.228,2.906,47.774,5.717c7.708,1.394,15.677,2.834,23.524,3.894a157.7,157.7,0,0,0,46.858.012c7.782-1.053,15.686-2.487,23.33-3.874,15.57-2.825,31.67-5.747,48.117-5.749h.016c16.369,0,32.272,2.9,47.652,5.707,7.649,1.4,15.559,2.839,23.4,3.9a176.6,176.6,0,0,0,23.729,1.76,200.256,200.256,0,0,0,35.257-2.76,71.467,71.467,0,0,0,11.251-2.758l1.79,4.669a73.289,73.289,0,0,1-11.918,2.968c-4.589.839-9.633,1.506-14.993,1.985-6.679.6-13.874.9-21.387.9-16.562,0-32.56-2.919-48.031-5.741-7.614-1.389-15.487-2.825-23.272-3.88a174.609,174.609,0,0,0-23.482-1.746h-.016a176.967,176.967,0,0,0-23.7,1.764c-7.871,1.063-15.831,2.508-23.528,3.9-15.44,2.8-31.406,5.7-47.577,5.7-16.226,0-32.337-2.913-47.917-5.73-7.693-1.391-15.648-2.829-23.471-3.886a157.395,157.395,0,0,0-46.853,0c-7.837,1.059-15.806,2.5-23.513,3.892-15.56,2.812-31.648,5.719-47.764,5.719h-.086c-16.062-.01-32.018-2.9-47.448-5.692-7.726-1.4-15.716-2.845-23.611-3.91a177.434,177.434,0,0,0-23.74-1.766,170.79,170.79,0,0,0-23.163,1.733c-7.664,1.047-15.417,2.475-22.916,3.856C2955.3,2944.928,2939.354,2947.866,2922.546,2947.866Z" transform="translate(2832.854 797.878)"/>
      </g>
      <g id="组_549" data-name="组 549" transform="translate(-95 67.208)">
        <path id="路径_421-7" data-name="路径 421" class="cls-4" d="M2922.553,2956.866h-.587c-17.889-.068-35.008-3.134-51.563-6.1-15.235-2.728-29.6-5.295-43.164-5.269-13.809.037-29.076,2.694-45.24,5.507-16.552,2.881-33.667,5.86-49.592,5.86-16.056,0-33.575-3.025-50.518-5.95-16.075-2.776-31.259-5.4-44.3-5.417h-.139c-13.117,0-29.227,2.782-44.811,5.473-16.854,2.91-34.281,5.936-49.853,5.894-15.58-.026-33.159-3.029-50.159-5.934-16.354-2.794-31.8-5.433-44.623-5.433-12.905,0-29.38,2.8-45.313,5.51-16.94,2.88-34.456,5.858-49.415,5.858h-.082c-15.216-.011-33.54-3.07-51.26-6.029-16.445-2.745-31.977-5.338-43.533-5.338a199.457,199.457,0,0,0-44.5,5.313l-5.792-22.259a221.244,221.244,0,0,1,50.3-6.054c13.462,0,29.909,2.746,47.32,5.653,16.8,2.8,34.171,5.7,47.49,5.715h.065c13.018,0,29.56-2.812,45.559-5.532,16.874-2.869,34.322-5.835,49.168-5.835,14.771,0,31.916,2.929,48.5,5.762,16.064,2.745,32.675,5.583,46.324,5.605h.161c13.549,0,29.912-2.826,45.74-5.559,16.6-2.867,33.786-5.851,48.9-5.809,15,.023,31.865,2.935,48.179,5.752,15.988,2.761,32.52,5.615,46.6,5.615,13.938,0,30.058-2.806,45.648-5.519,16.4-2.854,33.357-5.806,49.123-5.848,15.6-.052,31.71,2.841,47.279,5.629,15.588,2.791,31.707,5.677,47.6,5.738,15.711.059,30.489-2.663,46.142-5.546,15.537-2.862,31.6-5.821,48.615-5.821,17.258,0,33.824,3,49.845,5.9,15.507,2.807,30.154,5.459,44.963,5.468,14.922,0,29.684-2.665,45.351-5.5,15.968-2.886,32.48-5.87,49.443-5.871s33.439,2.979,49.376,5.86c15.662,2.832,30.456,5.507,45.426,5.507,14.911,0,29.564-2.659,45.078-5.474,15.961-2.9,32.466-5.891,49.722-5.893h.016c17.183,0,33.494,2.976,49.268,5.854,15.543,2.835,30.223,5.514,45.519,5.514,29.471,0,43.229-4.9,43.364-4.952l8.162,21.5c-1.718.66-17.755,6.449-51.526,6.449-17.376,0-33.781-2.993-49.646-5.887-15.446-2.818-30.039-5.48-45.139-5.48h-.014c-15.188,0-29.969,2.684-45.619,5.524-15.832,2.873-32.2,5.844-49.184,5.844-17.033,0-33.548-2.986-49.519-5.874-15.626-2.825-30.385-5.494-45.282-5.493s-29.693,2.674-45.353,5.5c-15.949,2.883-32.441,5.863-49.364,5.863h-.093c-16.867-.011-33.226-2.972-49.046-5.836-15.714-2.844-30.556-5.531-45.748-5.531-14.911,0-29.259,2.643-44.449,5.44C2956.536,2953.853,2940.177,2956.866,2922.553,2956.866Z" transform="translate(2832.039 787.959)"/>
        <path id="路径_421-8" data-name="路径 421" class="cls-4" d="M2922.553,2956.866h-.587c-17.889-.068-35.008-3.134-51.563-6.1-15.235-2.728-29.6-5.295-43.164-5.269-13.809.037-29.076,2.694-45.24,5.507-16.552,2.881-33.667,5.86-49.592,5.86-16.056,0-33.575-3.025-50.518-5.95-16.075-2.776-31.259-5.4-44.3-5.417h-.139c-13.117,0-29.227,2.782-44.811,5.473-16.854,2.91-34.281,5.936-49.853,5.894-15.58-.026-33.159-3.029-50.159-5.934-16.354-2.794-31.8-5.433-44.623-5.433-12.905,0-29.38,2.8-45.313,5.51-16.94,2.88-34.456,5.858-49.415,5.858h-.082c-15.216-.011-33.54-3.07-51.26-6.029-16.445-2.745-31.977-5.338-43.533-5.338a199.457,199.457,0,0,0-44.5,5.313l-5.792-22.259a221.244,221.244,0,0,1,50.3-6.054c13.462,0,29.909,2.746,47.32,5.653,16.8,2.8,34.171,5.7,47.49,5.715h.065c13.018,0,29.56-2.812,45.559-5.532,16.874-2.869,34.322-5.835,49.168-5.835,14.771,0,31.916,2.929,48.5,5.762,16.064,2.745,32.675,5.583,46.324,5.605h.161c13.549,0,29.912-2.826,45.74-5.559,16.6-2.867,33.786-5.851,48.9-5.809,15,.023,31.865,2.935,48.179,5.752,15.988,2.761,32.52,5.615,46.6,5.615,13.938,0,30.058-2.806,45.648-5.519,16.4-2.854,33.357-5.806,49.123-5.848,15.6-.052,31.71,2.841,47.279,5.629,15.588,2.791,31.707,5.677,47.6,5.738,15.711.059,30.489-2.663,46.142-5.546,15.537-2.862,31.6-5.821,48.615-5.821,17.258,0,33.824,3,49.845,5.9,15.507,2.807,30.154,5.459,44.963,5.468,14.922,0,29.684-2.665,45.351-5.5,15.968-2.886,32.48-5.87,49.443-5.871s33.439,2.979,49.376,5.86c15.662,2.832,30.456,5.507,45.426,5.507,14.911,0,29.564-2.659,45.078-5.474,15.961-2.9,32.466-5.891,49.722-5.893h.016c17.183,0,33.494,2.976,49.268,5.854,15.543,2.835,30.223,5.514,45.519,5.514,29.471,0,43.229-4.9,43.364-4.952l8.162,21.5c-1.718.66-17.755,6.449-51.526,6.449-17.376,0-33.781-2.993-49.646-5.887-15.446-2.818-30.039-5.48-45.139-5.48h-.014c-15.188,0-29.969,2.684-45.619,5.524-15.832,2.873-32.2,5.844-49.184,5.844-17.033,0-33.548-2.986-49.519-5.874-15.626-2.825-30.385-5.494-45.282-5.493s-29.693,2.674-45.353,5.5c-15.949,2.883-32.441,5.863-49.364,5.863h-.093c-16.867-.011-33.226-2.972-49.046-5.836-15.714-2.844-30.556-5.531-45.748-5.531-14.911,0-29.259,2.643-44.449,5.44C2956.536,2953.853,2940.177,2956.866,2922.553,2956.866Z" transform="translate(2448.34 787.959)"/>
        <path id="路径_420-7" data-name="路径 420" class="cls-5" d="M2922.546,2947.866H2922c-17.106-.065-33.834-3.061-50.011-5.957-15.534-2.781-30.214-5.41-44.466-5.41h-.308c-14.575.039-30.936,2.886-46.759,5.641-16.175,2.815-32.9,5.727-48.049,5.727-15.285,0-32.417-2.958-48.986-5.819-7.921-1.368-16.111-2.781-23.846-3.819a169.231,169.231,0,0,0-21.972-1.729h-.155a168.928,168.928,0,0,0-22.11,1.726c-7.863,1.052-16.183,2.489-24.23,3.878-16.407,2.833-33.374,5.763-48.122,5.763h-.185c-14.824-.025-32.025-2.963-48.659-5.805-8.052-1.375-16.378-2.8-24.19-3.84A168.684,168.684,0,0,0,2448,2936.5c-13.665,0-30.521,2.866-46.822,5.637-16.571,2.817-33.706,5.73-47.905,5.73h-.077c-14.473-.011-32.424-3.008-49.784-5.906-16.823-2.809-32.713-5.461-45.015-5.461a205.613,205.613,0,0,0-32.812,2.8c-8.461,1.386-13.905,2.792-13.959,2.806l-1.259-4.839c.228-.059,5.671-1.466,14.34-2.889a213.425,213.425,0,0,1,33.69-2.875c12.716,0,28.805,2.686,45.838,5.53,17.16,2.865,34.9,5.827,48.965,5.837h.073c13.778,0,30.7-2.877,47.067-5.66,16.505-2.806,33.573-5.708,47.659-5.708a173.458,173.458,0,0,1,22.61,1.766c7.9,1.054,16.275,2.484,24.371,3.867,16.43,2.807,33.42,5.71,47.825,5.734h.177c14.32,0,31.07-2.893,47.27-5.69,16.164-2.792,32.877-5.677,47.193-5.677h.16a174.007,174.007,0,0,1,22.629,1.773c7.829,1.05,16.066,2.472,24.032,3.848,16.361,2.825,33.28,5.746,48.136,5.746,14.716,0,31.225-2.874,47.191-5.653,16.029-2.79,32.6-5.675,47.6-5.715h.323c14.7,0,29.586,2.667,45.346,5.489,15.967,2.859,32.477,5.815,49.148,5.879h.525a176.427,176.427,0,0,0,23.67-1.739c7.949-1.073,15.911-2.539,23.611-3.958,7.555-1.391,15.366-2.83,23.145-3.893a175.661,175.661,0,0,1,23.84-1.779c16.449,0,32.612,2.926,48.242,5.755,7.641,1.383,15.543,2.813,23.307,3.865a174.056,174.056,0,0,0,23.254,1.748h.082a174.442,174.442,0,0,0,23.349-1.747c7.838-1.058,15.813-2.5,23.526-3.893,15.578-2.815,31.686-5.727,47.843-5.727s32.228,2.906,47.774,5.717c7.708,1.394,15.677,2.834,23.524,3.894a157.7,157.7,0,0,0,46.858.012c7.782-1.053,15.686-2.487,23.33-3.874,15.57-2.825,31.67-5.747,48.116-5.749h.015c16.369,0,32.272,2.9,47.652,5.707,7.649,1.4,15.559,2.839,23.4,3.9a176.564,176.564,0,0,0,23.729,1.76,235.343,235.343,0,0,0,35.9-2.472,90.268,90.268,0,0,0,11.814-2.471l1.517,4.764a91.84,91.84,0,0,1-12.377,2.618,239.823,239.823,0,0,1-36.853,2.561c-16.562,0-32.56-2.919-48.031-5.741-7.614-1.389-15.487-2.825-23.272-3.88a174.607,174.607,0,0,0-23.482-1.746h-.016a176.965,176.965,0,0,0-23.7,1.764c-7.871,1.063-15.831,2.508-23.528,3.9-15.44,2.8-31.406,5.7-47.577,5.7-16.226,0-32.337-2.913-47.917-5.73-7.693-1.391-15.648-2.829-23.471-3.886a157.395,157.395,0,0,0-46.853,0c-7.837,1.059-15.806,2.5-23.513,3.892-15.559,2.812-31.647,5.719-47.764,5.719h-.086c-16.062-.01-32.018-2.9-47.448-5.692-7.726-1.4-15.716-2.845-23.611-3.91a177.434,177.434,0,0,0-23.74-1.766,170.793,170.793,0,0,0-23.163,1.733c-7.664,1.047-15.417,2.475-22.916,3.856C2955.3,2944.928,2939.354,2947.866,2922.546,2947.866Z" transform="translate(2449.34 778.039)"/>
        <path id="路径_419-7" data-name="路径 419" class="cls-5" d="M2922.546,2947.866H2922c-17.106-.065-33.834-3.061-50.011-5.957-15.534-2.781-30.214-5.41-44.466-5.41h-.308c-14.575.039-30.936,2.886-46.759,5.641-16.175,2.815-32.9,5.727-48.049,5.727-15.285,0-32.417-2.958-48.986-5.819-7.921-1.368-16.111-2.781-23.846-3.819a169.231,169.231,0,0,0-21.972-1.729h-.155a168.928,168.928,0,0,0-22.11,1.726c-7.863,1.052-16.183,2.489-24.23,3.878-16.407,2.833-33.374,5.763-48.122,5.763h-.185c-14.824-.025-32.025-2.963-48.658-5.805-8.052-1.375-16.378-2.8-24.19-3.84A168.684,168.684,0,0,0,2448,2936.5c-13.665,0-30.521,2.866-46.822,5.637-16.571,2.817-33.706,5.73-47.905,5.73h-.077c-14.473-.011-32.424-3.008-49.784-5.906-16.823-2.809-32.713-5.461-45.015-5.461a205.613,205.613,0,0,0-32.812,2.8c-8.461,1.386-13.905,2.792-13.959,2.806l-1.259-4.839c.228-.059,5.671-1.466,14.34-2.889a213.425,213.425,0,0,1,33.69-2.875c12.716,0,28.805,2.686,45.838,5.53,17.16,2.865,34.9,5.827,48.965,5.837h.073c13.778,0,30.7-2.877,47.067-5.659,16.505-2.806,33.573-5.708,47.659-5.708a173.458,173.458,0,0,1,22.61,1.766c7.9,1.054,16.275,2.484,24.371,3.867,16.43,2.807,33.42,5.71,47.825,5.734h.177c14.32,0,31.07-2.893,47.27-5.69,16.164-2.792,32.877-5.677,47.193-5.677h.16a174.014,174.014,0,0,1,22.629,1.773c7.829,1.05,16.066,2.472,24.032,3.848,16.361,2.825,33.28,5.746,48.136,5.746,14.716,0,31.225-2.874,47.191-5.653,16.029-2.79,32.6-5.675,47.6-5.715h.323c14.7,0,29.586,2.667,45.346,5.489,15.967,2.859,32.477,5.815,49.148,5.879h.525a176.427,176.427,0,0,0,23.67-1.739c7.949-1.073,15.911-2.539,23.611-3.958,7.555-1.391,15.366-2.83,23.145-3.893a175.658,175.658,0,0,1,23.84-1.779c16.449,0,32.612,2.926,48.242,5.755,7.641,1.383,15.543,2.813,23.307,3.865a174.056,174.056,0,0,0,23.254,1.748h.082a174.442,174.442,0,0,0,23.349-1.747c7.838-1.058,15.813-2.5,23.526-3.893,15.578-2.815,31.686-5.727,47.843-5.727s32.228,2.906,47.774,5.717c7.708,1.394,15.677,2.834,23.524,3.894a157.7,157.7,0,0,0,46.858.012c7.782-1.053,15.686-2.487,23.33-3.874,15.57-2.825,31.669-5.747,48.116-5.749h.015c16.369,0,32.272,2.9,47.652,5.707,7.649,1.4,15.559,2.839,23.4,3.9a176.564,176.564,0,0,0,23.729,1.76,233.05,233.05,0,0,0,35.871-2.491,89.187,89.187,0,0,0,11.792-2.49l1.532,4.76a90.809,90.809,0,0,1-12.36,2.64,237.5,237.5,0,0,1-36.835,2.582c-16.562,0-32.56-2.919-48.031-5.741-7.614-1.389-15.487-2.825-23.272-3.88a174.609,174.609,0,0,0-23.482-1.746h-.016a176.965,176.965,0,0,0-23.7,1.764c-7.871,1.063-15.831,2.508-23.528,3.9-15.44,2.8-31.406,5.7-47.577,5.7-16.226,0-32.337-2.913-47.917-5.73-7.693-1.391-15.648-2.829-23.471-3.886a157.395,157.395,0,0,0-46.853,0c-7.837,1.059-15.806,2.5-23.513,3.892-15.559,2.812-31.647,5.719-47.764,5.719h-.086c-16.062-.01-32.018-2.9-47.448-5.692-7.726-1.4-15.716-2.845-23.611-3.91a177.434,177.434,0,0,0-23.74-1.766,170.793,170.793,0,0,0-23.163,1.733c-7.664,1.047-15.417,2.475-22.916,3.856C2955.3,2944.928,2939.354,2947.866,2922.546,2947.866Z" transform="translate(2449.34 788.117)"/>
        <path id="路径_418-7" data-name="路径 418" class="cls-5" d="M2922.546,2947.866H2922c-17.106-.065-33.834-3.061-50.011-5.957-15.534-2.781-30.214-5.41-44.466-5.41h-.308c-14.575.039-30.936,2.886-46.759,5.641-16.175,2.815-32.9,5.727-48.049,5.727-15.285,0-32.418-2.958-48.986-5.819-7.921-1.368-16.111-2.781-23.846-3.819a169.231,169.231,0,0,0-21.972-1.729h-.155a168.928,168.928,0,0,0-22.11,1.726c-7.863,1.052-16.183,2.489-24.23,3.878-16.408,2.833-33.374,5.763-48.122,5.763h-.185c-14.825-.025-32.025-2.963-48.659-5.805-8.052-1.375-16.378-2.8-24.189-3.84A168.694,168.694,0,0,0,2448,2936.5c-13.665,0-30.521,2.866-46.822,5.637-16.571,2.817-33.706,5.73-47.905,5.73h-.077c-14.473-.011-32.424-3.008-49.784-5.906-16.823-2.809-32.713-5.461-45.015-5.461a205.613,205.613,0,0,0-32.812,2.8c-8.461,1.386-13.905,2.792-13.959,2.806l-1.259-4.839c.228-.059,5.671-1.466,14.34-2.889a213.425,213.425,0,0,1,33.69-2.875c12.716,0,28.805,2.686,45.838,5.53,17.16,2.865,34.9,5.827,48.965,5.837h.073c13.778,0,30.7-2.877,47.067-5.66,16.505-2.806,33.573-5.708,47.659-5.708a173.458,173.458,0,0,1,22.61,1.766c7.9,1.054,16.275,2.484,24.371,3.867,16.431,2.807,33.42,5.71,47.825,5.734h.177c14.32,0,31.07-2.893,47.27-5.69,16.164-2.792,32.877-5.677,47.193-5.677h.16a174.007,174.007,0,0,1,22.629,1.773c7.829,1.05,16.066,2.472,24.033,3.848,16.361,2.825,33.279,5.746,48.135,5.746,14.716,0,31.225-2.874,47.191-5.653,16.029-2.79,32.6-5.675,47.6-5.715h.323c14.7,0,29.587,2.667,45.346,5.489,15.966,2.859,32.477,5.815,49.148,5.879h.525a176.427,176.427,0,0,0,23.67-1.739c7.949-1.073,15.911-2.539,23.611-3.958,7.554-1.391,15.366-2.83,23.145-3.893a175.658,175.658,0,0,1,23.84-1.779c16.449,0,32.612,2.926,48.242,5.755,7.641,1.383,15.542,2.813,23.307,3.865a174.056,174.056,0,0,0,23.254,1.748h.082a174.448,174.448,0,0,0,23.349-1.747c7.837-1.058,15.813-2.5,23.526-3.893,15.578-2.815,31.686-5.727,47.842-5.727s32.228,2.906,47.774,5.717c7.708,1.394,15.677,2.834,23.524,3.894a157.7,157.7,0,0,0,46.858.012c7.782-1.053,15.686-2.487,23.33-3.874,15.57-2.825,31.67-5.747,48.117-5.749h.015c16.369,0,32.272,2.9,47.652,5.707,7.649,1.4,15.559,2.839,23.4,3.9a176.6,176.6,0,0,0,23.729,1.76,239.563,239.563,0,0,0,37.162-2.711,112.04,112.04,0,0,0,13.047-2.711l1.443,4.787a113.457,113.457,0,0,1-13.564,2.839c-5.088.812-10.528,1.459-16.168,1.923-7.039.579-14.414.872-21.921.872-16.562,0-32.56-2.919-48.031-5.741-7.614-1.389-15.487-2.825-23.273-3.88a174.6,174.6,0,0,0-23.482-1.746h-.016a176.965,176.965,0,0,0-23.7,1.764c-7.871,1.063-15.831,2.508-23.528,3.9-15.44,2.8-31.406,5.7-47.577,5.7-16.226,0-32.337-2.913-47.917-5.73-7.693-1.391-15.648-2.829-23.471-3.886a157.395,157.395,0,0,0-46.853,0c-7.837,1.059-15.806,2.5-23.513,3.892-15.559,2.812-31.647,5.719-47.764,5.719h-.086c-16.062-.01-32.018-2.9-47.448-5.692-7.726-1.4-15.716-2.845-23.611-3.91a177.437,177.437,0,0,0-23.74-1.766,170.793,170.793,0,0,0-23.163,1.733c-7.664,1.047-15.417,2.475-22.916,3.856C2955.3,2944.928,2939.354,2947.866,2922.546,2947.866Z" transform="translate(2449.155 797.878)"/>
        <g id="组_517-4" data-name="组 517" transform="translate(2545.226 32.64)">
          <path id="路径_420-8" data-name="路径 420" class="cls-5" d="M2922.546,2947.866H2922c-17.106-.065-33.834-3.061-50.011-5.957-15.534-2.781-30.214-5.41-44.466-5.41h-.308c-14.575.039-30.937,2.886-46.76,5.641-16.175,2.815-32.9,5.727-48.049,5.727-15.285,0-32.417-2.958-48.986-5.819-7.921-1.368-16.111-2.781-23.846-3.819a169.227,169.227,0,0,0-21.972-1.729h-.155a168.932,168.932,0,0,0-22.11,1.726c-7.863,1.052-16.184,2.489-24.23,3.878-16.408,2.833-33.374,5.763-48.121,5.763h-.185c-14.825-.025-32.025-2.963-48.659-5.805-8.052-1.375-16.378-2.8-24.19-3.84A168.684,168.684,0,0,0,2448,2936.5c-13.665,0-30.521,2.866-46.821,5.637-16.571,2.817-33.706,5.73-47.905,5.73h-.077c-14.473-.011-32.424-3.008-49.784-5.906-16.823-2.809-32.713-5.461-45.015-5.461a235.884,235.884,0,0,0-32.945,2.456c-8.509,1.217-14,2.45-14.052,2.462l-1.1-4.876c.229-.052,5.7-1.281,14.387-2.526a244.1,244.1,0,0,1,33.713-2.515c12.716,0,28.8,2.686,45.838,5.53,17.16,2.865,34.9,5.827,48.965,5.837h.073c13.778,0,30.7-2.877,47.067-5.66,16.505-2.806,33.573-5.708,47.659-5.708a173.458,173.458,0,0,1,22.61,1.766c7.9,1.054,16.275,2.484,24.371,3.867,16.43,2.807,33.42,5.71,47.825,5.734h.177c14.32,0,31.069-2.893,47.27-5.69,16.164-2.792,32.876-5.677,47.193-5.677h.16a174.007,174.007,0,0,1,22.629,1.773c7.829,1.05,16.066,2.472,24.032,3.848,16.361,2.825,33.28,5.746,48.136,5.746,14.716,0,31.225-2.874,47.191-5.653,16.029-2.79,32.6-5.675,47.6-5.715h.323c14.7,0,29.586,2.667,45.346,5.489,15.966,2.859,32.477,5.815,49.148,5.879h.525a176.427,176.427,0,0,0,23.67-1.739c7.949-1.073,15.911-2.539,23.611-3.958,7.554-1.391,15.366-2.83,23.145-3.893a175.661,175.661,0,0,1,23.84-1.779c16.449,0,32.612,2.926,48.242,5.755,7.641,1.383,15.543,2.813,23.307,3.865a174.059,174.059,0,0,0,23.254,1.748h.082a174.448,174.448,0,0,0,23.349-1.747c7.837-1.058,15.813-2.5,23.526-3.893,15.578-2.815,31.686-5.727,47.842-5.727s32.228,2.906,47.774,5.717c7.707,1.394,15.677,2.834,23.524,3.894a157.7,157.7,0,0,0,46.858.012c7.782-1.053,15.686-2.487,23.33-3.874,15.57-2.825,31.67-5.747,48.117-5.749h.016c16.369,0,32.272,2.9,47.652,5.707,7.649,1.4,15.559,2.839,23.4,3.9a176.564,176.564,0,0,0,23.729,1.76,200.256,200.256,0,0,0,35.257-2.76,71.467,71.467,0,0,0,11.251-2.758l1.79,4.669a73.289,73.289,0,0,1-11.918,2.968c-4.588.839-9.633,1.506-14.992,1.985-6.679.6-13.874.9-21.387.9-16.562,0-32.56-2.919-48.031-5.741-7.614-1.389-15.487-2.825-23.272-3.88a174.6,174.6,0,0,0-23.482-1.746h-.016a176.965,176.965,0,0,0-23.7,1.764c-7.871,1.063-15.831,2.508-23.528,3.9-15.44,2.8-31.406,5.7-47.577,5.7-16.226,0-32.337-2.913-47.917-5.73-7.693-1.391-15.649-2.829-23.471-3.886a157.395,157.395,0,0,0-46.853,0c-7.837,1.059-15.806,2.5-23.513,3.892-15.56,2.812-31.648,5.719-47.764,5.719h-.086c-16.062-.01-32.018-2.9-47.448-5.692-7.726-1.4-15.716-2.845-23.612-3.91a177.428,177.428,0,0,0-23.74-1.766,170.79,170.79,0,0,0-23.163,1.733c-7.664,1.047-15.417,2.475-22.916,3.856C2955.3,2944.928,2939.354,2947.866,2922.546,2947.866Z" transform="translate(287.813 745.399)"/>
        </g>
        <path id="路径_419-8" data-name="路径 419" class="cls-5" d="M2922.546,2947.866H2922c-17.106-.065-33.834-3.061-50.011-5.957-15.534-2.781-30.214-5.41-44.466-5.41h-.308c-14.575.039-30.936,2.886-46.759,5.641-16.175,2.815-32.9,5.727-48.049,5.727-15.285,0-32.418-2.958-48.987-5.819-7.92-1.368-16.111-2.781-23.846-3.819a169.231,169.231,0,0,0-21.972-1.729h-.155a168.928,168.928,0,0,0-22.11,1.726c-7.863,1.052-16.183,2.489-24.23,3.878-16.408,2.833-33.374,5.763-48.122,5.763h-.185c-14.825-.025-32.025-2.963-48.659-5.805-8.052-1.375-16.378-2.8-24.189-3.84A168.694,168.694,0,0,0,2448,2936.5c-13.665,0-30.521,2.866-46.822,5.637-16.571,2.817-33.706,5.73-47.905,5.73h-.077c-14.473-.011-32.424-3.008-49.784-5.906-16.823-2.809-32.713-5.461-45.015-5.461a236.453,236.453,0,0,0-32.944,2.45c-8.508,1.213-14,2.443-14.05,2.456l-1.1-4.877c.229-.052,5.694-1.278,14.385-2.52a244.657,244.657,0,0,1,33.711-2.509c12.716,0,28.805,2.686,45.838,5.53,17.16,2.865,34.9,5.827,48.965,5.837h.073c13.778,0,30.7-2.877,47.067-5.66,16.505-2.806,33.573-5.708,47.659-5.708a173.458,173.458,0,0,1,22.61,1.766c7.9,1.054,16.275,2.484,24.371,3.867,16.431,2.807,33.42,5.71,47.825,5.734h.177c14.32,0,31.07-2.893,47.27-5.69,16.164-2.792,32.877-5.677,47.193-5.677h.16a174.007,174.007,0,0,1,22.629,1.773c7.829,1.05,16.066,2.472,24.033,3.848,16.361,2.825,33.279,5.746,48.135,5.746,14.716,0,31.225-2.874,47.191-5.653,16.029-2.79,32.6-5.675,47.6-5.715h.323c14.7,0,29.587,2.667,45.346,5.489,15.966,2.859,32.477,5.815,49.148,5.879h.525a176.427,176.427,0,0,0,23.67-1.739c7.949-1.073,15.911-2.539,23.611-3.958,7.554-1.391,15.366-2.83,23.145-3.893a175.658,175.658,0,0,1,23.84-1.779c16.449,0,32.612,2.926,48.242,5.755,7.641,1.383,15.542,2.813,23.307,3.865a174.056,174.056,0,0,0,23.254,1.748h.082a174.448,174.448,0,0,0,23.349-1.747c7.837-1.058,15.813-2.5,23.526-3.893,15.578-2.815,31.686-5.727,47.842-5.727s32.228,2.906,47.774,5.717c7.708,1.394,15.677,2.834,23.524,3.894a157.7,157.7,0,0,0,46.858.012c7.782-1.053,15.686-2.487,23.33-3.874,15.57-2.825,31.67-5.747,48.117-5.749h.015c16.369,0,32.272,2.9,47.652,5.707,7.649,1.4,15.559,2.839,23.4,3.9a176.564,176.564,0,0,0,23.729,1.76,200.256,200.256,0,0,0,35.257-2.76,71.467,71.467,0,0,0,11.251-2.758l1.79,4.669a73.3,73.3,0,0,1-11.918,2.968c-4.588.839-9.633,1.506-14.993,1.985-6.678.6-13.874.9-21.386.9-16.562,0-32.56-2.919-48.031-5.741-7.614-1.389-15.487-2.825-23.273-3.88a174.6,174.6,0,0,0-23.482-1.746h-.016a176.965,176.965,0,0,0-23.7,1.764c-7.871,1.063-15.831,2.508-23.528,3.9-15.44,2.8-31.406,5.7-47.577,5.7-16.226,0-32.337-2.913-47.917-5.73-7.693-1.391-15.648-2.829-23.471-3.886a157.395,157.395,0,0,0-46.853,0c-7.837,1.059-15.806,2.5-23.513,3.892-15.559,2.812-31.648,5.719-47.764,5.719h-.086c-16.062-.01-32.018-2.9-47.448-5.692-7.726-1.4-15.716-2.845-23.611-3.91a177.437,177.437,0,0,0-23.74-1.766,170.793,170.793,0,0,0-23.163,1.733c-7.664,1.047-15.417,2.475-22.916,3.856C2955.3,2944.928,2939.354,2947.866,2922.546,2947.866Z" transform="translate(2833.039 788.117)"/>
        <path id="路径_418-8" data-name="路径 418" class="cls-5" d="M2922.546,2947.866H2922c-17.106-.065-33.834-3.061-50.011-5.957-15.534-2.781-30.214-5.41-44.466-5.41h-.309c-14.575.039-30.936,2.886-46.759,5.641-16.175,2.815-32.9,5.727-48.049,5.727-15.284,0-32.417-2.958-48.986-5.819-7.92-1.367-16.111-2.781-23.846-3.819a169.227,169.227,0,0,0-21.972-1.729h-.155a168.932,168.932,0,0,0-22.11,1.726c-7.863,1.052-16.184,2.489-24.23,3.878-16.408,2.833-33.374,5.763-48.121,5.763h-.185c-14.825-.025-32.025-2.963-48.659-5.805-8.052-1.375-16.378-2.8-24.19-3.84A168.684,168.684,0,0,0,2448,2936.5c-13.665,0-30.521,2.866-46.821,5.637-16.571,2.817-33.706,5.73-47.905,5.73h-.076c-14.474-.011-32.425-3.008-49.785-5.906-16.823-2.809-32.713-5.461-45.015-5.461a235.8,235.8,0,0,0-32.929,2.454c-8.5,1.216-13.982,2.448-14.037,2.46l-1.1-4.877c.228-.052,5.688-1.281,14.372-2.524a243.958,243.958,0,0,1,33.7-2.513c12.716,0,28.8,2.686,45.838,5.53,17.16,2.865,34.9,5.827,48.965,5.837h.073c13.778,0,30.7-2.877,47.067-5.66,16.505-2.806,33.573-5.708,47.659-5.708a173.458,173.458,0,0,1,22.61,1.766c7.9,1.054,16.275,2.484,24.371,3.867,16.43,2.807,33.42,5.71,47.825,5.734h.177c14.32,0,31.069-2.893,47.27-5.69,16.164-2.792,32.876-5.677,47.193-5.677h.16a174.007,174.007,0,0,1,22.629,1.773c7.829,1.05,16.066,2.472,24.032,3.848,16.361,2.825,33.28,5.746,48.136,5.746,14.716,0,31.225-2.874,47.191-5.653,16.029-2.79,32.6-5.675,47.6-5.715h.323c14.7,0,29.586,2.667,45.346,5.489,15.967,2.859,32.477,5.815,49.149,5.879h.525a176.427,176.427,0,0,0,23.67-1.739c7.949-1.073,15.911-2.539,23.611-3.958,7.555-1.391,15.366-2.83,23.145-3.893a175.658,175.658,0,0,1,23.84-1.779c16.449,0,32.612,2.926,48.242,5.755,7.641,1.383,15.543,2.813,23.307,3.865a174.059,174.059,0,0,0,23.253,1.748h.083a174.442,174.442,0,0,0,23.349-1.747c7.838-1.058,15.813-2.5,23.526-3.893,15.578-2.815,31.686-5.727,47.843-5.727s32.228,2.906,47.774,5.717c7.708,1.394,15.677,2.834,23.524,3.894a157.7,157.7,0,0,0,46.858.012c7.782-1.053,15.686-2.487,23.33-3.874,15.57-2.825,31.67-5.747,48.117-5.749h.016c16.369,0,32.272,2.9,47.652,5.707,7.649,1.4,15.559,2.839,23.4,3.9a176.6,176.6,0,0,0,23.729,1.76,200.256,200.256,0,0,0,35.257-2.76,71.467,71.467,0,0,0,11.251-2.758l1.79,4.669a73.289,73.289,0,0,1-11.918,2.968c-4.589.839-9.633,1.506-14.993,1.985-6.679.6-13.874.9-21.387.9-16.562,0-32.56-2.919-48.031-5.741-7.614-1.389-15.487-2.825-23.272-3.88a174.609,174.609,0,0,0-23.482-1.746h-.016a176.967,176.967,0,0,0-23.7,1.764c-7.871,1.063-15.831,2.508-23.528,3.9-15.44,2.8-31.406,5.7-47.577,5.7-16.226,0-32.337-2.913-47.917-5.73-7.693-1.391-15.648-2.829-23.471-3.886a157.395,157.395,0,0,0-46.853,0c-7.837,1.059-15.806,2.5-23.513,3.892-15.56,2.812-31.648,5.719-47.764,5.719h-.086c-16.062-.01-32.018-2.9-47.448-5.692-7.726-1.4-15.716-2.845-23.611-3.91a177.434,177.434,0,0,0-23.74-1.766,170.79,170.79,0,0,0-23.163,1.733c-7.664,1.047-15.417,2.475-22.916,3.856C2955.3,2944.928,2939.354,2947.866,2922.546,2947.866Z" transform="translate(2832.854 797.878)"/>
      </g>
      <rect id="矩形_1610" data-name="矩形 1610" class="cls-6" width="324" height="270" transform="translate(4527.58 3657.704)"/>
      <rect id="矩形_1611" data-name="矩形 1611" class="cls-6" width="305.185" height="270" transform="translate(6178.815 3675.452)"/>
    </g>
    <circle id="椭圆_364" data-name="椭圆 364" class="cls-7" cx="63.864" cy="63.864" r="63.864" transform="translate(943.578 776.34)"/>
    <text id="_17" data-name="17" class="cls-8" transform="translate(1007.442 859.812)"><tspan x="-21.144" y="0">17</tspan></text>
    <g id="组_536" data-name="组 536" transform="translate(-95.901 -146.241)">
      <ellipse id="椭圆_369" data-name="椭圆 369" class="cls-7" cx="33.037" cy="33.037" rx="33.037" ry="33.037" transform="translate(287.58 974.937)"/>
      <text id="_2" data-name="2" class="cls-9" transform="translate(320.617 1018.473)"><tspan x="-8.432" y="0">2</tspan></text>
      <text id="Süd-_amerika" data-name="Süd-
amerika" class="cls-10" transform="translate(320.617 1066.176)"><tspan x="-16.784" y="0">Süd-</tspan><tspan x="-30.808" y="17">amerika</tspan></text>
    </g>
    <g id="组_538" data-name="组 538" transform="translate(-33.401 368.632)">
      <circle id="椭圆_360" data-name="椭圆 360" class="cls-7" cx="37.5" cy="37.5" r="37.5" transform="translate(282.038 385.584)"/>
      <text id="_5" data-name="5" class="cls-11" transform="translate(319.538 435.584)"><tspan x="-10.3" y="0">5</tspan></text>
      <text id="Alaska" class="cls-10" transform="translate(320.038 486.521)"><tspan x="-24.002" y="0">Alaska</tspan></text>
    </g>
    <g id="组_539" data-name="组 539" transform="translate(-73.212 -62.018)">
      <circle id="椭圆_370" data-name="椭圆 370" class="cls-7" cx="37.5" cy="37.5" r="37.5" transform="translate(388.193 869.202)"/>
      <text id="_5-2" data-name="5" class="cls-11" transform="translate(425.693 919.202)"><tspan x="-10.3" y="0">5</tspan></text>
      <text id="Asien_ohne_China" data-name="Asien
ohne China" class="cls-10" transform="translate(425.693 966.465)"><tspan x="-19.818" y="0">Asien</tspan><tspan x="-44.961" y="17">ohne China</tspan></text>
    </g>
    <g id="组_540" data-name="组 540" transform="translate(-72.901 -97.241)">
      <circle id="椭圆_371" data-name="椭圆 371" class="cls-7" cx="37.5" cy="37.5" r="37.5" transform="translate(452.239 853.454)"/>
      <text id="_5-3" data-name="5" class="cls-11" transform="translate(489.739 903.454)"><tspan x="-10.3" y="0">5</tspan></text>
      <text id="China" class="cls-10" transform="translate(493.382 952.954)"><tspan x="-22.773" y="0">China</tspan></text>
    </g>
    <g id="组_542" data-name="组 542" transform="translate(-894.674 444.371)">
      <circle id="椭圆_358" data-name="椭圆 358" class="cls-7" cx="37.5" cy="37.5" r="37.5" transform="translate(1346.869 362.813)"/>
      <text id="_5-4" data-name="5" class="cls-11" transform="translate(1384.369 412.813)"><tspan x="-10.3" y="0">5</tspan></text>
      <text id="Australien_Neuseeland_Pazifik" data-name="Australien/
Neuseeland/
Pazifik" class="cls-10" transform="translate(1388.012 457.852)"><tspan x="-38.262" y="0">Australien/</tspan><tspan x="-48.526" y="17">Neuseeland/</tspan><tspan x="-21.624" y="34">Pazifik</tspan></text>
    </g>
    <ellipse id="椭圆_372" data-name="椭圆 372" class="cls-7" cx="43.983" cy="43.983" rx="43.983" ry="43.983" transform="translate(539.355 750.201)"/>
    <text id="_11" data-name="11" class="cls-12" transform="translate(583.338 807.684)"><tspan x="-16.942" y="0">11</tspan></text>
    <text id="Europa_ohne_Mittelmeer" data-name="Europa ohne 
Mittelmeer" class="cls-10" transform="translate(583.338 854.153)"><tspan x="-51.581" y="0">Europa ohne </tspan><tspan x="-40.234" y="22">Mittelmeer</tspan></text>
    <g id="组_543" data-name="组 543" transform="translate(-60.037 -107.041)">
      <circle id="椭圆_373" data-name="椭圆 373" class="cls-7" cx="63.864" cy="63.864" r="63.864" transform="translate(764.149 882.96)"/>
      <text id="_17-2" data-name="17" class="cls-8" transform="translate(828.014 966.432)"><tspan x="-21.144" y="0">17</tspan></text>
      <text id="Mittelmeer" class="cls-3" transform="translate(828.014 1041.528)"><tspan x="-56.801" y="0">Mittelmeer</tspan></text>
    </g>
    <g id="组_544" data-name="组 544" transform="translate(-62.044 -116.537)">
      <circle id="椭圆_374" data-name="椭圆 374" class="cls-7" cx="80.547" cy="80.547" r="80.547" transform="translate(1318.745 881.475)"/>
      <text id="_32" data-name="32" class="cls-13" transform="translate(1399.292 985.521)"><tspan x="-38.152" y="0">32</tspan></text>
      <text id="Karibik" class="cls-14" transform="translate(1404.292 1073)"><tspan x="-43.208" y="0">Karibik</tspan></text>
    </g>
  </g>
</svg>
