<svg xmlns="http://www.w3.org/2000/svg" width="375.832" height="90.731" viewBox="0 0 375.832 90.731">
  <defs>
    <style>
      .cls-1 {
        fill: #444c76;
      }
    </style>
  </defs>
  <g id="组_545" data-name="组 545" transform="translate(-381.015 -368.168)">
    <g id="组_512" data-name="组 512" transform="translate(381.015 368.168)">
      <path id="路径_422" data-name="路径 422" class="cls-1" d="M316.752,524.328h91.323l-52.089,36.924H49.385a53.52,53.52,0,0,1-17.142-30.33H301.919Z" transform="translate(-32.243 -470.522)"/>
      <path id="路径_423" data-name="路径 423" class="cls-1" d="M219.648,502.221q1.76-2.56,3.52-5.118h31.487q2.318,2.56,4.639,5.118Z" transform="translate(-130.594 -479.198)"/>
      <path id="路径_424" data-name="路径 424" class="cls-1" d="M225.929,503.01q.024-8.442.047-16.885h16.535l4.237,16.885Z" transform="translate(-126.332 -482.697)"/>
      <g id="组_511" data-name="组 511" transform="translate(11.218 11.508)">
        <path id="路径_425" data-name="路径 425" class="cls-1" d="M92.707,497.92l7.039-5.668h62.972q4.639,2.834,9.278,5.668Z" transform="translate(112.882 -492.252)"/>
        <path id="路径_426" data-name="路径 426" class="cls-1" d="M80.635,505.016l3.4-4.514h267.7l7.389,4.514Z" transform="translate(-58.332 -489.623)"/>
        <g id="组_510" data-name="组 510" transform="translate(0 20.605)">
          <path id="路径_427" data-name="路径 427" class="cls-1" d="M68.493,512.446l3.443-4.569H362.892l7.48,4.569Z" transform="translate(-53.561 -507.877)"/>
          <path id="路径_428" data-name="路径 428" class="cls-1" d="M377.429,515.294l13.1,8H323.508q-7.416,3.3-14.833,6.593H52.086q5.5-7.3,11-14.6Z" transform="translate(-52.086 -505.513)"/>
        </g>
      </g>
      <path id="路径_429" data-name="路径 429" class="cls-1" d="M282.553,9.828,270.519-3.428H262.9l7.619,13.256Z" transform="translate(0.001 3.428)"/>
    </g>
  </g>
</svg>
