<svg xmlns="http://www.w3.org/2000/svg" width="128.298" height="73.872" viewBox="0 0 128.298 73.872">
  <path id="路径_512" data-name="路径 512" d="M9001.247,608.245s5.367,8.026,13.774,11.411,20.818,2.684,20.818,2.684a8.024,8.024,0,0,0,0,7.529c2.131,3.964,7.462,5.006,7.462,5.006s-1.129,1.106-.691,3.565,1.633,2.816,2.177,3.754,5.908,0,5.908,0,2.541-.355,1.126-3.754,2.269-1.326,5.186-10.631-4.428-13.9-6.312-17.2c-.407-.712-.888-14.584-10.348-20.266-9.856-5.922-25.326-6.04-25.326-6.04s-3.6-9.66-18.769-14.236-28.41,4.137-28.41,4.137a63.617,63.617,0,0,0-20.493-4.137c-10.451-.074-18.43,9.554-17.943,15.826s9.122,10.9,17.943,12.841a40.358,40.358,0,0,0,15.658,0,23.02,23.02,0,0,0,15.607,9.509C8992.366,610.4,9001.247,608.245,9001.247,608.245Z" transform="translate(-8929.385 -568.74)" fill="#e4e4e4"/>
</svg>
