<svg xmlns="http://www.w3.org/2000/svg" width="1956.42" height="441.57" viewBox="0 0 1956.42 441.57">
  <defs>
    <style>
      .cls-1 {
        fill: #77c6eb;
      }

      .cls-2 {
        fill: #444c76;
      }

      .cls-3, .cls-5 {
        fill: #fff;
      }

      .cls-3, .cls-4 {
        opacity: 0.996;
      }

      .cls-4 {
        fill: #00488b;
      }
    </style>
  </defs>
  <g id="组_621" data-name="组 621" transform="translate(-5923.58 -2450.89)">
    <path id="减去_4" data-name="减去 4" class="cls-1" d="M711.55,12h-.541c-16.89-.071-33.509-3.317-49.58-6.456C649.193,3.157,637.64.9,626.179,0H795.57c-12.3.925-24.5,3.375-36.294,5.745h-.008C743.955,8.823,728.121,12,711.55,12Zm568.267,0c-16.336,0-32.221-3.161-47.583-6.218C1220.241,3.4,1207.841.93,1195.344,0h131.873V5.8h0l-.005,0a68.143,68.143,0,0,1-11.465,3.1c-4.515.9-9.482,1.617-14.765,2.131C1294.376,11.677,1287.256,12,1279.817,12Zm-189.6,0c-16,0-32-3.155-47.473-6.207-12.124-2.392-24.66-4.864-37.1-5.8H1174.68c-12.613.936-25.181,3.424-37.335,5.83-7.671,1.518-15.6,3.089-23.441,4.246A161.989,161.989,0,0,1,1090.215,12ZM900.7,12h-.085a162.094,162.094,0,0,1-23.588-1.931c-7.821-1.155-15.75-2.721-23.418-4.235C841.407,3.428,828.794.937,816.159,0H985.2c-12.454.933-25.019,3.409-37.169,5.8l-.011,0C932.564,8.853,916.588,12,900.7,12Zm-379.29,0c-15.07,0-32.1-3.207-48.561-6.308C460.38,3.347,447.49.919,435.864,0H606.757c-12.11.932-25.132,3.4-37.727,5.8C552.956,8.848,536.339,12,521.407,12ZM331.981,12H331.8c-14.613-.027-31.707-3.212-48.237-6.293C270.934,3.355,257.875.921,246.3,0H417.036C405.314.927,392.294,3.379,379.7,5.751l-.273.051C363.244,8.851,346.509,12,331.981,12Zm-189.7,0H142.2c-14.264-.011-32.108-3.261-49.364-6.4l-.013,0C79.579,3.185,67.068.907,56.138,0H227.7c-11.739.931-25.061,3.4-37.945,5.79C173.29,8.845,156.262,12,142.277,12ZM0,5.8H0V0H35.9A203.534,203.534,0,0,0,10.346,3.414C4.239,4.627.419,5.684,0,5.8Z" transform="translate(6247.597 2662.102)"/>
    <path id="路径_407" data-name="路径 407" class="cls-1" d="M135.233,266.932H71.584a31.824,31.824,0,1,1,63.649,0Z" transform="translate(6209.883 2395.169)"/>
    <path id="路径_408" data-name="路径 408" class="cls-1" d="M135.233,266.932H71.584a31.824,31.824,0,1,1,63.649,0Z" transform="translate(6273.531 2395.169)"/>
    <path id="路径_409" data-name="路径 409" class="cls-1" d="M135.233,266.932H71.584a31.824,31.824,0,1,1,63.649,0Z" transform="translate(6337.181 2395.169)"/>
    <path id="路径_410" data-name="路径 410" class="cls-1" d="M135.233,266.932H71.584a31.824,31.824,0,1,1,63.649,0Z" transform="translate(6400.829 2395.169)"/>
    <path id="路径_411" data-name="路径 411" class="cls-1" d="M510.106,389.665H87.327c0-115.963,95.426-211.389,211.39-211.389S510.106,273.7,510.106,389.665Z" transform="translate(7064.708 2272.614)"/>
    <path id="路径_412" data-name="路径 412" class="cls-1" d="M250.6,254.731h-33.87a16.935,16.935,0,1,1,33.87,0Z" transform="translate(6030.866 2407.371)"/>
    <path id="路径_413" data-name="路径 413" class="cls-1" d="M373.88,293.9H227.1c0-40.261,33.132-73.389,73.393-73.389S373.88,253.644,373.88,293.9Z" transform="translate(6308.964 2368.375)"/>
    <path id="路径_414" data-name="路径 414" class="cls-1" d="M506.621,324.375h-234.6c0-64.349,52.95-117.3,117.3-117.3S506.621,260.025,506.621,324.375Z" transform="translate(6410.819 2337.905)"/>
    <path id="路径_415" data-name="路径 415" class="cls-1" d="M506.621,324.375h-234.6c0-64.349,52.95-117.3,117.3-117.3S506.621,260.025,506.621,324.375Z" transform="translate(6645.417 2337.905)"/>
    <g id="组_545" data-name="组 545" transform="translate(6794.968 2209.972)">
      <g id="组_512" data-name="组 512" transform="translate(381.015 368.168)">
        <path id="路径_422" data-name="路径 422" class="cls-2" d="M316.752,524.328h91.323l-52.089,36.924H49.385a53.52,53.52,0,0,1-17.142-30.33H301.919Z" transform="translate(-32.243 -470.522)"/>
        <path id="路径_423" data-name="路径 423" class="cls-2" d="M219.648,502.221q1.76-2.56,3.52-5.118h31.487q2.318,2.56,4.639,5.118Z" transform="translate(-130.594 -479.198)"/>
        <path id="路径_424" data-name="路径 424" class="cls-2" d="M225.929,503.01q.024-8.442.047-16.885h16.535l4.237,16.885Z" transform="translate(-126.332 -482.697)"/>
        <g id="组_511" data-name="组 511" transform="translate(11.218 11.508)">
          <path id="路径_425" data-name="路径 425" class="cls-2" d="M92.707,497.92l7.039-5.668h62.972q4.639,2.834,9.278,5.668Z" transform="translate(112.882 -492.252)"/>
          <path id="路径_426" data-name="路径 426" class="cls-2" d="M80.635,505.016l3.4-4.514h267.7l7.389,4.514Z" transform="translate(-58.332 -489.623)"/>
          <g id="组_510" data-name="组 510" transform="translate(0 20.605)">
            <path id="路径_427" data-name="路径 427" class="cls-2" d="M68.493,512.446l3.443-4.569H362.892l7.48,4.569Z" transform="translate(-53.561 -507.877)"/>
            <path id="路径_428" data-name="路径 428" class="cls-2" d="M377.429,515.294l13.1,8H323.508q-7.416,3.3-14.833,6.593H52.086q5.5-7.3,11-14.6Z" transform="translate(-52.086 -505.513)"/>
          </g>
        </g>
        <path id="路径_429" data-name="路径 429" class="cls-2" d="M282.553,9.828,270.519-3.428H262.9l7.619,13.256Z" transform="translate(0.001 3.428)"/>
      </g>
    </g>
    <g id="组_550" data-name="组 550" transform="translate(1396 -1052.993)">
      <g id="组_546" data-name="组 546">
        <path id="路径_421" data-name="路径 421" class="cls-3" d="M2922.553,2956.866h-.587c-17.889-.068-35.008-3.134-51.563-6.1-15.235-2.728-29.6-5.295-43.164-5.269-13.809.037-29.076,2.694-45.24,5.507-16.552,2.881-33.667,5.86-49.592,5.86-16.056,0-33.575-3.025-50.518-5.95-16.075-2.776-31.259-5.4-44.3-5.417h-.139c-13.117,0-29.227,2.782-44.811,5.473-16.854,2.91-34.281,5.936-49.853,5.894-15.58-.026-33.159-3.029-50.159-5.934-16.354-2.794-31.8-5.433-44.623-5.433-12.905,0-29.38,2.8-45.313,5.51-16.94,2.88-34.456,5.858-49.415,5.858h-.082c-15.216-.011-33.54-3.07-51.26-6.029-16.445-2.745-31.977-5.338-43.533-5.338a199.457,199.457,0,0,0-44.5,5.313l-5.792-22.259a221.244,221.244,0,0,1,50.3-6.054c13.462,0,29.909,2.746,47.32,5.653,16.8,2.8,34.171,5.7,47.49,5.715h.065c13.018,0,29.56-2.812,45.559-5.532,16.874-2.869,34.322-5.835,49.168-5.835,14.771,0,31.916,2.929,48.5,5.762,16.064,2.745,32.675,5.583,46.324,5.605h.161c13.549,0,29.912-2.826,45.74-5.559,16.6-2.867,33.786-5.851,48.9-5.809,15,.023,31.865,2.935,48.179,5.752,15.988,2.761,32.52,5.615,46.6,5.615,13.938,0,30.058-2.806,45.648-5.519,16.4-2.854,33.357-5.806,49.123-5.848,15.6-.052,31.71,2.841,47.279,5.629,15.588,2.791,31.707,5.677,47.6,5.738,15.711.059,30.489-2.663,46.142-5.546,15.537-2.862,31.6-5.821,48.615-5.821,17.258,0,33.824,3,49.845,5.9,15.507,2.807,30.154,5.459,44.963,5.468,14.922,0,29.684-2.665,45.351-5.5,15.968-2.886,32.48-5.87,49.443-5.871s33.439,2.979,49.376,5.86c15.662,2.832,30.456,5.507,45.426,5.507,14.911,0,29.564-2.659,45.078-5.474,15.961-2.9,32.466-5.891,49.722-5.893h.016c17.183,0,33.494,2.976,49.268,5.854,15.543,2.835,30.223,5.514,45.519,5.514,29.471,0,43.229-4.9,43.364-4.952l8.162,21.5c-1.718.66-17.755,6.449-51.526,6.449-17.376,0-33.781-2.993-49.646-5.887-15.446-2.818-30.039-5.48-45.139-5.48h-.014c-15.188,0-29.969,2.684-45.619,5.524-15.832,2.873-32.2,5.844-49.184,5.844-17.033,0-33.548-2.986-49.519-5.874-15.626-2.825-30.385-5.494-45.282-5.493s-29.693,2.674-45.353,5.5c-15.949,2.883-32.441,5.863-49.364,5.863h-.093c-16.867-.011-33.226-2.972-49.046-5.836-15.714-2.844-30.556-5.531-45.748-5.531-14.911,0-29.259,2.643-44.449,5.44C2956.536,2953.853,2940.177,2956.866,2922.553,2956.866Z" transform="translate(2832.039 787.959)"/>
        <path id="路径_421-2" data-name="路径 421" class="cls-3" d="M2922.553,2956.866h-.587c-17.889-.068-35.008-3.134-51.563-6.1-15.235-2.728-29.6-5.295-43.164-5.269-13.809.037-29.076,2.694-45.24,5.507-16.552,2.881-33.667,5.86-49.592,5.86-16.056,0-33.575-3.025-50.518-5.95-16.075-2.776-31.259-5.4-44.3-5.417h-.139c-13.117,0-29.227,2.782-44.811,5.473-16.854,2.91-34.281,5.936-49.853,5.894-15.58-.026-33.159-3.029-50.159-5.934-16.354-2.794-31.8-5.433-44.623-5.433-12.905,0-29.38,2.8-45.313,5.51-16.94,2.88-34.456,5.858-49.415,5.858h-.082c-15.216-.011-33.54-3.07-51.26-6.029-16.445-2.745-31.977-5.338-43.533-5.338a199.457,199.457,0,0,0-44.5,5.313l-5.792-22.259a221.244,221.244,0,0,1,50.3-6.054c13.462,0,29.909,2.746,47.32,5.653,16.8,2.8,34.171,5.7,47.49,5.715h.065c13.018,0,29.56-2.812,45.559-5.532,16.874-2.869,34.322-5.835,49.168-5.835,14.771,0,31.916,2.929,48.5,5.762,16.064,2.745,32.675,5.583,46.324,5.605h.161c13.549,0,29.912-2.826,45.74-5.559,16.6-2.867,33.786-5.851,48.9-5.809,15,.023,31.865,2.935,48.179,5.752,15.988,2.761,32.52,5.615,46.6,5.615,13.938,0,30.058-2.806,45.648-5.519,16.4-2.854,33.357-5.806,49.123-5.848,15.6-.052,31.71,2.841,47.279,5.629,15.588,2.791,31.707,5.677,47.6,5.738,15.711.059,30.489-2.663,46.142-5.546,15.537-2.862,31.6-5.821,48.615-5.821,17.258,0,33.824,3,49.845,5.9,15.507,2.807,30.154,5.459,44.963,5.468,14.922,0,29.684-2.665,45.351-5.5,15.968-2.886,32.48-5.87,49.443-5.871s33.439,2.979,49.376,5.86c15.662,2.832,30.456,5.507,45.426,5.507,14.911,0,29.564-2.659,45.078-5.474,15.961-2.9,32.466-5.891,49.722-5.893h.016c17.183,0,33.494,2.976,49.268,5.854,15.543,2.835,30.223,5.514,45.519,5.514,29.471,0,43.229-4.9,43.364-4.952l8.162,21.5c-1.718.66-17.755,6.449-51.526,6.449-17.376,0-33.781-2.993-49.646-5.887-15.446-2.818-30.039-5.48-45.139-5.48h-.014c-15.188,0-29.969,2.684-45.619,5.524-15.832,2.873-32.2,5.844-49.184,5.844-17.033,0-33.548-2.986-49.519-5.874-15.626-2.825-30.385-5.494-45.282-5.493s-29.693,2.674-45.353,5.5c-15.949,2.883-32.441,5.863-49.364,5.863h-.093c-16.867-.011-33.226-2.972-49.046-5.836-15.714-2.844-30.556-5.531-45.748-5.531-14.911,0-29.259,2.643-44.449,5.44C2956.536,2953.853,2940.177,2956.866,2922.553,2956.866Z" transform="translate(2448.34 787.959)"/>
        <path id="路径_420" data-name="路径 420" class="cls-4" d="M2922.546,2947.866H2922c-17.106-.065-33.834-3.061-50.011-5.957-15.534-2.781-30.214-5.41-44.466-5.41h-.308c-14.575.039-30.936,2.886-46.759,5.641-16.175,2.815-32.9,5.727-48.049,5.727-15.285,0-32.417-2.958-48.986-5.819-7.921-1.368-16.111-2.781-23.846-3.819a169.231,169.231,0,0,0-21.972-1.729h-.155a168.928,168.928,0,0,0-22.11,1.726c-7.863,1.052-16.183,2.489-24.23,3.878-16.407,2.833-33.374,5.763-48.122,5.763h-.185c-14.824-.025-32.025-2.963-48.659-5.805-8.052-1.375-16.378-2.8-24.19-3.84A168.684,168.684,0,0,0,2448,2936.5c-13.665,0-30.521,2.866-46.822,5.637-16.571,2.817-33.706,5.73-47.905,5.73h-.077c-14.473-.011-32.424-3.008-49.784-5.906-16.823-2.809-32.713-5.461-45.015-5.461a205.613,205.613,0,0,0-32.812,2.8c-8.461,1.386-13.905,2.792-13.959,2.806l-1.259-4.839c.228-.059,5.671-1.466,14.34-2.889a213.425,213.425,0,0,1,33.69-2.875c12.716,0,28.805,2.686,45.838,5.53,17.16,2.865,34.9,5.827,48.965,5.837h.073c13.778,0,30.7-2.877,47.067-5.66,16.505-2.806,33.573-5.708,47.659-5.708a173.458,173.458,0,0,1,22.61,1.766c7.9,1.054,16.275,2.484,24.371,3.867,16.43,2.807,33.42,5.71,47.825,5.734h.177c14.32,0,31.07-2.893,47.27-5.69,16.164-2.792,32.877-5.677,47.193-5.677h.16a174.007,174.007,0,0,1,22.629,1.773c7.829,1.05,16.066,2.472,24.032,3.848,16.361,2.825,33.28,5.746,48.136,5.746,14.716,0,31.225-2.874,47.191-5.653,16.029-2.79,32.6-5.675,47.6-5.715h.323c14.7,0,29.586,2.667,45.346,5.489,15.967,2.859,32.477,5.815,49.148,5.879h.525a176.427,176.427,0,0,0,23.67-1.739c7.949-1.073,15.911-2.539,23.611-3.958,7.555-1.391,15.366-2.83,23.145-3.893a175.661,175.661,0,0,1,23.84-1.779c16.449,0,32.612,2.926,48.242,5.755,7.641,1.383,15.543,2.813,23.307,3.865a174.056,174.056,0,0,0,23.254,1.748h.082a174.442,174.442,0,0,0,23.349-1.747c7.838-1.058,15.813-2.5,23.526-3.893,15.578-2.815,31.686-5.727,47.843-5.727s32.228,2.906,47.774,5.717c7.708,1.394,15.677,2.834,23.524,3.894a157.7,157.7,0,0,0,46.858.012c7.782-1.053,15.686-2.487,23.33-3.874,15.57-2.825,31.67-5.747,48.116-5.749h.015c16.369,0,32.272,2.9,47.652,5.707,7.649,1.4,15.559,2.839,23.4,3.9a176.564,176.564,0,0,0,23.729,1.76,235.343,235.343,0,0,0,35.9-2.472,90.268,90.268,0,0,0,11.814-2.471l1.517,4.764a91.84,91.84,0,0,1-12.377,2.618,239.823,239.823,0,0,1-36.853,2.561c-16.562,0-32.56-2.919-48.031-5.741-7.614-1.389-15.487-2.825-23.272-3.88a174.607,174.607,0,0,0-23.482-1.746h-.016a176.965,176.965,0,0,0-23.7,1.764c-7.871,1.063-15.831,2.508-23.528,3.9-15.44,2.8-31.406,5.7-47.577,5.7-16.226,0-32.337-2.913-47.917-5.73-7.693-1.391-15.648-2.829-23.471-3.886a157.395,157.395,0,0,0-46.853,0c-7.837,1.059-15.806,2.5-23.513,3.892-15.559,2.812-31.647,5.719-47.764,5.719h-.086c-16.062-.01-32.018-2.9-47.448-5.692-7.726-1.4-15.716-2.845-23.611-3.91a177.434,177.434,0,0,0-23.74-1.766,170.793,170.793,0,0,0-23.163,1.733c-7.664,1.047-15.417,2.475-22.916,3.856C2955.3,2944.928,2939.354,2947.866,2922.546,2947.866Z" transform="translate(2449.34 778.039)"/>
        <path id="路径_419" data-name="路径 419" class="cls-4" d="M2922.546,2947.866H2922c-17.106-.065-33.834-3.061-50.011-5.957-15.534-2.781-30.214-5.41-44.466-5.41h-.308c-14.575.039-30.936,2.886-46.759,5.641-16.175,2.815-32.9,5.727-48.049,5.727-15.285,0-32.417-2.958-48.986-5.819-7.921-1.368-16.111-2.781-23.846-3.819a169.231,169.231,0,0,0-21.972-1.729h-.155a168.928,168.928,0,0,0-22.11,1.726c-7.863,1.052-16.183,2.489-24.23,3.878-16.407,2.833-33.374,5.763-48.122,5.763h-.185c-14.824-.025-32.025-2.963-48.658-5.805-8.052-1.375-16.378-2.8-24.19-3.84A168.684,168.684,0,0,0,2448,2936.5c-13.665,0-30.521,2.866-46.822,5.637-16.571,2.817-33.706,5.73-47.905,5.73h-.077c-14.473-.011-32.424-3.008-49.784-5.906-16.823-2.809-32.713-5.461-45.015-5.461a205.613,205.613,0,0,0-32.812,2.8c-8.461,1.386-13.905,2.792-13.959,2.806l-1.259-4.839c.228-.059,5.671-1.466,14.34-2.889a213.425,213.425,0,0,1,33.69-2.875c12.716,0,28.805,2.686,45.838,5.53,17.16,2.865,34.9,5.827,48.965,5.837h.073c13.778,0,30.7-2.877,47.067-5.659,16.505-2.806,33.573-5.708,47.659-5.708a173.458,173.458,0,0,1,22.61,1.766c7.9,1.054,16.275,2.484,24.371,3.867,16.43,2.807,33.42,5.71,47.825,5.734h.177c14.32,0,31.07-2.893,47.27-5.69,16.164-2.792,32.877-5.677,47.193-5.677h.16a174.014,174.014,0,0,1,22.629,1.773c7.829,1.05,16.066,2.472,24.032,3.848,16.361,2.825,33.28,5.746,48.136,5.746,14.716,0,31.225-2.874,47.191-5.653,16.029-2.79,32.6-5.675,47.6-5.715h.323c14.7,0,29.586,2.667,45.346,5.489,15.967,2.859,32.477,5.815,49.148,5.879h.525a176.427,176.427,0,0,0,23.67-1.739c7.949-1.073,15.911-2.539,23.611-3.958,7.555-1.391,15.366-2.83,23.145-3.893a175.658,175.658,0,0,1,23.84-1.779c16.449,0,32.612,2.926,48.242,5.755,7.641,1.383,15.543,2.813,23.307,3.865a174.056,174.056,0,0,0,23.254,1.748h.082a174.442,174.442,0,0,0,23.349-1.747c7.838-1.058,15.813-2.5,23.526-3.893,15.578-2.815,31.686-5.727,47.843-5.727s32.228,2.906,47.774,5.717c7.708,1.394,15.677,2.834,23.524,3.894a157.7,157.7,0,0,0,46.858.012c7.782-1.053,15.686-2.487,23.33-3.874,15.57-2.825,31.669-5.747,48.116-5.749h.015c16.369,0,32.272,2.9,47.652,5.707,7.649,1.4,15.559,2.839,23.4,3.9a176.564,176.564,0,0,0,23.729,1.76,233.05,233.05,0,0,0,35.871-2.491,89.187,89.187,0,0,0,11.792-2.49l1.532,4.76a90.809,90.809,0,0,1-12.36,2.64,237.5,237.5,0,0,1-36.835,2.582c-16.562,0-32.56-2.919-48.031-5.741-7.614-1.389-15.487-2.825-23.272-3.88a174.609,174.609,0,0,0-23.482-1.746h-.016a176.965,176.965,0,0,0-23.7,1.764c-7.871,1.063-15.831,2.508-23.528,3.9-15.44,2.8-31.406,5.7-47.577,5.7-16.226,0-32.337-2.913-47.917-5.73-7.693-1.391-15.648-2.829-23.471-3.886a157.395,157.395,0,0,0-46.853,0c-7.837,1.059-15.806,2.5-23.513,3.892-15.559,2.812-31.647,5.719-47.764,5.719h-.086c-16.062-.01-32.018-2.9-47.448-5.692-7.726-1.4-15.716-2.845-23.611-3.91a177.434,177.434,0,0,0-23.74-1.766,170.793,170.793,0,0,0-23.163,1.733c-7.664,1.047-15.417,2.475-22.916,3.856C2955.3,2944.928,2939.354,2947.866,2922.546,2947.866Z" transform="translate(2449.34 788.117)"/>
        <path id="路径_418" data-name="路径 418" class="cls-4" d="M2922.546,2947.866H2922c-17.106-.065-33.834-3.061-50.011-5.957-15.534-2.781-30.214-5.41-44.466-5.41h-.308c-14.575.039-30.936,2.886-46.759,5.641-16.175,2.815-32.9,5.727-48.049,5.727-15.285,0-32.418-2.958-48.986-5.819-7.921-1.368-16.111-2.781-23.846-3.819a169.231,169.231,0,0,0-21.972-1.729h-.155a168.928,168.928,0,0,0-22.11,1.726c-7.863,1.052-16.183,2.489-24.23,3.878-16.408,2.833-33.374,5.763-48.122,5.763h-.185c-14.825-.025-32.025-2.963-48.659-5.805-8.052-1.375-16.378-2.8-24.189-3.84A168.694,168.694,0,0,0,2448,2936.5c-13.665,0-30.521,2.866-46.822,5.637-16.571,2.817-33.706,5.73-47.905,5.73h-.077c-14.473-.011-32.424-3.008-49.784-5.906-16.823-2.809-32.713-5.461-45.015-5.461a205.613,205.613,0,0,0-32.812,2.8c-8.461,1.386-13.905,2.792-13.959,2.806l-1.259-4.839c.228-.059,5.671-1.466,14.34-2.889a213.425,213.425,0,0,1,33.69-2.875c12.716,0,28.805,2.686,45.838,5.53,17.16,2.865,34.9,5.827,48.965,5.837h.073c13.778,0,30.7-2.877,47.067-5.66,16.505-2.806,33.573-5.708,47.659-5.708a173.458,173.458,0,0,1,22.61,1.766c7.9,1.054,16.275,2.484,24.371,3.867,16.431,2.807,33.42,5.71,47.825,5.734h.177c14.32,0,31.07-2.893,47.27-5.69,16.164-2.792,32.877-5.677,47.193-5.677h.16a174.007,174.007,0,0,1,22.629,1.773c7.829,1.05,16.066,2.472,24.033,3.848,16.361,2.825,33.279,5.746,48.135,5.746,14.716,0,31.225-2.874,47.191-5.653,16.029-2.79,32.6-5.675,47.6-5.715h.323c14.7,0,29.587,2.667,45.346,5.489,15.966,2.859,32.477,5.815,49.148,5.879h.525a176.427,176.427,0,0,0,23.67-1.739c7.949-1.073,15.911-2.539,23.611-3.958,7.554-1.391,15.366-2.83,23.145-3.893a175.658,175.658,0,0,1,23.84-1.779c16.449,0,32.612,2.926,48.242,5.755,7.641,1.383,15.542,2.813,23.307,3.865a174.056,174.056,0,0,0,23.254,1.748h.082a174.448,174.448,0,0,0,23.349-1.747c7.837-1.058,15.813-2.5,23.526-3.893,15.578-2.815,31.686-5.727,47.842-5.727s32.228,2.906,47.774,5.717c7.708,1.394,15.677,2.834,23.524,3.894a157.7,157.7,0,0,0,46.858.012c7.782-1.053,15.686-2.487,23.33-3.874,15.57-2.825,31.67-5.747,48.117-5.749h.015c16.369,0,32.272,2.9,47.652,5.707,7.649,1.4,15.559,2.839,23.4,3.9a176.6,176.6,0,0,0,23.729,1.76,239.563,239.563,0,0,0,37.162-2.711,112.04,112.04,0,0,0,13.047-2.711l1.443,4.787a113.457,113.457,0,0,1-13.564,2.839c-5.088.812-10.528,1.459-16.168,1.923-7.039.579-14.414.872-21.921.872-16.562,0-32.56-2.919-48.031-5.741-7.614-1.389-15.487-2.825-23.273-3.88a174.6,174.6,0,0,0-23.482-1.746h-.016a176.965,176.965,0,0,0-23.7,1.764c-7.871,1.063-15.831,2.508-23.528,3.9-15.44,2.8-31.406,5.7-47.577,5.7-16.226,0-32.337-2.913-47.917-5.73-7.693-1.391-15.648-2.829-23.471-3.886a157.395,157.395,0,0,0-46.853,0c-7.837,1.059-15.806,2.5-23.513,3.892-15.559,2.812-31.647,5.719-47.764,5.719h-.086c-16.062-.01-32.018-2.9-47.448-5.692-7.726-1.4-15.716-2.845-23.611-3.91a177.437,177.437,0,0,0-23.74-1.766,170.793,170.793,0,0,0-23.163,1.733c-7.664,1.047-15.417,2.475-22.916,3.856C2955.3,2944.928,2939.354,2947.866,2922.546,2947.866Z" transform="translate(2449.155 797.878)"/>
        <g id="组_517" data-name="组 517" transform="translate(2545.226 32.64)">
          <path id="路径_420-2" data-name="路径 420" class="cls-4" d="M2922.546,2947.866H2922c-17.106-.065-33.834-3.061-50.011-5.957-15.534-2.781-30.214-5.41-44.466-5.41h-.308c-14.575.039-30.937,2.886-46.76,5.641-16.175,2.815-32.9,5.727-48.049,5.727-15.285,0-32.417-2.958-48.986-5.819-7.921-1.368-16.111-2.781-23.846-3.819a169.227,169.227,0,0,0-21.972-1.729h-.155a168.932,168.932,0,0,0-22.11,1.726c-7.863,1.052-16.184,2.489-24.23,3.878-16.408,2.833-33.374,5.763-48.121,5.763h-.185c-14.825-.025-32.025-2.963-48.659-5.805-8.052-1.375-16.378-2.8-24.19-3.84A168.684,168.684,0,0,0,2448,2936.5c-13.665,0-30.521,2.866-46.821,5.637-16.571,2.817-33.706,5.73-47.905,5.73h-.077c-14.473-.011-32.424-3.008-49.784-5.906-16.823-2.809-32.713-5.461-45.015-5.461a235.884,235.884,0,0,0-32.945,2.456c-8.509,1.217-14,2.45-14.052,2.462l-1.1-4.876c.229-.052,5.7-1.281,14.387-2.526a244.1,244.1,0,0,1,33.713-2.515c12.716,0,28.8,2.686,45.838,5.53,17.16,2.865,34.9,5.827,48.965,5.837h.073c13.778,0,30.7-2.877,47.067-5.66,16.505-2.806,33.573-5.708,47.659-5.708a173.458,173.458,0,0,1,22.61,1.766c7.9,1.054,16.275,2.484,24.371,3.867,16.43,2.807,33.42,5.71,47.825,5.734h.177c14.32,0,31.069-2.893,47.27-5.69,16.164-2.792,32.876-5.677,47.193-5.677h.16a174.007,174.007,0,0,1,22.629,1.773c7.829,1.05,16.066,2.472,24.032,3.848,16.361,2.825,33.28,5.746,48.136,5.746,14.716,0,31.225-2.874,47.191-5.653,16.029-2.79,32.6-5.675,47.6-5.715h.323c14.7,0,29.586,2.667,45.346,5.489,15.966,2.859,32.477,5.815,49.148,5.879h.525a176.427,176.427,0,0,0,23.67-1.739c7.949-1.073,15.911-2.539,23.611-3.958,7.554-1.391,15.366-2.83,23.145-3.893a175.661,175.661,0,0,1,23.84-1.779c16.449,0,32.612,2.926,48.242,5.755,7.641,1.383,15.543,2.813,23.307,3.865a174.059,174.059,0,0,0,23.254,1.748h.082a174.448,174.448,0,0,0,23.349-1.747c7.837-1.058,15.813-2.5,23.526-3.893,15.578-2.815,31.686-5.727,47.842-5.727s32.228,2.906,47.774,5.717c7.707,1.394,15.677,2.834,23.524,3.894a157.7,157.7,0,0,0,46.858.012c7.782-1.053,15.686-2.487,23.33-3.874,15.57-2.825,31.67-5.747,48.117-5.749h.016c16.369,0,32.272,2.9,47.652,5.707,7.649,1.4,15.559,2.839,23.4,3.9a176.564,176.564,0,0,0,23.729,1.76,200.256,200.256,0,0,0,35.257-2.76,71.467,71.467,0,0,0,11.251-2.758l1.79,4.669a73.289,73.289,0,0,1-11.918,2.968c-4.588.839-9.633,1.506-14.992,1.985-6.679.6-13.874.9-21.387.9-16.562,0-32.56-2.919-48.031-5.741-7.614-1.389-15.487-2.825-23.272-3.88a174.6,174.6,0,0,0-23.482-1.746h-.016a176.965,176.965,0,0,0-23.7,1.764c-7.871,1.063-15.831,2.508-23.528,3.9-15.44,2.8-31.406,5.7-47.577,5.7-16.226,0-32.337-2.913-47.917-5.73-7.693-1.391-15.649-2.829-23.471-3.886a157.395,157.395,0,0,0-46.853,0c-7.837,1.059-15.806,2.5-23.513,3.892-15.56,2.812-31.648,5.719-47.764,5.719h-.086c-16.062-.01-32.018-2.9-47.448-5.692-7.726-1.4-15.716-2.845-23.612-3.91a177.428,177.428,0,0,0-23.74-1.766,170.79,170.79,0,0,0-23.163,1.733c-7.664,1.047-15.417,2.475-22.916,3.856C2955.3,2944.928,2939.354,2947.866,2922.546,2947.866Z" transform="translate(287.813 745.399)"/>
        </g>
        <path id="路径_419-2" data-name="路径 419" class="cls-4" d="M2922.546,2947.866H2922c-17.106-.065-33.834-3.061-50.011-5.957-15.534-2.781-30.214-5.41-44.466-5.41h-.308c-14.575.039-30.936,2.886-46.759,5.641-16.175,2.815-32.9,5.727-48.049,5.727-15.285,0-32.418-2.958-48.987-5.819-7.92-1.368-16.111-2.781-23.846-3.819a169.231,169.231,0,0,0-21.972-1.729h-.155a168.928,168.928,0,0,0-22.11,1.726c-7.863,1.052-16.183,2.489-24.23,3.878-16.408,2.833-33.374,5.763-48.122,5.763h-.185c-14.825-.025-32.025-2.963-48.659-5.805-8.052-1.375-16.378-2.8-24.189-3.84A168.694,168.694,0,0,0,2448,2936.5c-13.665,0-30.521,2.866-46.822,5.637-16.571,2.817-33.706,5.73-47.905,5.73h-.077c-14.473-.011-32.424-3.008-49.784-5.906-16.823-2.809-32.713-5.461-45.015-5.461a236.453,236.453,0,0,0-32.944,2.45c-8.508,1.213-14,2.443-14.05,2.456l-1.1-4.877c.229-.052,5.694-1.278,14.385-2.52a244.657,244.657,0,0,1,33.711-2.509c12.716,0,28.805,2.686,45.838,5.53,17.16,2.865,34.9,5.827,48.965,5.837h.073c13.778,0,30.7-2.877,47.067-5.66,16.505-2.806,33.573-5.708,47.659-5.708a173.458,173.458,0,0,1,22.61,1.766c7.9,1.054,16.275,2.484,24.371,3.867,16.431,2.807,33.42,5.71,47.825,5.734h.177c14.32,0,31.07-2.893,47.27-5.69,16.164-2.792,32.877-5.677,47.193-5.677h.16a174.007,174.007,0,0,1,22.629,1.773c7.829,1.05,16.066,2.472,24.033,3.848,16.361,2.825,33.279,5.746,48.135,5.746,14.716,0,31.225-2.874,47.191-5.653,16.029-2.79,32.6-5.675,47.6-5.715h.323c14.7,0,29.587,2.667,45.346,5.489,15.966,2.859,32.477,5.815,49.148,5.879h.525a176.427,176.427,0,0,0,23.67-1.739c7.949-1.073,15.911-2.539,23.611-3.958,7.554-1.391,15.366-2.83,23.145-3.893a175.658,175.658,0,0,1,23.84-1.779c16.449,0,32.612,2.926,48.242,5.755,7.641,1.383,15.542,2.813,23.307,3.865a174.056,174.056,0,0,0,23.254,1.748h.082a174.448,174.448,0,0,0,23.349-1.747c7.837-1.058,15.813-2.5,23.526-3.893,15.578-2.815,31.686-5.727,47.842-5.727s32.228,2.906,47.774,5.717c7.708,1.394,15.677,2.834,23.524,3.894a157.7,157.7,0,0,0,46.858.012c7.782-1.053,15.686-2.487,23.33-3.874,15.57-2.825,31.67-5.747,48.117-5.749h.015c16.369,0,32.272,2.9,47.652,5.707,7.649,1.4,15.559,2.839,23.4,3.9a176.564,176.564,0,0,0,23.729,1.76,200.256,200.256,0,0,0,35.257-2.76,71.467,71.467,0,0,0,11.251-2.758l1.79,4.669a73.3,73.3,0,0,1-11.918,2.968c-4.588.839-9.633,1.506-14.993,1.985-6.678.6-13.874.9-21.386.9-16.562,0-32.56-2.919-48.031-5.741-7.614-1.389-15.487-2.825-23.273-3.88a174.6,174.6,0,0,0-23.482-1.746h-.016a176.965,176.965,0,0,0-23.7,1.764c-7.871,1.063-15.831,2.508-23.528,3.9-15.44,2.8-31.406,5.7-47.577,5.7-16.226,0-32.337-2.913-47.917-5.73-7.693-1.391-15.648-2.829-23.471-3.886a157.395,157.395,0,0,0-46.853,0c-7.837,1.059-15.806,2.5-23.513,3.892-15.559,2.812-31.648,5.719-47.764,5.719h-.086c-16.062-.01-32.018-2.9-47.448-5.692-7.726-1.4-15.716-2.845-23.611-3.91a177.437,177.437,0,0,0-23.74-1.766,170.793,170.793,0,0,0-23.163,1.733c-7.664,1.047-15.417,2.475-22.916,3.856C2955.3,2944.928,2939.354,2947.866,2922.546,2947.866Z" transform="translate(2833.039 788.117)"/>
        <path id="路径_418-2" data-name="路径 418" class="cls-4" d="M2922.546,2947.866H2922c-17.106-.065-33.834-3.061-50.011-5.957-15.534-2.781-30.214-5.41-44.466-5.41h-.309c-14.575.039-30.936,2.886-46.759,5.641-16.175,2.815-32.9,5.727-48.049,5.727-15.284,0-32.417-2.958-48.986-5.819-7.92-1.367-16.111-2.781-23.846-3.819a169.227,169.227,0,0,0-21.972-1.729h-.155a168.932,168.932,0,0,0-22.11,1.726c-7.863,1.052-16.184,2.489-24.23,3.878-16.408,2.833-33.374,5.763-48.121,5.763h-.185c-14.825-.025-32.025-2.963-48.659-5.805-8.052-1.375-16.378-2.8-24.19-3.84A168.684,168.684,0,0,0,2448,2936.5c-13.665,0-30.521,2.866-46.821,5.637-16.571,2.817-33.706,5.73-47.905,5.73h-.076c-14.474-.011-32.425-3.008-49.785-5.906-16.823-2.809-32.713-5.461-45.015-5.461a235.8,235.8,0,0,0-32.929,2.454c-8.5,1.216-13.982,2.448-14.037,2.46l-1.1-4.877c.228-.052,5.688-1.281,14.372-2.524a243.958,243.958,0,0,1,33.7-2.513c12.716,0,28.8,2.686,45.838,5.53,17.16,2.865,34.9,5.827,48.965,5.837h.073c13.778,0,30.7-2.877,47.067-5.66,16.505-2.806,33.573-5.708,47.659-5.708a173.458,173.458,0,0,1,22.61,1.766c7.9,1.054,16.275,2.484,24.371,3.867,16.43,2.807,33.42,5.71,47.825,5.734h.177c14.32,0,31.069-2.893,47.27-5.69,16.164-2.792,32.876-5.677,47.193-5.677h.16a174.007,174.007,0,0,1,22.629,1.773c7.829,1.05,16.066,2.472,24.032,3.848,16.361,2.825,33.28,5.746,48.136,5.746,14.716,0,31.225-2.874,47.191-5.653,16.029-2.79,32.6-5.675,47.6-5.715h.323c14.7,0,29.586,2.667,45.346,5.489,15.967,2.859,32.477,5.815,49.149,5.879h.525a176.427,176.427,0,0,0,23.67-1.739c7.949-1.073,15.911-2.539,23.611-3.958,7.555-1.391,15.366-2.83,23.145-3.893a175.658,175.658,0,0,1,23.84-1.779c16.449,0,32.612,2.926,48.242,5.755,7.641,1.383,15.543,2.813,23.307,3.865a174.059,174.059,0,0,0,23.253,1.748h.083a174.442,174.442,0,0,0,23.349-1.747c7.838-1.058,15.813-2.5,23.526-3.893,15.578-2.815,31.686-5.727,47.843-5.727s32.228,2.906,47.774,5.717c7.708,1.394,15.677,2.834,23.524,3.894a157.7,157.7,0,0,0,46.858.012c7.782-1.053,15.686-2.487,23.33-3.874,15.57-2.825,31.67-5.747,48.117-5.749h.016c16.369,0,32.272,2.9,47.652,5.707,7.649,1.4,15.559,2.839,23.4,3.9a176.6,176.6,0,0,0,23.729,1.76,200.256,200.256,0,0,0,35.257-2.76,71.467,71.467,0,0,0,11.251-2.758l1.79,4.669a73.289,73.289,0,0,1-11.918,2.968c-4.589.839-9.633,1.506-14.993,1.985-6.679.6-13.874.9-21.387.9-16.562,0-32.56-2.919-48.031-5.741-7.614-1.389-15.487-2.825-23.272-3.88a174.609,174.609,0,0,0-23.482-1.746h-.016a176.967,176.967,0,0,0-23.7,1.764c-7.871,1.063-15.831,2.508-23.528,3.9-15.44,2.8-31.406,5.7-47.577,5.7-16.226,0-32.337-2.913-47.917-5.73-7.693-1.391-15.648-2.829-23.471-3.886a157.395,157.395,0,0,0-46.853,0c-7.837,1.059-15.806,2.5-23.513,3.892-15.56,2.812-31.648,5.719-47.764,5.719h-.086c-16.062-.01-32.018-2.9-47.448-5.692-7.726-1.4-15.716-2.845-23.611-3.91a177.434,177.434,0,0,0-23.74-1.766,170.79,170.79,0,0,0-23.163,1.733c-7.664,1.047-15.417,2.475-22.916,3.856C2955.3,2944.928,2939.354,2947.866,2922.546,2947.866Z" transform="translate(2832.854 797.878)"/>
      </g>
      <g id="组_547" data-name="组 547" transform="translate(-95 22)">
        <path id="路径_421-3" data-name="路径 421" class="cls-3" d="M2922.553,2956.866h-.587c-17.889-.068-35.008-3.134-51.563-6.1-15.235-2.728-29.6-5.295-43.164-5.269-13.809.037-29.076,2.694-45.24,5.507-16.552,2.881-33.667,5.86-49.592,5.86-16.056,0-33.575-3.025-50.518-5.95-16.075-2.776-31.259-5.4-44.3-5.417h-.139c-13.117,0-29.227,2.782-44.811,5.473-16.854,2.91-34.281,5.936-49.853,5.894-15.58-.026-33.159-3.029-50.159-5.934-16.354-2.794-31.8-5.433-44.623-5.433-12.905,0-29.38,2.8-45.313,5.51-16.94,2.88-34.456,5.858-49.415,5.858h-.082c-15.216-.011-33.54-3.07-51.26-6.029-16.445-2.745-31.977-5.338-43.533-5.338a199.457,199.457,0,0,0-44.5,5.313l-5.792-22.259a221.244,221.244,0,0,1,50.3-6.054c13.462,0,29.909,2.746,47.32,5.653,16.8,2.8,34.171,5.7,47.49,5.715h.065c13.018,0,29.56-2.812,45.559-5.532,16.874-2.869,34.322-5.835,49.168-5.835,14.771,0,31.916,2.929,48.5,5.762,16.064,2.745,32.675,5.583,46.324,5.605h.161c13.549,0,29.912-2.826,45.74-5.559,16.6-2.867,33.786-5.851,48.9-5.809,15,.023,31.865,2.935,48.179,5.752,15.988,2.761,32.52,5.615,46.6,5.615,13.938,0,30.058-2.806,45.648-5.519,16.4-2.854,33.357-5.806,49.123-5.848,15.6-.052,31.71,2.841,47.279,5.629,15.588,2.791,31.707,5.677,47.6,5.738,15.711.059,30.489-2.663,46.142-5.546,15.537-2.862,31.6-5.821,48.615-5.821,17.258,0,33.824,3,49.845,5.9,15.507,2.807,30.154,5.459,44.963,5.468,14.922,0,29.684-2.665,45.351-5.5,15.968-2.886,32.48-5.87,49.443-5.871s33.439,2.979,49.376,5.86c15.662,2.832,30.456,5.507,45.426,5.507,14.911,0,29.564-2.659,45.078-5.474,15.961-2.9,32.466-5.891,49.722-5.893h.016c17.183,0,33.494,2.976,49.268,5.854,15.543,2.835,30.223,5.514,45.519,5.514,29.471,0,43.229-4.9,43.364-4.952l8.162,21.5c-1.718.66-17.755,6.449-51.526,6.449-17.376,0-33.781-2.993-49.646-5.887-15.446-2.818-30.039-5.48-45.139-5.48h-.014c-15.188,0-29.969,2.684-45.619,5.524-15.832,2.873-32.2,5.844-49.184,5.844-17.033,0-33.548-2.986-49.519-5.874-15.626-2.825-30.385-5.494-45.282-5.493s-29.693,2.674-45.353,5.5c-15.949,2.883-32.441,5.863-49.364,5.863h-.093c-16.867-.011-33.226-2.972-49.046-5.836-15.714-2.844-30.556-5.531-45.748-5.531-14.911,0-29.259,2.643-44.449,5.44C2956.536,2953.853,2940.177,2956.866,2922.553,2956.866Z" transform="translate(2832.039 787.959)"/>
        <path id="路径_421-4" data-name="路径 421" class="cls-3" d="M2922.553,2956.866h-.587c-17.889-.068-35.008-3.134-51.563-6.1-15.235-2.728-29.6-5.295-43.164-5.269-13.809.037-29.076,2.694-45.24,5.507-16.552,2.881-33.667,5.86-49.592,5.86-16.056,0-33.575-3.025-50.518-5.95-16.075-2.776-31.259-5.4-44.3-5.417h-.139c-13.117,0-29.227,2.782-44.811,5.473-16.854,2.91-34.281,5.936-49.853,5.894-15.58-.026-33.159-3.029-50.159-5.934-16.354-2.794-31.8-5.433-44.623-5.433-12.905,0-29.38,2.8-45.313,5.51-16.94,2.88-34.456,5.858-49.415,5.858h-.082c-15.216-.011-33.54-3.07-51.26-6.029-16.445-2.745-31.977-5.338-43.533-5.338a199.457,199.457,0,0,0-44.5,5.313l-5.792-22.259a221.244,221.244,0,0,1,50.3-6.054c13.462,0,29.909,2.746,47.32,5.653,16.8,2.8,34.171,5.7,47.49,5.715h.065c13.018,0,29.56-2.812,45.559-5.532,16.874-2.869,34.322-5.835,49.168-5.835,14.771,0,31.916,2.929,48.5,5.762,16.064,2.745,32.675,5.583,46.324,5.605h.161c13.549,0,29.912-2.826,45.74-5.559,16.6-2.867,33.786-5.851,48.9-5.809,15,.023,31.865,2.935,48.179,5.752,15.988,2.761,32.52,5.615,46.6,5.615,13.938,0,30.058-2.806,45.648-5.519,16.4-2.854,33.357-5.806,49.123-5.848,15.6-.052,31.71,2.841,47.279,5.629,15.588,2.791,31.707,5.677,47.6,5.738,15.711.059,30.489-2.663,46.142-5.546,15.537-2.862,31.6-5.821,48.615-5.821,17.258,0,33.824,3,49.845,5.9,15.507,2.807,30.154,5.459,44.963,5.468,14.922,0,29.684-2.665,45.351-5.5,15.968-2.886,32.48-5.87,49.443-5.871s33.439,2.979,49.376,5.86c15.662,2.832,30.456,5.507,45.426,5.507,14.911,0,29.564-2.659,45.078-5.474,15.961-2.9,32.466-5.891,49.722-5.893h.016c17.183,0,33.494,2.976,49.268,5.854,15.543,2.835,30.223,5.514,45.519,5.514,29.471,0,43.229-4.9,43.364-4.952l8.162,21.5c-1.718.66-17.755,6.449-51.526,6.449-17.376,0-33.781-2.993-49.646-5.887-15.446-2.818-30.039-5.48-45.139-5.48h-.014c-15.188,0-29.969,2.684-45.619,5.524-15.832,2.873-32.2,5.844-49.184,5.844-17.033,0-33.548-2.986-49.519-5.874-15.626-2.825-30.385-5.494-45.282-5.493s-29.693,2.674-45.353,5.5c-15.949,2.883-32.441,5.863-49.364,5.863h-.093c-16.867-.011-33.226-2.972-49.046-5.836-15.714-2.844-30.556-5.531-45.748-5.531-14.911,0-29.259,2.643-44.449,5.44C2956.536,2953.853,2940.177,2956.866,2922.553,2956.866Z" transform="translate(2448.34 787.959)"/>
        <path id="路径_420-3" data-name="路径 420" class="cls-4" d="M2922.546,2947.866H2922c-17.106-.065-33.834-3.061-50.011-5.957-15.534-2.781-30.214-5.41-44.466-5.41h-.308c-14.575.039-30.936,2.886-46.759,5.641-16.175,2.815-32.9,5.727-48.049,5.727-15.285,0-32.417-2.958-48.986-5.819-7.921-1.368-16.111-2.781-23.846-3.819a169.231,169.231,0,0,0-21.972-1.729h-.155a168.928,168.928,0,0,0-22.11,1.726c-7.863,1.052-16.183,2.489-24.23,3.878-16.407,2.833-33.374,5.763-48.122,5.763h-.185c-14.824-.025-32.025-2.963-48.659-5.805-8.052-1.375-16.378-2.8-24.19-3.84A168.684,168.684,0,0,0,2448,2936.5c-13.665,0-30.521,2.866-46.822,5.637-16.571,2.817-33.706,5.73-47.905,5.73h-.077c-14.473-.011-32.424-3.008-49.784-5.906-16.823-2.809-32.713-5.461-45.015-5.461a205.613,205.613,0,0,0-32.812,2.8c-8.461,1.386-13.905,2.792-13.959,2.806l-1.259-4.839c.228-.059,5.671-1.466,14.34-2.889a213.425,213.425,0,0,1,33.69-2.875c12.716,0,28.805,2.686,45.838,5.53,17.16,2.865,34.9,5.827,48.965,5.837h.073c13.778,0,30.7-2.877,47.067-5.66,16.505-2.806,33.573-5.708,47.659-5.708a173.458,173.458,0,0,1,22.61,1.766c7.9,1.054,16.275,2.484,24.371,3.867,16.43,2.807,33.42,5.71,47.825,5.734h.177c14.32,0,31.07-2.893,47.27-5.69,16.164-2.792,32.877-5.677,47.193-5.677h.16a174.007,174.007,0,0,1,22.629,1.773c7.829,1.05,16.066,2.472,24.032,3.848,16.361,2.825,33.28,5.746,48.136,5.746,14.716,0,31.225-2.874,47.191-5.653,16.029-2.79,32.6-5.675,47.6-5.715h.323c14.7,0,29.586,2.667,45.346,5.489,15.967,2.859,32.477,5.815,49.148,5.879h.525a176.427,176.427,0,0,0,23.67-1.739c7.949-1.073,15.911-2.539,23.611-3.958,7.555-1.391,15.366-2.83,23.145-3.893a175.661,175.661,0,0,1,23.84-1.779c16.449,0,32.612,2.926,48.242,5.755,7.641,1.383,15.543,2.813,23.307,3.865a174.056,174.056,0,0,0,23.254,1.748h.082a174.442,174.442,0,0,0,23.349-1.747c7.838-1.058,15.813-2.5,23.526-3.893,15.578-2.815,31.686-5.727,47.843-5.727s32.228,2.906,47.774,5.717c7.708,1.394,15.677,2.834,23.524,3.894a157.7,157.7,0,0,0,46.858.012c7.782-1.053,15.686-2.487,23.33-3.874,15.57-2.825,31.67-5.747,48.116-5.749h.015c16.369,0,32.272,2.9,47.652,5.707,7.649,1.4,15.559,2.839,23.4,3.9a176.564,176.564,0,0,0,23.729,1.76,235.343,235.343,0,0,0,35.9-2.472,90.268,90.268,0,0,0,11.814-2.471l1.517,4.764a91.84,91.84,0,0,1-12.377,2.618,239.823,239.823,0,0,1-36.853,2.561c-16.562,0-32.56-2.919-48.031-5.741-7.614-1.389-15.487-2.825-23.272-3.88a174.607,174.607,0,0,0-23.482-1.746h-.016a176.965,176.965,0,0,0-23.7,1.764c-7.871,1.063-15.831,2.508-23.528,3.9-15.44,2.8-31.406,5.7-47.577,5.7-16.226,0-32.337-2.913-47.917-5.73-7.693-1.391-15.648-2.829-23.471-3.886a157.395,157.395,0,0,0-46.853,0c-7.837,1.059-15.806,2.5-23.513,3.892-15.559,2.812-31.647,5.719-47.764,5.719h-.086c-16.062-.01-32.018-2.9-47.448-5.692-7.726-1.4-15.716-2.845-23.611-3.91a177.434,177.434,0,0,0-23.74-1.766,170.793,170.793,0,0,0-23.163,1.733c-7.664,1.047-15.417,2.475-22.916,3.856C2955.3,2944.928,2939.354,2947.866,2922.546,2947.866Z" transform="translate(2449.34 778.039)"/>
        <path id="路径_419-3" data-name="路径 419" class="cls-4" d="M2922.546,2947.866H2922c-17.106-.065-33.834-3.061-50.011-5.957-15.534-2.781-30.214-5.41-44.466-5.41h-.308c-14.575.039-30.936,2.886-46.759,5.641-16.175,2.815-32.9,5.727-48.049,5.727-15.285,0-32.417-2.958-48.986-5.819-7.921-1.368-16.111-2.781-23.846-3.819a169.231,169.231,0,0,0-21.972-1.729h-.155a168.928,168.928,0,0,0-22.11,1.726c-7.863,1.052-16.183,2.489-24.23,3.878-16.407,2.833-33.374,5.763-48.122,5.763h-.185c-14.824-.025-32.025-2.963-48.658-5.805-8.052-1.375-16.378-2.8-24.19-3.84A168.684,168.684,0,0,0,2448,2936.5c-13.665,0-30.521,2.866-46.822,5.637-16.571,2.817-33.706,5.73-47.905,5.73h-.077c-14.473-.011-32.424-3.008-49.784-5.906-16.823-2.809-32.713-5.461-45.015-5.461a205.613,205.613,0,0,0-32.812,2.8c-8.461,1.386-13.905,2.792-13.959,2.806l-1.259-4.839c.228-.059,5.671-1.466,14.34-2.889a213.425,213.425,0,0,1,33.69-2.875c12.716,0,28.805,2.686,45.838,5.53,17.16,2.865,34.9,5.827,48.965,5.837h.073c13.778,0,30.7-2.877,47.067-5.659,16.505-2.806,33.573-5.708,47.659-5.708a173.458,173.458,0,0,1,22.61,1.766c7.9,1.054,16.275,2.484,24.371,3.867,16.43,2.807,33.42,5.71,47.825,5.734h.177c14.32,0,31.07-2.893,47.27-5.69,16.164-2.792,32.877-5.677,47.193-5.677h.16a174.014,174.014,0,0,1,22.629,1.773c7.829,1.05,16.066,2.472,24.032,3.848,16.361,2.825,33.28,5.746,48.136,5.746,14.716,0,31.225-2.874,47.191-5.653,16.029-2.79,32.6-5.675,47.6-5.715h.323c14.7,0,29.586,2.667,45.346,5.489,15.967,2.859,32.477,5.815,49.148,5.879h.525a176.427,176.427,0,0,0,23.67-1.739c7.949-1.073,15.911-2.539,23.611-3.958,7.555-1.391,15.366-2.83,23.145-3.893a175.658,175.658,0,0,1,23.84-1.779c16.449,0,32.612,2.926,48.242,5.755,7.641,1.383,15.543,2.813,23.307,3.865a174.056,174.056,0,0,0,23.254,1.748h.082a174.442,174.442,0,0,0,23.349-1.747c7.838-1.058,15.813-2.5,23.526-3.893,15.578-2.815,31.686-5.727,47.843-5.727s32.228,2.906,47.774,5.717c7.708,1.394,15.677,2.834,23.524,3.894a157.7,157.7,0,0,0,46.858.012c7.782-1.053,15.686-2.487,23.33-3.874,15.57-2.825,31.669-5.747,48.116-5.749h.015c16.369,0,32.272,2.9,47.652,5.707,7.649,1.4,15.559,2.839,23.4,3.9a176.564,176.564,0,0,0,23.729,1.76,233.05,233.05,0,0,0,35.871-2.491,89.187,89.187,0,0,0,11.792-2.49l1.532,4.76a90.809,90.809,0,0,1-12.36,2.64,237.5,237.5,0,0,1-36.835,2.582c-16.562,0-32.56-2.919-48.031-5.741-7.614-1.389-15.487-2.825-23.272-3.88a174.609,174.609,0,0,0-23.482-1.746h-.016a176.965,176.965,0,0,0-23.7,1.764c-7.871,1.063-15.831,2.508-23.528,3.9-15.44,2.8-31.406,5.7-47.577,5.7-16.226,0-32.337-2.913-47.917-5.73-7.693-1.391-15.648-2.829-23.471-3.886a157.395,157.395,0,0,0-46.853,0c-7.837,1.059-15.806,2.5-23.513,3.892-15.559,2.812-31.647,5.719-47.764,5.719h-.086c-16.062-.01-32.018-2.9-47.448-5.692-7.726-1.4-15.716-2.845-23.611-3.91a177.434,177.434,0,0,0-23.74-1.766,170.793,170.793,0,0,0-23.163,1.733c-7.664,1.047-15.417,2.475-22.916,3.856C2955.3,2944.928,2939.354,2947.866,2922.546,2947.866Z" transform="translate(2449.34 788.117)"/>
        <path id="路径_418-3" data-name="路径 418" class="cls-4" d="M2922.546,2947.866H2922c-17.106-.065-33.834-3.061-50.011-5.957-15.534-2.781-30.214-5.41-44.466-5.41h-.308c-14.575.039-30.936,2.886-46.759,5.641-16.175,2.815-32.9,5.727-48.049,5.727-15.285,0-32.418-2.958-48.986-5.819-7.921-1.368-16.111-2.781-23.846-3.819a169.231,169.231,0,0,0-21.972-1.729h-.155a168.928,168.928,0,0,0-22.11,1.726c-7.863,1.052-16.183,2.489-24.23,3.878-16.408,2.833-33.374,5.763-48.122,5.763h-.185c-14.825-.025-32.025-2.963-48.659-5.805-8.052-1.375-16.378-2.8-24.189-3.84A168.694,168.694,0,0,0,2448,2936.5c-13.665,0-30.521,2.866-46.822,5.637-16.571,2.817-33.706,5.73-47.905,5.73h-.077c-14.473-.011-32.424-3.008-49.784-5.906-16.823-2.809-32.713-5.461-45.015-5.461a205.613,205.613,0,0,0-32.812,2.8c-8.461,1.386-13.905,2.792-13.959,2.806l-1.259-4.839c.228-.059,5.671-1.466,14.34-2.889a213.425,213.425,0,0,1,33.69-2.875c12.716,0,28.805,2.686,45.838,5.53,17.16,2.865,34.9,5.827,48.965,5.837h.073c13.778,0,30.7-2.877,47.067-5.66,16.505-2.806,33.573-5.708,47.659-5.708a173.458,173.458,0,0,1,22.61,1.766c7.9,1.054,16.275,2.484,24.371,3.867,16.431,2.807,33.42,5.71,47.825,5.734h.177c14.32,0,31.07-2.893,47.27-5.69,16.164-2.792,32.877-5.677,47.193-5.677h.16a174.007,174.007,0,0,1,22.629,1.773c7.829,1.05,16.066,2.472,24.033,3.848,16.361,2.825,33.279,5.746,48.135,5.746,14.716,0,31.225-2.874,47.191-5.653,16.029-2.79,32.6-5.675,47.6-5.715h.323c14.7,0,29.587,2.667,45.346,5.489,15.966,2.859,32.477,5.815,49.148,5.879h.525a176.427,176.427,0,0,0,23.67-1.739c7.949-1.073,15.911-2.539,23.611-3.958,7.554-1.391,15.366-2.83,23.145-3.893a175.658,175.658,0,0,1,23.84-1.779c16.449,0,32.612,2.926,48.242,5.755,7.641,1.383,15.542,2.813,23.307,3.865a174.056,174.056,0,0,0,23.254,1.748h.082a174.448,174.448,0,0,0,23.349-1.747c7.837-1.058,15.813-2.5,23.526-3.893,15.578-2.815,31.686-5.727,47.842-5.727s32.228,2.906,47.774,5.717c7.708,1.394,15.677,2.834,23.524,3.894a157.7,157.7,0,0,0,46.858.012c7.782-1.053,15.686-2.487,23.33-3.874,15.57-2.825,31.67-5.747,48.117-5.749h.015c16.369,0,32.272,2.9,47.652,5.707,7.649,1.4,15.559,2.839,23.4,3.9a176.6,176.6,0,0,0,23.729,1.76,239.563,239.563,0,0,0,37.162-2.711,112.04,112.04,0,0,0,13.047-2.711l1.443,4.787a113.457,113.457,0,0,1-13.564,2.839c-5.088.812-10.528,1.459-16.168,1.923-7.039.579-14.414.872-21.921.872-16.562,0-32.56-2.919-48.031-5.741-7.614-1.389-15.487-2.825-23.273-3.88a174.6,174.6,0,0,0-23.482-1.746h-.016a176.965,176.965,0,0,0-23.7,1.764c-7.871,1.063-15.831,2.508-23.528,3.9-15.44,2.8-31.406,5.7-47.577,5.7-16.226,0-32.337-2.913-47.917-5.73-7.693-1.391-15.648-2.829-23.471-3.886a157.395,157.395,0,0,0-46.853,0c-7.837,1.059-15.806,2.5-23.513,3.892-15.559,2.812-31.647,5.719-47.764,5.719h-.086c-16.062-.01-32.018-2.9-47.448-5.692-7.726-1.4-15.716-2.845-23.611-3.91a177.437,177.437,0,0,0-23.74-1.766,170.793,170.793,0,0,0-23.163,1.733c-7.664,1.047-15.417,2.475-22.916,3.856C2955.3,2944.928,2939.354,2947.866,2922.546,2947.866Z" transform="translate(2449.155 797.878)"/>
        <g id="组_517-2" data-name="组 517" transform="translate(2545.226 32.64)">
          <path id="路径_420-4" data-name="路径 420" class="cls-4" d="M2922.546,2947.866H2922c-17.106-.065-33.834-3.061-50.011-5.957-15.534-2.781-30.214-5.41-44.466-5.41h-.308c-14.575.039-30.937,2.886-46.76,5.641-16.175,2.815-32.9,5.727-48.049,5.727-15.285,0-32.417-2.958-48.986-5.819-7.921-1.368-16.111-2.781-23.846-3.819a169.227,169.227,0,0,0-21.972-1.729h-.155a168.932,168.932,0,0,0-22.11,1.726c-7.863,1.052-16.184,2.489-24.23,3.878-16.408,2.833-33.374,5.763-48.121,5.763h-.185c-14.825-.025-32.025-2.963-48.659-5.805-8.052-1.375-16.378-2.8-24.19-3.84A168.684,168.684,0,0,0,2448,2936.5c-13.665,0-30.521,2.866-46.821,5.637-16.571,2.817-33.706,5.73-47.905,5.73h-.077c-14.473-.011-32.424-3.008-49.784-5.906-16.823-2.809-32.713-5.461-45.015-5.461a235.884,235.884,0,0,0-32.945,2.456c-8.509,1.217-14,2.45-14.052,2.462l-1.1-4.876c.229-.052,5.7-1.281,14.387-2.526a244.1,244.1,0,0,1,33.713-2.515c12.716,0,28.8,2.686,45.838,5.53,17.16,2.865,34.9,5.827,48.965,5.837h.073c13.778,0,30.7-2.877,47.067-5.66,16.505-2.806,33.573-5.708,47.659-5.708a173.458,173.458,0,0,1,22.61,1.766c7.9,1.054,16.275,2.484,24.371,3.867,16.43,2.807,33.42,5.71,47.825,5.734h.177c14.32,0,31.069-2.893,47.27-5.69,16.164-2.792,32.876-5.677,47.193-5.677h.16a174.007,174.007,0,0,1,22.629,1.773c7.829,1.05,16.066,2.472,24.032,3.848,16.361,2.825,33.28,5.746,48.136,5.746,14.716,0,31.225-2.874,47.191-5.653,16.029-2.79,32.6-5.675,47.6-5.715h.323c14.7,0,29.586,2.667,45.346,5.489,15.966,2.859,32.477,5.815,49.148,5.879h.525a176.427,176.427,0,0,0,23.67-1.739c7.949-1.073,15.911-2.539,23.611-3.958,7.554-1.391,15.366-2.83,23.145-3.893a175.661,175.661,0,0,1,23.84-1.779c16.449,0,32.612,2.926,48.242,5.755,7.641,1.383,15.543,2.813,23.307,3.865a174.059,174.059,0,0,0,23.254,1.748h.082a174.448,174.448,0,0,0,23.349-1.747c7.837-1.058,15.813-2.5,23.526-3.893,15.578-2.815,31.686-5.727,47.842-5.727s32.228,2.906,47.774,5.717c7.707,1.394,15.677,2.834,23.524,3.894a157.7,157.7,0,0,0,46.858.012c7.782-1.053,15.686-2.487,23.33-3.874,15.57-2.825,31.67-5.747,48.117-5.749h.016c16.369,0,32.272,2.9,47.652,5.707,7.649,1.4,15.559,2.839,23.4,3.9a176.564,176.564,0,0,0,23.729,1.76,200.256,200.256,0,0,0,35.257-2.76,71.467,71.467,0,0,0,11.251-2.758l1.79,4.669a73.289,73.289,0,0,1-11.918,2.968c-4.588.839-9.633,1.506-14.992,1.985-6.679.6-13.874.9-21.387.9-16.562,0-32.56-2.919-48.031-5.741-7.614-1.389-15.487-2.825-23.272-3.88a174.6,174.6,0,0,0-23.482-1.746h-.016a176.965,176.965,0,0,0-23.7,1.764c-7.871,1.063-15.831,2.508-23.528,3.9-15.44,2.8-31.406,5.7-47.577,5.7-16.226,0-32.337-2.913-47.917-5.73-7.693-1.391-15.649-2.829-23.471-3.886a157.395,157.395,0,0,0-46.853,0c-7.837,1.059-15.806,2.5-23.513,3.892-15.56,2.812-31.648,5.719-47.764,5.719h-.086c-16.062-.01-32.018-2.9-47.448-5.692-7.726-1.4-15.716-2.845-23.612-3.91a177.428,177.428,0,0,0-23.74-1.766,170.79,170.79,0,0,0-23.163,1.733c-7.664,1.047-15.417,2.475-22.916,3.856C2955.3,2944.928,2939.354,2947.866,2922.546,2947.866Z" transform="translate(287.813 745.399)"/>
        </g>
        <path id="路径_419-4" data-name="路径 419" class="cls-4" d="M2922.546,2947.866H2922c-17.106-.065-33.834-3.061-50.011-5.957-15.534-2.781-30.214-5.41-44.466-5.41h-.308c-14.575.039-30.936,2.886-46.759,5.641-16.175,2.815-32.9,5.727-48.049,5.727-15.285,0-32.418-2.958-48.987-5.819-7.92-1.368-16.111-2.781-23.846-3.819a169.231,169.231,0,0,0-21.972-1.729h-.155a168.928,168.928,0,0,0-22.11,1.726c-7.863,1.052-16.183,2.489-24.23,3.878-16.408,2.833-33.374,5.763-48.122,5.763h-.185c-14.825-.025-32.025-2.963-48.659-5.805-8.052-1.375-16.378-2.8-24.189-3.84A168.694,168.694,0,0,0,2448,2936.5c-13.665,0-30.521,2.866-46.822,5.637-16.571,2.817-33.706,5.73-47.905,5.73h-.077c-14.473-.011-32.424-3.008-49.784-5.906-16.823-2.809-32.713-5.461-45.015-5.461a236.453,236.453,0,0,0-32.944,2.45c-8.508,1.213-14,2.443-14.05,2.456l-1.1-4.877c.229-.052,5.694-1.278,14.385-2.52a244.657,244.657,0,0,1,33.711-2.509c12.716,0,28.805,2.686,45.838,5.53,17.16,2.865,34.9,5.827,48.965,5.837h.073c13.778,0,30.7-2.877,47.067-5.66,16.505-2.806,33.573-5.708,47.659-5.708a173.458,173.458,0,0,1,22.61,1.766c7.9,1.054,16.275,2.484,24.371,3.867,16.431,2.807,33.42,5.71,47.825,5.734h.177c14.32,0,31.07-2.893,47.27-5.69,16.164-2.792,32.877-5.677,47.193-5.677h.16a174.007,174.007,0,0,1,22.629,1.773c7.829,1.05,16.066,2.472,24.033,3.848,16.361,2.825,33.279,5.746,48.135,5.746,14.716,0,31.225-2.874,47.191-5.653,16.029-2.79,32.6-5.675,47.6-5.715h.323c14.7,0,29.587,2.667,45.346,5.489,15.966,2.859,32.477,5.815,49.148,5.879h.525a176.427,176.427,0,0,0,23.67-1.739c7.949-1.073,15.911-2.539,23.611-3.958,7.554-1.391,15.366-2.83,23.145-3.893a175.658,175.658,0,0,1,23.84-1.779c16.449,0,32.612,2.926,48.242,5.755,7.641,1.383,15.542,2.813,23.307,3.865a174.056,174.056,0,0,0,23.254,1.748h.082a174.448,174.448,0,0,0,23.349-1.747c7.837-1.058,15.813-2.5,23.526-3.893,15.578-2.815,31.686-5.727,47.842-5.727s32.228,2.906,47.774,5.717c7.708,1.394,15.677,2.834,23.524,3.894a157.7,157.7,0,0,0,46.858.012c7.782-1.053,15.686-2.487,23.33-3.874,15.57-2.825,31.67-5.747,48.117-5.749h.015c16.369,0,32.272,2.9,47.652,5.707,7.649,1.4,15.559,2.839,23.4,3.9a176.564,176.564,0,0,0,23.729,1.76,200.256,200.256,0,0,0,35.257-2.76,71.467,71.467,0,0,0,11.251-2.758l1.79,4.669a73.3,73.3,0,0,1-11.918,2.968c-4.588.839-9.633,1.506-14.993,1.985-6.678.6-13.874.9-21.386.9-16.562,0-32.56-2.919-48.031-5.741-7.614-1.389-15.487-2.825-23.273-3.88a174.6,174.6,0,0,0-23.482-1.746h-.016a176.965,176.965,0,0,0-23.7,1.764c-7.871,1.063-15.831,2.508-23.528,3.9-15.44,2.8-31.406,5.7-47.577,5.7-16.226,0-32.337-2.913-47.917-5.73-7.693-1.391-15.648-2.829-23.471-3.886a157.395,157.395,0,0,0-46.853,0c-7.837,1.059-15.806,2.5-23.513,3.892-15.559,2.812-31.648,5.719-47.764,5.719h-.086c-16.062-.01-32.018-2.9-47.448-5.692-7.726-1.4-15.716-2.845-23.611-3.91a177.437,177.437,0,0,0-23.74-1.766,170.793,170.793,0,0,0-23.163,1.733c-7.664,1.047-15.417,2.475-22.916,3.856C2955.3,2944.928,2939.354,2947.866,2922.546,2947.866Z" transform="translate(2833.039 788.117)"/>
        <path id="路径_418-4" data-name="路径 418" class="cls-4" d="M2922.546,2947.866H2922c-17.106-.065-33.834-3.061-50.011-5.957-15.534-2.781-30.214-5.41-44.466-5.41h-.309c-14.575.039-30.936,2.886-46.759,5.641-16.175,2.815-32.9,5.727-48.049,5.727-15.284,0-32.417-2.958-48.986-5.819-7.92-1.367-16.111-2.781-23.846-3.819a169.227,169.227,0,0,0-21.972-1.729h-.155a168.932,168.932,0,0,0-22.11,1.726c-7.863,1.052-16.184,2.489-24.23,3.878-16.408,2.833-33.374,5.763-48.121,5.763h-.185c-14.825-.025-32.025-2.963-48.659-5.805-8.052-1.375-16.378-2.8-24.19-3.84A168.684,168.684,0,0,0,2448,2936.5c-13.665,0-30.521,2.866-46.821,5.637-16.571,2.817-33.706,5.73-47.905,5.73h-.076c-14.474-.011-32.425-3.008-49.785-5.906-16.823-2.809-32.713-5.461-45.015-5.461a235.8,235.8,0,0,0-32.929,2.454c-8.5,1.216-13.982,2.448-14.037,2.46l-1.1-4.877c.228-.052,5.688-1.281,14.372-2.524a243.958,243.958,0,0,1,33.7-2.513c12.716,0,28.8,2.686,45.838,5.53,17.16,2.865,34.9,5.827,48.965,5.837h.073c13.778,0,30.7-2.877,47.067-5.66,16.505-2.806,33.573-5.708,47.659-5.708a173.458,173.458,0,0,1,22.61,1.766c7.9,1.054,16.275,2.484,24.371,3.867,16.43,2.807,33.42,5.71,47.825,5.734h.177c14.32,0,31.069-2.893,47.27-5.69,16.164-2.792,32.876-5.677,47.193-5.677h.16a174.007,174.007,0,0,1,22.629,1.773c7.829,1.05,16.066,2.472,24.032,3.848,16.361,2.825,33.28,5.746,48.136,5.746,14.716,0,31.225-2.874,47.191-5.653,16.029-2.79,32.6-5.675,47.6-5.715h.323c14.7,0,29.586,2.667,45.346,5.489,15.967,2.859,32.477,5.815,49.149,5.879h.525a176.427,176.427,0,0,0,23.67-1.739c7.949-1.073,15.911-2.539,23.611-3.958,7.555-1.391,15.366-2.83,23.145-3.893a175.658,175.658,0,0,1,23.84-1.779c16.449,0,32.612,2.926,48.242,5.755,7.641,1.383,15.543,2.813,23.307,3.865a174.059,174.059,0,0,0,23.253,1.748h.083a174.442,174.442,0,0,0,23.349-1.747c7.838-1.058,15.813-2.5,23.526-3.893,15.578-2.815,31.686-5.727,47.843-5.727s32.228,2.906,47.774,5.717c7.708,1.394,15.677,2.834,23.524,3.894a157.7,157.7,0,0,0,46.858.012c7.782-1.053,15.686-2.487,23.33-3.874,15.57-2.825,31.67-5.747,48.117-5.749h.016c16.369,0,32.272,2.9,47.652,5.707,7.649,1.4,15.559,2.839,23.4,3.9a176.6,176.6,0,0,0,23.729,1.76,200.256,200.256,0,0,0,35.257-2.76,71.467,71.467,0,0,0,11.251-2.758l1.79,4.669a73.289,73.289,0,0,1-11.918,2.968c-4.589.839-9.633,1.506-14.993,1.985-6.679.6-13.874.9-21.387.9-16.562,0-32.56-2.919-48.031-5.741-7.614-1.389-15.487-2.825-23.272-3.88a174.609,174.609,0,0,0-23.482-1.746h-.016a176.967,176.967,0,0,0-23.7,1.764c-7.871,1.063-15.831,2.508-23.528,3.9-15.44,2.8-31.406,5.7-47.577,5.7-16.226,0-32.337-2.913-47.917-5.73-7.693-1.391-15.648-2.829-23.471-3.886a157.395,157.395,0,0,0-46.853,0c-7.837,1.059-15.806,2.5-23.513,3.892-15.56,2.812-31.648,5.719-47.764,5.719h-.086c-16.062-.01-32.018-2.9-47.448-5.692-7.726-1.4-15.716-2.845-23.611-3.91a177.434,177.434,0,0,0-23.74-1.766,170.79,170.79,0,0,0-23.163,1.733c-7.664,1.047-15.417,2.475-22.916,3.856C2955.3,2944.928,2939.354,2947.866,2922.546,2947.866Z" transform="translate(2832.854 797.878)"/>
      </g>
      <g id="组_548" data-name="组 548" transform="translate(0 45.208)">
        <path id="路径_421-5" data-name="路径 421" class="cls-3" d="M2922.553,2956.866h-.587c-17.889-.068-35.008-3.134-51.563-6.1-15.235-2.728-29.6-5.295-43.164-5.269-13.809.037-29.076,2.694-45.24,5.507-16.552,2.881-33.667,5.86-49.592,5.86-16.056,0-33.575-3.025-50.518-5.95-16.075-2.776-31.259-5.4-44.3-5.417h-.139c-13.117,0-29.227,2.782-44.811,5.473-16.854,2.91-34.281,5.936-49.853,5.894-15.58-.026-33.159-3.029-50.159-5.934-16.354-2.794-31.8-5.433-44.623-5.433-12.905,0-29.38,2.8-45.313,5.51-16.94,2.88-34.456,5.858-49.415,5.858h-.082c-15.216-.011-33.54-3.07-51.26-6.029-16.445-2.745-31.977-5.338-43.533-5.338a199.457,199.457,0,0,0-44.5,5.313l-5.792-22.259a221.244,221.244,0,0,1,50.3-6.054c13.462,0,29.909,2.746,47.32,5.653,16.8,2.8,34.171,5.7,47.49,5.715h.065c13.018,0,29.56-2.812,45.559-5.532,16.874-2.869,34.322-5.835,49.168-5.835,14.771,0,31.916,2.929,48.5,5.762,16.064,2.745,32.675,5.583,46.324,5.605h.161c13.549,0,29.912-2.826,45.74-5.559,16.6-2.867,33.786-5.851,48.9-5.809,15,.023,31.865,2.935,48.179,5.752,15.988,2.761,32.52,5.615,46.6,5.615,13.938,0,30.058-2.806,45.648-5.519,16.4-2.854,33.357-5.806,49.123-5.848,15.6-.052,31.71,2.841,47.279,5.629,15.588,2.791,31.707,5.677,47.6,5.738,15.711.059,30.489-2.663,46.142-5.546,15.537-2.862,31.6-5.821,48.615-5.821,17.258,0,33.824,3,49.845,5.9,15.507,2.807,30.154,5.459,44.963,5.468,14.922,0,29.684-2.665,45.351-5.5,15.968-2.886,32.48-5.87,49.443-5.871s33.439,2.979,49.376,5.86c15.662,2.832,30.456,5.507,45.426,5.507,14.911,0,29.564-2.659,45.078-5.474,15.961-2.9,32.466-5.891,49.722-5.893h.016c17.183,0,33.494,2.976,49.268,5.854,15.543,2.835,30.223,5.514,45.519,5.514,29.471,0,43.229-4.9,43.364-4.952l8.162,21.5c-1.718.66-17.755,6.449-51.526,6.449-17.376,0-33.781-2.993-49.646-5.887-15.446-2.818-30.039-5.48-45.139-5.48h-.014c-15.188,0-29.969,2.684-45.619,5.524-15.832,2.873-32.2,5.844-49.184,5.844-17.033,0-33.548-2.986-49.519-5.874-15.626-2.825-30.385-5.494-45.282-5.493s-29.693,2.674-45.353,5.5c-15.949,2.883-32.441,5.863-49.364,5.863h-.093c-16.867-.011-33.226-2.972-49.046-5.836-15.714-2.844-30.556-5.531-45.748-5.531-14.911,0-29.259,2.643-44.449,5.44C2956.536,2953.853,2940.177,2956.866,2922.553,2956.866Z" transform="translate(2832.039 787.959)"/>
        <path id="路径_421-6" data-name="路径 421" class="cls-3" d="M2922.553,2956.866h-.587c-17.889-.068-35.008-3.134-51.563-6.1-15.235-2.728-29.6-5.295-43.164-5.269-13.809.037-29.076,2.694-45.24,5.507-16.552,2.881-33.667,5.86-49.592,5.86-16.056,0-33.575-3.025-50.518-5.95-16.075-2.776-31.259-5.4-44.3-5.417h-.139c-13.117,0-29.227,2.782-44.811,5.473-16.854,2.91-34.281,5.936-49.853,5.894-15.58-.026-33.159-3.029-50.159-5.934-16.354-2.794-31.8-5.433-44.623-5.433-12.905,0-29.38,2.8-45.313,5.51-16.94,2.88-34.456,5.858-49.415,5.858h-.082c-15.216-.011-33.54-3.07-51.26-6.029-16.445-2.745-31.977-5.338-43.533-5.338a199.457,199.457,0,0,0-44.5,5.313l-5.792-22.259a221.244,221.244,0,0,1,50.3-6.054c13.462,0,29.909,2.746,47.32,5.653,16.8,2.8,34.171,5.7,47.49,5.715h.065c13.018,0,29.56-2.812,45.559-5.532,16.874-2.869,34.322-5.835,49.168-5.835,14.771,0,31.916,2.929,48.5,5.762,16.064,2.745,32.675,5.583,46.324,5.605h.161c13.549,0,29.912-2.826,45.74-5.559,16.6-2.867,33.786-5.851,48.9-5.809,15,.023,31.865,2.935,48.179,5.752,15.988,2.761,32.52,5.615,46.6,5.615,13.938,0,30.058-2.806,45.648-5.519,16.4-2.854,33.357-5.806,49.123-5.848,15.6-.052,31.71,2.841,47.279,5.629,15.588,2.791,31.707,5.677,47.6,5.738,15.711.059,30.489-2.663,46.142-5.546,15.537-2.862,31.6-5.821,48.615-5.821,17.258,0,33.824,3,49.845,5.9,15.507,2.807,30.154,5.459,44.963,5.468,14.922,0,29.684-2.665,45.351-5.5,15.968-2.886,32.48-5.87,49.443-5.871s33.439,2.979,49.376,5.86c15.662,2.832,30.456,5.507,45.426,5.507,14.911,0,29.564-2.659,45.078-5.474,15.961-2.9,32.466-5.891,49.722-5.893h.016c17.183,0,33.494,2.976,49.268,5.854,15.543,2.835,30.223,5.514,45.519,5.514,29.471,0,43.229-4.9,43.364-4.952l8.162,21.5c-1.718.66-17.755,6.449-51.526,6.449-17.376,0-33.781-2.993-49.646-5.887-15.446-2.818-30.039-5.48-45.139-5.48h-.014c-15.188,0-29.969,2.684-45.619,5.524-15.832,2.873-32.2,5.844-49.184,5.844-17.033,0-33.548-2.986-49.519-5.874-15.626-2.825-30.385-5.494-45.282-5.493s-29.693,2.674-45.353,5.5c-15.949,2.883-32.441,5.863-49.364,5.863h-.093c-16.867-.011-33.226-2.972-49.046-5.836-15.714-2.844-30.556-5.531-45.748-5.531-14.911,0-29.259,2.643-44.449,5.44C2956.536,2953.853,2940.177,2956.866,2922.553,2956.866Z" transform="translate(2448.34 787.959)"/>
        <path id="路径_420-5" data-name="路径 420" class="cls-4" d="M2922.546,2947.866H2922c-17.106-.065-33.834-3.061-50.011-5.957-15.534-2.781-30.214-5.41-44.466-5.41h-.308c-14.575.039-30.936,2.886-46.759,5.641-16.175,2.815-32.9,5.727-48.049,5.727-15.285,0-32.417-2.958-48.986-5.819-7.921-1.368-16.111-2.781-23.846-3.819a169.231,169.231,0,0,0-21.972-1.729h-.155a168.928,168.928,0,0,0-22.11,1.726c-7.863,1.052-16.183,2.489-24.23,3.878-16.407,2.833-33.374,5.763-48.122,5.763h-.185c-14.824-.025-32.025-2.963-48.659-5.805-8.052-1.375-16.378-2.8-24.19-3.84A168.684,168.684,0,0,0,2448,2936.5c-13.665,0-30.521,2.866-46.822,5.637-16.571,2.817-33.706,5.73-47.905,5.73h-.077c-14.473-.011-32.424-3.008-49.784-5.906-16.823-2.809-32.713-5.461-45.015-5.461a205.613,205.613,0,0,0-32.812,2.8c-8.461,1.386-13.905,2.792-13.959,2.806l-1.259-4.839c.228-.059,5.671-1.466,14.34-2.889a213.425,213.425,0,0,1,33.69-2.875c12.716,0,28.805,2.686,45.838,5.53,17.16,2.865,34.9,5.827,48.965,5.837h.073c13.778,0,30.7-2.877,47.067-5.66,16.505-2.806,33.573-5.708,47.659-5.708a173.458,173.458,0,0,1,22.61,1.766c7.9,1.054,16.275,2.484,24.371,3.867,16.43,2.807,33.42,5.71,47.825,5.734h.177c14.32,0,31.07-2.893,47.27-5.69,16.164-2.792,32.877-5.677,47.193-5.677h.16a174.007,174.007,0,0,1,22.629,1.773c7.829,1.05,16.066,2.472,24.032,3.848,16.361,2.825,33.28,5.746,48.136,5.746,14.716,0,31.225-2.874,47.191-5.653,16.029-2.79,32.6-5.675,47.6-5.715h.323c14.7,0,29.586,2.667,45.346,5.489,15.967,2.859,32.477,5.815,49.148,5.879h.525a176.427,176.427,0,0,0,23.67-1.739c7.949-1.073,15.911-2.539,23.611-3.958,7.555-1.391,15.366-2.83,23.145-3.893a175.661,175.661,0,0,1,23.84-1.779c16.449,0,32.612,2.926,48.242,5.755,7.641,1.383,15.543,2.813,23.307,3.865a174.056,174.056,0,0,0,23.254,1.748h.082a174.442,174.442,0,0,0,23.349-1.747c7.838-1.058,15.813-2.5,23.526-3.893,15.578-2.815,31.686-5.727,47.843-5.727s32.228,2.906,47.774,5.717c7.708,1.394,15.677,2.834,23.524,3.894a157.7,157.7,0,0,0,46.858.012c7.782-1.053,15.686-2.487,23.33-3.874,15.57-2.825,31.67-5.747,48.116-5.749h.015c16.369,0,32.272,2.9,47.652,5.707,7.649,1.4,15.559,2.839,23.4,3.9a176.564,176.564,0,0,0,23.729,1.76,235.343,235.343,0,0,0,35.9-2.472,90.268,90.268,0,0,0,11.814-2.471l1.517,4.764a91.84,91.84,0,0,1-12.377,2.618,239.823,239.823,0,0,1-36.853,2.561c-16.562,0-32.56-2.919-48.031-5.741-7.614-1.389-15.487-2.825-23.272-3.88a174.607,174.607,0,0,0-23.482-1.746h-.016a176.965,176.965,0,0,0-23.7,1.764c-7.871,1.063-15.831,2.508-23.528,3.9-15.44,2.8-31.406,5.7-47.577,5.7-16.226,0-32.337-2.913-47.917-5.73-7.693-1.391-15.648-2.829-23.471-3.886a157.395,157.395,0,0,0-46.853,0c-7.837,1.059-15.806,2.5-23.513,3.892-15.559,2.812-31.647,5.719-47.764,5.719h-.086c-16.062-.01-32.018-2.9-47.448-5.692-7.726-1.4-15.716-2.845-23.611-3.91a177.434,177.434,0,0,0-23.74-1.766,170.793,170.793,0,0,0-23.163,1.733c-7.664,1.047-15.417,2.475-22.916,3.856C2955.3,2944.928,2939.354,2947.866,2922.546,2947.866Z" transform="translate(2449.34 778.039)"/>
        <path id="路径_419-5" data-name="路径 419" class="cls-4" d="M2922.546,2947.866H2922c-17.106-.065-33.834-3.061-50.011-5.957-15.534-2.781-30.214-5.41-44.466-5.41h-.308c-14.575.039-30.936,2.886-46.759,5.641-16.175,2.815-32.9,5.727-48.049,5.727-15.285,0-32.417-2.958-48.986-5.819-7.921-1.368-16.111-2.781-23.846-3.819a169.231,169.231,0,0,0-21.972-1.729h-.155a168.928,168.928,0,0,0-22.11,1.726c-7.863,1.052-16.183,2.489-24.23,3.878-16.407,2.833-33.374,5.763-48.122,5.763h-.185c-14.824-.025-32.025-2.963-48.658-5.805-8.052-1.375-16.378-2.8-24.19-3.84A168.684,168.684,0,0,0,2448,2936.5c-13.665,0-30.521,2.866-46.822,5.637-16.571,2.817-33.706,5.73-47.905,5.73h-.077c-14.473-.011-32.424-3.008-49.784-5.906-16.823-2.809-32.713-5.461-45.015-5.461a205.613,205.613,0,0,0-32.812,2.8c-8.461,1.386-13.905,2.792-13.959,2.806l-1.259-4.839c.228-.059,5.671-1.466,14.34-2.889a213.425,213.425,0,0,1,33.69-2.875c12.716,0,28.805,2.686,45.838,5.53,17.16,2.865,34.9,5.827,48.965,5.837h.073c13.778,0,30.7-2.877,47.067-5.659,16.505-2.806,33.573-5.708,47.659-5.708a173.458,173.458,0,0,1,22.61,1.766c7.9,1.054,16.275,2.484,24.371,3.867,16.43,2.807,33.42,5.71,47.825,5.734h.177c14.32,0,31.07-2.893,47.27-5.69,16.164-2.792,32.877-5.677,47.193-5.677h.16a174.014,174.014,0,0,1,22.629,1.773c7.829,1.05,16.066,2.472,24.032,3.848,16.361,2.825,33.28,5.746,48.136,5.746,14.716,0,31.225-2.874,47.191-5.653,16.029-2.79,32.6-5.675,47.6-5.715h.323c14.7,0,29.586,2.667,45.346,5.489,15.967,2.859,32.477,5.815,49.148,5.879h.525a176.427,176.427,0,0,0,23.67-1.739c7.949-1.073,15.911-2.539,23.611-3.958,7.555-1.391,15.366-2.83,23.145-3.893a175.658,175.658,0,0,1,23.84-1.779c16.449,0,32.612,2.926,48.242,5.755,7.641,1.383,15.543,2.813,23.307,3.865a174.056,174.056,0,0,0,23.254,1.748h.082a174.442,174.442,0,0,0,23.349-1.747c7.838-1.058,15.813-2.5,23.526-3.893,15.578-2.815,31.686-5.727,47.843-5.727s32.228,2.906,47.774,5.717c7.708,1.394,15.677,2.834,23.524,3.894a157.7,157.7,0,0,0,46.858.012c7.782-1.053,15.686-2.487,23.33-3.874,15.57-2.825,31.669-5.747,48.116-5.749h.015c16.369,0,32.272,2.9,47.652,5.707,7.649,1.4,15.559,2.839,23.4,3.9a176.564,176.564,0,0,0,23.729,1.76,233.05,233.05,0,0,0,35.871-2.491,89.187,89.187,0,0,0,11.792-2.49l1.532,4.76a90.809,90.809,0,0,1-12.36,2.64,237.5,237.5,0,0,1-36.835,2.582c-16.562,0-32.56-2.919-48.031-5.741-7.614-1.389-15.487-2.825-23.272-3.88a174.609,174.609,0,0,0-23.482-1.746h-.016a176.965,176.965,0,0,0-23.7,1.764c-7.871,1.063-15.831,2.508-23.528,3.9-15.44,2.8-31.406,5.7-47.577,5.7-16.226,0-32.337-2.913-47.917-5.73-7.693-1.391-15.648-2.829-23.471-3.886a157.395,157.395,0,0,0-46.853,0c-7.837,1.059-15.806,2.5-23.513,3.892-15.559,2.812-31.647,5.719-47.764,5.719h-.086c-16.062-.01-32.018-2.9-47.448-5.692-7.726-1.4-15.716-2.845-23.611-3.91a177.434,177.434,0,0,0-23.74-1.766,170.793,170.793,0,0,0-23.163,1.733c-7.664,1.047-15.417,2.475-22.916,3.856C2955.3,2944.928,2939.354,2947.866,2922.546,2947.866Z" transform="translate(2449.34 788.117)"/>
        <path id="路径_418-5" data-name="路径 418" class="cls-4" d="M2922.546,2947.866H2922c-17.106-.065-33.834-3.061-50.011-5.957-15.534-2.781-30.214-5.41-44.466-5.41h-.308c-14.575.039-30.936,2.886-46.759,5.641-16.175,2.815-32.9,5.727-48.049,5.727-15.285,0-32.418-2.958-48.986-5.819-7.921-1.368-16.111-2.781-23.846-3.819a169.231,169.231,0,0,0-21.972-1.729h-.155a168.928,168.928,0,0,0-22.11,1.726c-7.863,1.052-16.183,2.489-24.23,3.878-16.408,2.833-33.374,5.763-48.122,5.763h-.185c-14.825-.025-32.025-2.963-48.659-5.805-8.052-1.375-16.378-2.8-24.189-3.84A168.694,168.694,0,0,0,2448,2936.5c-13.665,0-30.521,2.866-46.822,5.637-16.571,2.817-33.706,5.73-47.905,5.73h-.077c-14.473-.011-32.424-3.008-49.784-5.906-16.823-2.809-32.713-5.461-45.015-5.461a205.613,205.613,0,0,0-32.812,2.8c-8.461,1.386-13.905,2.792-13.959,2.806l-1.259-4.839c.228-.059,5.671-1.466,14.34-2.889a213.425,213.425,0,0,1,33.69-2.875c12.716,0,28.805,2.686,45.838,5.53,17.16,2.865,34.9,5.827,48.965,5.837h.073c13.778,0,30.7-2.877,47.067-5.66,16.505-2.806,33.573-5.708,47.659-5.708a173.458,173.458,0,0,1,22.61,1.766c7.9,1.054,16.275,2.484,24.371,3.867,16.431,2.807,33.42,5.71,47.825,5.734h.177c14.32,0,31.07-2.893,47.27-5.69,16.164-2.792,32.877-5.677,47.193-5.677h.16a174.007,174.007,0,0,1,22.629,1.773c7.829,1.05,16.066,2.472,24.033,3.848,16.361,2.825,33.279,5.746,48.135,5.746,14.716,0,31.225-2.874,47.191-5.653,16.029-2.79,32.6-5.675,47.6-5.715h.323c14.7,0,29.587,2.667,45.346,5.489,15.966,2.859,32.477,5.815,49.148,5.879h.525a176.427,176.427,0,0,0,23.67-1.739c7.949-1.073,15.911-2.539,23.611-3.958,7.554-1.391,15.366-2.83,23.145-3.893a175.658,175.658,0,0,1,23.84-1.779c16.449,0,32.612,2.926,48.242,5.755,7.641,1.383,15.542,2.813,23.307,3.865a174.056,174.056,0,0,0,23.254,1.748h.082a174.448,174.448,0,0,0,23.349-1.747c7.837-1.058,15.813-2.5,23.526-3.893,15.578-2.815,31.686-5.727,47.842-5.727s32.228,2.906,47.774,5.717c7.708,1.394,15.677,2.834,23.524,3.894a157.7,157.7,0,0,0,46.858.012c7.782-1.053,15.686-2.487,23.33-3.874,15.57-2.825,31.67-5.747,48.117-5.749h.015c16.369,0,32.272,2.9,47.652,5.707,7.649,1.4,15.559,2.839,23.4,3.9a176.6,176.6,0,0,0,23.729,1.76,239.563,239.563,0,0,0,37.162-2.711,112.04,112.04,0,0,0,13.047-2.711l1.443,4.787a113.457,113.457,0,0,1-13.564,2.839c-5.088.812-10.528,1.459-16.168,1.923-7.039.579-14.414.872-21.921.872-16.562,0-32.56-2.919-48.031-5.741-7.614-1.389-15.487-2.825-23.273-3.88a174.6,174.6,0,0,0-23.482-1.746h-.016a176.965,176.965,0,0,0-23.7,1.764c-7.871,1.063-15.831,2.508-23.528,3.9-15.44,2.8-31.406,5.7-47.577,5.7-16.226,0-32.337-2.913-47.917-5.73-7.693-1.391-15.648-2.829-23.471-3.886a157.395,157.395,0,0,0-46.853,0c-7.837,1.059-15.806,2.5-23.513,3.892-15.559,2.812-31.647,5.719-47.764,5.719h-.086c-16.062-.01-32.018-2.9-47.448-5.692-7.726-1.4-15.716-2.845-23.611-3.91a177.437,177.437,0,0,0-23.74-1.766,170.793,170.793,0,0,0-23.163,1.733c-7.664,1.047-15.417,2.475-22.916,3.856C2955.3,2944.928,2939.354,2947.866,2922.546,2947.866Z" transform="translate(2449.155 797.878)"/>
        <g id="组_517-3" data-name="组 517" transform="translate(2545.226 32.64)">
          <path id="路径_420-6" data-name="路径 420" class="cls-4" d="M2922.546,2947.866H2922c-17.106-.065-33.834-3.061-50.011-5.957-15.534-2.781-30.214-5.41-44.466-5.41h-.308c-14.575.039-30.937,2.886-46.76,5.641-16.175,2.815-32.9,5.727-48.049,5.727-15.285,0-32.417-2.958-48.986-5.819-7.921-1.368-16.111-2.781-23.846-3.819a169.227,169.227,0,0,0-21.972-1.729h-.155a168.932,168.932,0,0,0-22.11,1.726c-7.863,1.052-16.184,2.489-24.23,3.878-16.408,2.833-33.374,5.763-48.121,5.763h-.185c-14.825-.025-32.025-2.963-48.659-5.805-8.052-1.375-16.378-2.8-24.19-3.84A168.684,168.684,0,0,0,2448,2936.5c-13.665,0-30.521,2.866-46.821,5.637-16.571,2.817-33.706,5.73-47.905,5.73h-.077c-14.473-.011-32.424-3.008-49.784-5.906-16.823-2.809-32.713-5.461-45.015-5.461a235.884,235.884,0,0,0-32.945,2.456c-8.509,1.217-14,2.45-14.052,2.462l-1.1-4.876c.229-.052,5.7-1.281,14.387-2.526a244.1,244.1,0,0,1,33.713-2.515c12.716,0,28.8,2.686,45.838,5.53,17.16,2.865,34.9,5.827,48.965,5.837h.073c13.778,0,30.7-2.877,47.067-5.66,16.505-2.806,33.573-5.708,47.659-5.708a173.458,173.458,0,0,1,22.61,1.766c7.9,1.054,16.275,2.484,24.371,3.867,16.43,2.807,33.42,5.71,47.825,5.734h.177c14.32,0,31.069-2.893,47.27-5.69,16.164-2.792,32.876-5.677,47.193-5.677h.16a174.007,174.007,0,0,1,22.629,1.773c7.829,1.05,16.066,2.472,24.032,3.848,16.361,2.825,33.28,5.746,48.136,5.746,14.716,0,31.225-2.874,47.191-5.653,16.029-2.79,32.6-5.675,47.6-5.715h.323c14.7,0,29.586,2.667,45.346,5.489,15.966,2.859,32.477,5.815,49.148,5.879h.525a176.427,176.427,0,0,0,23.67-1.739c7.949-1.073,15.911-2.539,23.611-3.958,7.554-1.391,15.366-2.83,23.145-3.893a175.661,175.661,0,0,1,23.84-1.779c16.449,0,32.612,2.926,48.242,5.755,7.641,1.383,15.543,2.813,23.307,3.865a174.059,174.059,0,0,0,23.254,1.748h.082a174.448,174.448,0,0,0,23.349-1.747c7.837-1.058,15.813-2.5,23.526-3.893,15.578-2.815,31.686-5.727,47.842-5.727s32.228,2.906,47.774,5.717c7.707,1.394,15.677,2.834,23.524,3.894a157.7,157.7,0,0,0,46.858.012c7.782-1.053,15.686-2.487,23.33-3.874,15.57-2.825,31.67-5.747,48.117-5.749h.016c16.369,0,32.272,2.9,47.652,5.707,7.649,1.4,15.559,2.839,23.4,3.9a176.564,176.564,0,0,0,23.729,1.76,200.256,200.256,0,0,0,35.257-2.76,71.467,71.467,0,0,0,11.251-2.758l1.79,4.669a73.289,73.289,0,0,1-11.918,2.968c-4.588.839-9.633,1.506-14.992,1.985-6.679.6-13.874.9-21.387.9-16.562,0-32.56-2.919-48.031-5.741-7.614-1.389-15.487-2.825-23.272-3.88a174.6,174.6,0,0,0-23.482-1.746h-.016a176.965,176.965,0,0,0-23.7,1.764c-7.871,1.063-15.831,2.508-23.528,3.9-15.44,2.8-31.406,5.7-47.577,5.7-16.226,0-32.337-2.913-47.917-5.73-7.693-1.391-15.649-2.829-23.471-3.886a157.395,157.395,0,0,0-46.853,0c-7.837,1.059-15.806,2.5-23.513,3.892-15.56,2.812-31.648,5.719-47.764,5.719h-.086c-16.062-.01-32.018-2.9-47.448-5.692-7.726-1.4-15.716-2.845-23.612-3.91a177.428,177.428,0,0,0-23.74-1.766,170.79,170.79,0,0,0-23.163,1.733c-7.664,1.047-15.417,2.475-22.916,3.856C2955.3,2944.928,2939.354,2947.866,2922.546,2947.866Z" transform="translate(287.813 745.399)"/>
        </g>
        <path id="路径_419-6" data-name="路径 419" class="cls-4" d="M2922.546,2947.866H2922c-17.106-.065-33.834-3.061-50.011-5.957-15.534-2.781-30.214-5.41-44.466-5.41h-.308c-14.575.039-30.936,2.886-46.759,5.641-16.175,2.815-32.9,5.727-48.049,5.727-15.285,0-32.418-2.958-48.987-5.819-7.92-1.368-16.111-2.781-23.846-3.819a169.231,169.231,0,0,0-21.972-1.729h-.155a168.928,168.928,0,0,0-22.11,1.726c-7.863,1.052-16.183,2.489-24.23,3.878-16.408,2.833-33.374,5.763-48.122,5.763h-.185c-14.825-.025-32.025-2.963-48.659-5.805-8.052-1.375-16.378-2.8-24.189-3.84A168.694,168.694,0,0,0,2448,2936.5c-13.665,0-30.521,2.866-46.822,5.637-16.571,2.817-33.706,5.73-47.905,5.73h-.077c-14.473-.011-32.424-3.008-49.784-5.906-16.823-2.809-32.713-5.461-45.015-5.461a236.453,236.453,0,0,0-32.944,2.45c-8.508,1.213-14,2.443-14.05,2.456l-1.1-4.877c.229-.052,5.694-1.278,14.385-2.52a244.657,244.657,0,0,1,33.711-2.509c12.716,0,28.805,2.686,45.838,5.53,17.16,2.865,34.9,5.827,48.965,5.837h.073c13.778,0,30.7-2.877,47.067-5.66,16.505-2.806,33.573-5.708,47.659-5.708a173.458,173.458,0,0,1,22.61,1.766c7.9,1.054,16.275,2.484,24.371,3.867,16.431,2.807,33.42,5.71,47.825,5.734h.177c14.32,0,31.07-2.893,47.27-5.69,16.164-2.792,32.877-5.677,47.193-5.677h.16a174.007,174.007,0,0,1,22.629,1.773c7.829,1.05,16.066,2.472,24.033,3.848,16.361,2.825,33.279,5.746,48.135,5.746,14.716,0,31.225-2.874,47.191-5.653,16.029-2.79,32.6-5.675,47.6-5.715h.323c14.7,0,29.587,2.667,45.346,5.489,15.966,2.859,32.477,5.815,49.148,5.879h.525a176.427,176.427,0,0,0,23.67-1.739c7.949-1.073,15.911-2.539,23.611-3.958,7.554-1.391,15.366-2.83,23.145-3.893a175.658,175.658,0,0,1,23.84-1.779c16.449,0,32.612,2.926,48.242,5.755,7.641,1.383,15.542,2.813,23.307,3.865a174.056,174.056,0,0,0,23.254,1.748h.082a174.448,174.448,0,0,0,23.349-1.747c7.837-1.058,15.813-2.5,23.526-3.893,15.578-2.815,31.686-5.727,47.842-5.727s32.228,2.906,47.774,5.717c7.708,1.394,15.677,2.834,23.524,3.894a157.7,157.7,0,0,0,46.858.012c7.782-1.053,15.686-2.487,23.33-3.874,15.57-2.825,31.67-5.747,48.117-5.749h.015c16.369,0,32.272,2.9,47.652,5.707,7.649,1.4,15.559,2.839,23.4,3.9a176.564,176.564,0,0,0,23.729,1.76,200.256,200.256,0,0,0,35.257-2.76,71.467,71.467,0,0,0,11.251-2.758l1.79,4.669a73.3,73.3,0,0,1-11.918,2.968c-4.588.839-9.633,1.506-14.993,1.985-6.678.6-13.874.9-21.386.9-16.562,0-32.56-2.919-48.031-5.741-7.614-1.389-15.487-2.825-23.273-3.88a174.6,174.6,0,0,0-23.482-1.746h-.016a176.965,176.965,0,0,0-23.7,1.764c-7.871,1.063-15.831,2.508-23.528,3.9-15.44,2.8-31.406,5.7-47.577,5.7-16.226,0-32.337-2.913-47.917-5.73-7.693-1.391-15.648-2.829-23.471-3.886a157.395,157.395,0,0,0-46.853,0c-7.837,1.059-15.806,2.5-23.513,3.892-15.559,2.812-31.648,5.719-47.764,5.719h-.086c-16.062-.01-32.018-2.9-47.448-5.692-7.726-1.4-15.716-2.845-23.611-3.91a177.437,177.437,0,0,0-23.74-1.766,170.793,170.793,0,0,0-23.163,1.733c-7.664,1.047-15.417,2.475-22.916,3.856C2955.3,2944.928,2939.354,2947.866,2922.546,2947.866Z" transform="translate(2833.039 788.117)"/>
        <path id="路径_418-6" data-name="路径 418" class="cls-4" d="M2922.546,2947.866H2922c-17.106-.065-33.834-3.061-50.011-5.957-15.534-2.781-30.214-5.41-44.466-5.41h-.309c-14.575.039-30.936,2.886-46.759,5.641-16.175,2.815-32.9,5.727-48.049,5.727-15.284,0-32.417-2.958-48.986-5.819-7.92-1.367-16.111-2.781-23.846-3.819a169.227,169.227,0,0,0-21.972-1.729h-.155a168.932,168.932,0,0,0-22.11,1.726c-7.863,1.052-16.184,2.489-24.23,3.878-16.408,2.833-33.374,5.763-48.121,5.763h-.185c-14.825-.025-32.025-2.963-48.659-5.805-8.052-1.375-16.378-2.8-24.19-3.84A168.684,168.684,0,0,0,2448,2936.5c-13.665,0-30.521,2.866-46.821,5.637-16.571,2.817-33.706,5.73-47.905,5.73h-.076c-14.474-.011-32.425-3.008-49.785-5.906-16.823-2.809-32.713-5.461-45.015-5.461a235.8,235.8,0,0,0-32.929,2.454c-8.5,1.216-13.982,2.448-14.037,2.46l-1.1-4.877c.228-.052,5.688-1.281,14.372-2.524a243.958,243.958,0,0,1,33.7-2.513c12.716,0,28.8,2.686,45.838,5.53,17.16,2.865,34.9,5.827,48.965,5.837h.073c13.778,0,30.7-2.877,47.067-5.66,16.505-2.806,33.573-5.708,47.659-5.708a173.458,173.458,0,0,1,22.61,1.766c7.9,1.054,16.275,2.484,24.371,3.867,16.43,2.807,33.42,5.71,47.825,5.734h.177c14.32,0,31.069-2.893,47.27-5.69,16.164-2.792,32.876-5.677,47.193-5.677h.16a174.007,174.007,0,0,1,22.629,1.773c7.829,1.05,16.066,2.472,24.032,3.848,16.361,2.825,33.28,5.746,48.136,5.746,14.716,0,31.225-2.874,47.191-5.653,16.029-2.79,32.6-5.675,47.6-5.715h.323c14.7,0,29.586,2.667,45.346,5.489,15.967,2.859,32.477,5.815,49.149,5.879h.525a176.427,176.427,0,0,0,23.67-1.739c7.949-1.073,15.911-2.539,23.611-3.958,7.555-1.391,15.366-2.83,23.145-3.893a175.658,175.658,0,0,1,23.84-1.779c16.449,0,32.612,2.926,48.242,5.755,7.641,1.383,15.543,2.813,23.307,3.865a174.059,174.059,0,0,0,23.253,1.748h.083a174.442,174.442,0,0,0,23.349-1.747c7.838-1.058,15.813-2.5,23.526-3.893,15.578-2.815,31.686-5.727,47.843-5.727s32.228,2.906,47.774,5.717c7.708,1.394,15.677,2.834,23.524,3.894a157.7,157.7,0,0,0,46.858.012c7.782-1.053,15.686-2.487,23.33-3.874,15.57-2.825,31.67-5.747,48.117-5.749h.016c16.369,0,32.272,2.9,47.652,5.707,7.649,1.4,15.559,2.839,23.4,3.9a176.6,176.6,0,0,0,23.729,1.76,200.256,200.256,0,0,0,35.257-2.76,71.467,71.467,0,0,0,11.251-2.758l1.79,4.669a73.289,73.289,0,0,1-11.918,2.968c-4.589.839-9.633,1.506-14.993,1.985-6.679.6-13.874.9-21.387.9-16.562,0-32.56-2.919-48.031-5.741-7.614-1.389-15.487-2.825-23.272-3.88a174.609,174.609,0,0,0-23.482-1.746h-.016a176.967,176.967,0,0,0-23.7,1.764c-7.871,1.063-15.831,2.508-23.528,3.9-15.44,2.8-31.406,5.7-47.577,5.7-16.226,0-32.337-2.913-47.917-5.73-7.693-1.391-15.648-2.829-23.471-3.886a157.395,157.395,0,0,0-46.853,0c-7.837,1.059-15.806,2.5-23.513,3.892-15.56,2.812-31.648,5.719-47.764,5.719h-.086c-16.062-.01-32.018-2.9-47.448-5.692-7.726-1.4-15.716-2.845-23.611-3.91a177.434,177.434,0,0,0-23.74-1.766,170.79,170.79,0,0,0-23.163,1.733c-7.664,1.047-15.417,2.475-22.916,3.856C2955.3,2944.928,2939.354,2947.866,2922.546,2947.866Z" transform="translate(2832.854 797.878)"/>
      </g>
      <g id="组_549" data-name="组 549" transform="translate(-95 67.208)">
        <path id="路径_421-7" data-name="路径 421" class="cls-3" d="M2922.553,2956.866h-.587c-17.889-.068-35.008-3.134-51.563-6.1-15.235-2.728-29.6-5.295-43.164-5.269-13.809.037-29.076,2.694-45.24,5.507-16.552,2.881-33.667,5.86-49.592,5.86-16.056,0-33.575-3.025-50.518-5.95-16.075-2.776-31.259-5.4-44.3-5.417h-.139c-13.117,0-29.227,2.782-44.811,5.473-16.854,2.91-34.281,5.936-49.853,5.894-15.58-.026-33.159-3.029-50.159-5.934-16.354-2.794-31.8-5.433-44.623-5.433-12.905,0-29.38,2.8-45.313,5.51-16.94,2.88-34.456,5.858-49.415,5.858h-.082c-15.216-.011-33.54-3.07-51.26-6.029-16.445-2.745-31.977-5.338-43.533-5.338a199.457,199.457,0,0,0-44.5,5.313l-5.792-22.259a221.244,221.244,0,0,1,50.3-6.054c13.462,0,29.909,2.746,47.32,5.653,16.8,2.8,34.171,5.7,47.49,5.715h.065c13.018,0,29.56-2.812,45.559-5.532,16.874-2.869,34.322-5.835,49.168-5.835,14.771,0,31.916,2.929,48.5,5.762,16.064,2.745,32.675,5.583,46.324,5.605h.161c13.549,0,29.912-2.826,45.74-5.559,16.6-2.867,33.786-5.851,48.9-5.809,15,.023,31.865,2.935,48.179,5.752,15.988,2.761,32.52,5.615,46.6,5.615,13.938,0,30.058-2.806,45.648-5.519,16.4-2.854,33.357-5.806,49.123-5.848,15.6-.052,31.71,2.841,47.279,5.629,15.588,2.791,31.707,5.677,47.6,5.738,15.711.059,30.489-2.663,46.142-5.546,15.537-2.862,31.6-5.821,48.615-5.821,17.258,0,33.824,3,49.845,5.9,15.507,2.807,30.154,5.459,44.963,5.468,14.922,0,29.684-2.665,45.351-5.5,15.968-2.886,32.48-5.87,49.443-5.871s33.439,2.979,49.376,5.86c15.662,2.832,30.456,5.507,45.426,5.507,14.911,0,29.564-2.659,45.078-5.474,15.961-2.9,32.466-5.891,49.722-5.893h.016c17.183,0,33.494,2.976,49.268,5.854,15.543,2.835,30.223,5.514,45.519,5.514,29.471,0,43.229-4.9,43.364-4.952l8.162,21.5c-1.718.66-17.755,6.449-51.526,6.449-17.376,0-33.781-2.993-49.646-5.887-15.446-2.818-30.039-5.48-45.139-5.48h-.014c-15.188,0-29.969,2.684-45.619,5.524-15.832,2.873-32.2,5.844-49.184,5.844-17.033,0-33.548-2.986-49.519-5.874-15.626-2.825-30.385-5.494-45.282-5.493s-29.693,2.674-45.353,5.5c-15.949,2.883-32.441,5.863-49.364,5.863h-.093c-16.867-.011-33.226-2.972-49.046-5.836-15.714-2.844-30.556-5.531-45.748-5.531-14.911,0-29.259,2.643-44.449,5.44C2956.536,2953.853,2940.177,2956.866,2922.553,2956.866Z" transform="translate(2832.039 787.959)"/>
        <path id="路径_421-8" data-name="路径 421" class="cls-3" d="M2922.553,2956.866h-.587c-17.889-.068-35.008-3.134-51.563-6.1-15.235-2.728-29.6-5.295-43.164-5.269-13.809.037-29.076,2.694-45.24,5.507-16.552,2.881-33.667,5.86-49.592,5.86-16.056,0-33.575-3.025-50.518-5.95-16.075-2.776-31.259-5.4-44.3-5.417h-.139c-13.117,0-29.227,2.782-44.811,5.473-16.854,2.91-34.281,5.936-49.853,5.894-15.58-.026-33.159-3.029-50.159-5.934-16.354-2.794-31.8-5.433-44.623-5.433-12.905,0-29.38,2.8-45.313,5.51-16.94,2.88-34.456,5.858-49.415,5.858h-.082c-15.216-.011-33.54-3.07-51.26-6.029-16.445-2.745-31.977-5.338-43.533-5.338a199.457,199.457,0,0,0-44.5,5.313l-5.792-22.259a221.244,221.244,0,0,1,50.3-6.054c13.462,0,29.909,2.746,47.32,5.653,16.8,2.8,34.171,5.7,47.49,5.715h.065c13.018,0,29.56-2.812,45.559-5.532,16.874-2.869,34.322-5.835,49.168-5.835,14.771,0,31.916,2.929,48.5,5.762,16.064,2.745,32.675,5.583,46.324,5.605h.161c13.549,0,29.912-2.826,45.74-5.559,16.6-2.867,33.786-5.851,48.9-5.809,15,.023,31.865,2.935,48.179,5.752,15.988,2.761,32.52,5.615,46.6,5.615,13.938,0,30.058-2.806,45.648-5.519,16.4-2.854,33.357-5.806,49.123-5.848,15.6-.052,31.71,2.841,47.279,5.629,15.588,2.791,31.707,5.677,47.6,5.738,15.711.059,30.489-2.663,46.142-5.546,15.537-2.862,31.6-5.821,48.615-5.821,17.258,0,33.824,3,49.845,5.9,15.507,2.807,30.154,5.459,44.963,5.468,14.922,0,29.684-2.665,45.351-5.5,15.968-2.886,32.48-5.87,49.443-5.871s33.439,2.979,49.376,5.86c15.662,2.832,30.456,5.507,45.426,5.507,14.911,0,29.564-2.659,45.078-5.474,15.961-2.9,32.466-5.891,49.722-5.893h.016c17.183,0,33.494,2.976,49.268,5.854,15.543,2.835,30.223,5.514,45.519,5.514,29.471,0,43.229-4.9,43.364-4.952l8.162,21.5c-1.718.66-17.755,6.449-51.526,6.449-17.376,0-33.781-2.993-49.646-5.887-15.446-2.818-30.039-5.48-45.139-5.48h-.014c-15.188,0-29.969,2.684-45.619,5.524-15.832,2.873-32.2,5.844-49.184,5.844-17.033,0-33.548-2.986-49.519-5.874-15.626-2.825-30.385-5.494-45.282-5.493s-29.693,2.674-45.353,5.5c-15.949,2.883-32.441,5.863-49.364,5.863h-.093c-16.867-.011-33.226-2.972-49.046-5.836-15.714-2.844-30.556-5.531-45.748-5.531-14.911,0-29.259,2.643-44.449,5.44C2956.536,2953.853,2940.177,2956.866,2922.553,2956.866Z" transform="translate(2448.34 787.959)"/>
        <path id="路径_420-7" data-name="路径 420" class="cls-4" d="M2922.546,2947.866H2922c-17.106-.065-33.834-3.061-50.011-5.957-15.534-2.781-30.214-5.41-44.466-5.41h-.308c-14.575.039-30.936,2.886-46.759,5.641-16.175,2.815-32.9,5.727-48.049,5.727-15.285,0-32.417-2.958-48.986-5.819-7.921-1.368-16.111-2.781-23.846-3.819a169.231,169.231,0,0,0-21.972-1.729h-.155a168.928,168.928,0,0,0-22.11,1.726c-7.863,1.052-16.183,2.489-24.23,3.878-16.407,2.833-33.374,5.763-48.122,5.763h-.185c-14.824-.025-32.025-2.963-48.659-5.805-8.052-1.375-16.378-2.8-24.19-3.84A168.684,168.684,0,0,0,2448,2936.5c-13.665,0-30.521,2.866-46.822,5.637-16.571,2.817-33.706,5.73-47.905,5.73h-.077c-14.473-.011-32.424-3.008-49.784-5.906-16.823-2.809-32.713-5.461-45.015-5.461a205.613,205.613,0,0,0-32.812,2.8c-8.461,1.386-13.905,2.792-13.959,2.806l-1.259-4.839c.228-.059,5.671-1.466,14.34-2.889a213.425,213.425,0,0,1,33.69-2.875c12.716,0,28.805,2.686,45.838,5.53,17.16,2.865,34.9,5.827,48.965,5.837h.073c13.778,0,30.7-2.877,47.067-5.66,16.505-2.806,33.573-5.708,47.659-5.708a173.458,173.458,0,0,1,22.61,1.766c7.9,1.054,16.275,2.484,24.371,3.867,16.43,2.807,33.42,5.71,47.825,5.734h.177c14.32,0,31.07-2.893,47.27-5.69,16.164-2.792,32.877-5.677,47.193-5.677h.16a174.007,174.007,0,0,1,22.629,1.773c7.829,1.05,16.066,2.472,24.032,3.848,16.361,2.825,33.28,5.746,48.136,5.746,14.716,0,31.225-2.874,47.191-5.653,16.029-2.79,32.6-5.675,47.6-5.715h.323c14.7,0,29.586,2.667,45.346,5.489,15.967,2.859,32.477,5.815,49.148,5.879h.525a176.427,176.427,0,0,0,23.67-1.739c7.949-1.073,15.911-2.539,23.611-3.958,7.555-1.391,15.366-2.83,23.145-3.893a175.661,175.661,0,0,1,23.84-1.779c16.449,0,32.612,2.926,48.242,5.755,7.641,1.383,15.543,2.813,23.307,3.865a174.056,174.056,0,0,0,23.254,1.748h.082a174.442,174.442,0,0,0,23.349-1.747c7.838-1.058,15.813-2.5,23.526-3.893,15.578-2.815,31.686-5.727,47.843-5.727s32.228,2.906,47.774,5.717c7.708,1.394,15.677,2.834,23.524,3.894a157.7,157.7,0,0,0,46.858.012c7.782-1.053,15.686-2.487,23.33-3.874,15.57-2.825,31.67-5.747,48.116-5.749h.015c16.369,0,32.272,2.9,47.652,5.707,7.649,1.4,15.559,2.839,23.4,3.9a176.564,176.564,0,0,0,23.729,1.76,235.343,235.343,0,0,0,35.9-2.472,90.268,90.268,0,0,0,11.814-2.471l1.517,4.764a91.84,91.84,0,0,1-12.377,2.618,239.823,239.823,0,0,1-36.853,2.561c-16.562,0-32.56-2.919-48.031-5.741-7.614-1.389-15.487-2.825-23.272-3.88a174.607,174.607,0,0,0-23.482-1.746h-.016a176.965,176.965,0,0,0-23.7,1.764c-7.871,1.063-15.831,2.508-23.528,3.9-15.44,2.8-31.406,5.7-47.577,5.7-16.226,0-32.337-2.913-47.917-5.73-7.693-1.391-15.648-2.829-23.471-3.886a157.395,157.395,0,0,0-46.853,0c-7.837,1.059-15.806,2.5-23.513,3.892-15.559,2.812-31.647,5.719-47.764,5.719h-.086c-16.062-.01-32.018-2.9-47.448-5.692-7.726-1.4-15.716-2.845-23.611-3.91a177.434,177.434,0,0,0-23.74-1.766,170.793,170.793,0,0,0-23.163,1.733c-7.664,1.047-15.417,2.475-22.916,3.856C2955.3,2944.928,2939.354,2947.866,2922.546,2947.866Z" transform="translate(2449.34 778.039)"/>
        <path id="路径_419-7" data-name="路径 419" class="cls-4" d="M2922.546,2947.866H2922c-17.106-.065-33.834-3.061-50.011-5.957-15.534-2.781-30.214-5.41-44.466-5.41h-.308c-14.575.039-30.936,2.886-46.759,5.641-16.175,2.815-32.9,5.727-48.049,5.727-15.285,0-32.417-2.958-48.986-5.819-7.921-1.368-16.111-2.781-23.846-3.819a169.231,169.231,0,0,0-21.972-1.729h-.155a168.928,168.928,0,0,0-22.11,1.726c-7.863,1.052-16.183,2.489-24.23,3.878-16.407,2.833-33.374,5.763-48.122,5.763h-.185c-14.824-.025-32.025-2.963-48.658-5.805-8.052-1.375-16.378-2.8-24.19-3.84A168.684,168.684,0,0,0,2448,2936.5c-13.665,0-30.521,2.866-46.822,5.637-16.571,2.817-33.706,5.73-47.905,5.73h-.077c-14.473-.011-32.424-3.008-49.784-5.906-16.823-2.809-32.713-5.461-45.015-5.461a205.613,205.613,0,0,0-32.812,2.8c-8.461,1.386-13.905,2.792-13.959,2.806l-1.259-4.839c.228-.059,5.671-1.466,14.34-2.889a213.425,213.425,0,0,1,33.69-2.875c12.716,0,28.805,2.686,45.838,5.53,17.16,2.865,34.9,5.827,48.965,5.837h.073c13.778,0,30.7-2.877,47.067-5.659,16.505-2.806,33.573-5.708,47.659-5.708a173.458,173.458,0,0,1,22.61,1.766c7.9,1.054,16.275,2.484,24.371,3.867,16.43,2.807,33.42,5.71,47.825,5.734h.177c14.32,0,31.07-2.893,47.27-5.69,16.164-2.792,32.877-5.677,47.193-5.677h.16a174.014,174.014,0,0,1,22.629,1.773c7.829,1.05,16.066,2.472,24.032,3.848,16.361,2.825,33.28,5.746,48.136,5.746,14.716,0,31.225-2.874,47.191-5.653,16.029-2.79,32.6-5.675,47.6-5.715h.323c14.7,0,29.586,2.667,45.346,5.489,15.967,2.859,32.477,5.815,49.148,5.879h.525a176.427,176.427,0,0,0,23.67-1.739c7.949-1.073,15.911-2.539,23.611-3.958,7.555-1.391,15.366-2.83,23.145-3.893a175.658,175.658,0,0,1,23.84-1.779c16.449,0,32.612,2.926,48.242,5.755,7.641,1.383,15.543,2.813,23.307,3.865a174.056,174.056,0,0,0,23.254,1.748h.082a174.442,174.442,0,0,0,23.349-1.747c7.838-1.058,15.813-2.5,23.526-3.893,15.578-2.815,31.686-5.727,47.843-5.727s32.228,2.906,47.774,5.717c7.708,1.394,15.677,2.834,23.524,3.894a157.7,157.7,0,0,0,46.858.012c7.782-1.053,15.686-2.487,23.33-3.874,15.57-2.825,31.669-5.747,48.116-5.749h.015c16.369,0,32.272,2.9,47.652,5.707,7.649,1.4,15.559,2.839,23.4,3.9a176.564,176.564,0,0,0,23.729,1.76,233.05,233.05,0,0,0,35.871-2.491,89.187,89.187,0,0,0,11.792-2.49l1.532,4.76a90.809,90.809,0,0,1-12.36,2.64,237.5,237.5,0,0,1-36.835,2.582c-16.562,0-32.56-2.919-48.031-5.741-7.614-1.389-15.487-2.825-23.272-3.88a174.609,174.609,0,0,0-23.482-1.746h-.016a176.965,176.965,0,0,0-23.7,1.764c-7.871,1.063-15.831,2.508-23.528,3.9-15.44,2.8-31.406,5.7-47.577,5.7-16.226,0-32.337-2.913-47.917-5.73-7.693-1.391-15.648-2.829-23.471-3.886a157.395,157.395,0,0,0-46.853,0c-7.837,1.059-15.806,2.5-23.513,3.892-15.559,2.812-31.647,5.719-47.764,5.719h-.086c-16.062-.01-32.018-2.9-47.448-5.692-7.726-1.4-15.716-2.845-23.611-3.91a177.434,177.434,0,0,0-23.74-1.766,170.793,170.793,0,0,0-23.163,1.733c-7.664,1.047-15.417,2.475-22.916,3.856C2955.3,2944.928,2939.354,2947.866,2922.546,2947.866Z" transform="translate(2449.34 788.117)"/>
        <path id="路径_418-7" data-name="路径 418" class="cls-4" d="M2922.546,2947.866H2922c-17.106-.065-33.834-3.061-50.011-5.957-15.534-2.781-30.214-5.41-44.466-5.41h-.308c-14.575.039-30.936,2.886-46.759,5.641-16.175,2.815-32.9,5.727-48.049,5.727-15.285,0-32.418-2.958-48.986-5.819-7.921-1.368-16.111-2.781-23.846-3.819a169.231,169.231,0,0,0-21.972-1.729h-.155a168.928,168.928,0,0,0-22.11,1.726c-7.863,1.052-16.183,2.489-24.23,3.878-16.408,2.833-33.374,5.763-48.122,5.763h-.185c-14.825-.025-32.025-2.963-48.659-5.805-8.052-1.375-16.378-2.8-24.189-3.84A168.694,168.694,0,0,0,2448,2936.5c-13.665,0-30.521,2.866-46.822,5.637-16.571,2.817-33.706,5.73-47.905,5.73h-.077c-14.473-.011-32.424-3.008-49.784-5.906-16.823-2.809-32.713-5.461-45.015-5.461a205.613,205.613,0,0,0-32.812,2.8c-8.461,1.386-13.905,2.792-13.959,2.806l-1.259-4.839c.228-.059,5.671-1.466,14.34-2.889a213.425,213.425,0,0,1,33.69-2.875c12.716,0,28.805,2.686,45.838,5.53,17.16,2.865,34.9,5.827,48.965,5.837h.073c13.778,0,30.7-2.877,47.067-5.66,16.505-2.806,33.573-5.708,47.659-5.708a173.458,173.458,0,0,1,22.61,1.766c7.9,1.054,16.275,2.484,24.371,3.867,16.431,2.807,33.42,5.71,47.825,5.734h.177c14.32,0,31.07-2.893,47.27-5.69,16.164-2.792,32.877-5.677,47.193-5.677h.16a174.007,174.007,0,0,1,22.629,1.773c7.829,1.05,16.066,2.472,24.033,3.848,16.361,2.825,33.279,5.746,48.135,5.746,14.716,0,31.225-2.874,47.191-5.653,16.029-2.79,32.6-5.675,47.6-5.715h.323c14.7,0,29.587,2.667,45.346,5.489,15.966,2.859,32.477,5.815,49.148,5.879h.525a176.427,176.427,0,0,0,23.67-1.739c7.949-1.073,15.911-2.539,23.611-3.958,7.554-1.391,15.366-2.83,23.145-3.893a175.658,175.658,0,0,1,23.84-1.779c16.449,0,32.612,2.926,48.242,5.755,7.641,1.383,15.542,2.813,23.307,3.865a174.056,174.056,0,0,0,23.254,1.748h.082a174.448,174.448,0,0,0,23.349-1.747c7.837-1.058,15.813-2.5,23.526-3.893,15.578-2.815,31.686-5.727,47.842-5.727s32.228,2.906,47.774,5.717c7.708,1.394,15.677,2.834,23.524,3.894a157.7,157.7,0,0,0,46.858.012c7.782-1.053,15.686-2.487,23.33-3.874,15.57-2.825,31.67-5.747,48.117-5.749h.015c16.369,0,32.272,2.9,47.652,5.707,7.649,1.4,15.559,2.839,23.4,3.9a176.6,176.6,0,0,0,23.729,1.76,239.563,239.563,0,0,0,37.162-2.711,112.04,112.04,0,0,0,13.047-2.711l1.443,4.787a113.457,113.457,0,0,1-13.564,2.839c-5.088.812-10.528,1.459-16.168,1.923-7.039.579-14.414.872-21.921.872-16.562,0-32.56-2.919-48.031-5.741-7.614-1.389-15.487-2.825-23.273-3.88a174.6,174.6,0,0,0-23.482-1.746h-.016a176.965,176.965,0,0,0-23.7,1.764c-7.871,1.063-15.831,2.508-23.528,3.9-15.44,2.8-31.406,5.7-47.577,5.7-16.226,0-32.337-2.913-47.917-5.73-7.693-1.391-15.648-2.829-23.471-3.886a157.395,157.395,0,0,0-46.853,0c-7.837,1.059-15.806,2.5-23.513,3.892-15.559,2.812-31.647,5.719-47.764,5.719h-.086c-16.062-.01-32.018-2.9-47.448-5.692-7.726-1.4-15.716-2.845-23.611-3.91a177.437,177.437,0,0,0-23.74-1.766,170.793,170.793,0,0,0-23.163,1.733c-7.664,1.047-15.417,2.475-22.916,3.856C2955.3,2944.928,2939.354,2947.866,2922.546,2947.866Z" transform="translate(2449.155 797.878)"/>
        <g id="组_517-4" data-name="组 517" transform="translate(2545.226 32.64)">
          <path id="路径_420-8" data-name="路径 420" class="cls-4" d="M2922.546,2947.866H2922c-17.106-.065-33.834-3.061-50.011-5.957-15.534-2.781-30.214-5.41-44.466-5.41h-.308c-14.575.039-30.937,2.886-46.76,5.641-16.175,2.815-32.9,5.727-48.049,5.727-15.285,0-32.417-2.958-48.986-5.819-7.921-1.368-16.111-2.781-23.846-3.819a169.227,169.227,0,0,0-21.972-1.729h-.155a168.932,168.932,0,0,0-22.11,1.726c-7.863,1.052-16.184,2.489-24.23,3.878-16.408,2.833-33.374,5.763-48.121,5.763h-.185c-14.825-.025-32.025-2.963-48.659-5.805-8.052-1.375-16.378-2.8-24.19-3.84A168.684,168.684,0,0,0,2448,2936.5c-13.665,0-30.521,2.866-46.821,5.637-16.571,2.817-33.706,5.73-47.905,5.73h-.077c-14.473-.011-32.424-3.008-49.784-5.906-16.823-2.809-32.713-5.461-45.015-5.461a235.884,235.884,0,0,0-32.945,2.456c-8.509,1.217-14,2.45-14.052,2.462l-1.1-4.876c.229-.052,5.7-1.281,14.387-2.526a244.1,244.1,0,0,1,33.713-2.515c12.716,0,28.8,2.686,45.838,5.53,17.16,2.865,34.9,5.827,48.965,5.837h.073c13.778,0,30.7-2.877,47.067-5.66,16.505-2.806,33.573-5.708,47.659-5.708a173.458,173.458,0,0,1,22.61,1.766c7.9,1.054,16.275,2.484,24.371,3.867,16.43,2.807,33.42,5.71,47.825,5.734h.177c14.32,0,31.069-2.893,47.27-5.69,16.164-2.792,32.876-5.677,47.193-5.677h.16a174.007,174.007,0,0,1,22.629,1.773c7.829,1.05,16.066,2.472,24.032,3.848,16.361,2.825,33.28,5.746,48.136,5.746,14.716,0,31.225-2.874,47.191-5.653,16.029-2.79,32.6-5.675,47.6-5.715h.323c14.7,0,29.586,2.667,45.346,5.489,15.966,2.859,32.477,5.815,49.148,5.879h.525a176.427,176.427,0,0,0,23.67-1.739c7.949-1.073,15.911-2.539,23.611-3.958,7.554-1.391,15.366-2.83,23.145-3.893a175.661,175.661,0,0,1,23.84-1.779c16.449,0,32.612,2.926,48.242,5.755,7.641,1.383,15.543,2.813,23.307,3.865a174.059,174.059,0,0,0,23.254,1.748h.082a174.448,174.448,0,0,0,23.349-1.747c7.837-1.058,15.813-2.5,23.526-3.893,15.578-2.815,31.686-5.727,47.842-5.727s32.228,2.906,47.774,5.717c7.707,1.394,15.677,2.834,23.524,3.894a157.7,157.7,0,0,0,46.858.012c7.782-1.053,15.686-2.487,23.33-3.874,15.57-2.825,31.67-5.747,48.117-5.749h.016c16.369,0,32.272,2.9,47.652,5.707,7.649,1.4,15.559,2.839,23.4,3.9a176.564,176.564,0,0,0,23.729,1.76,200.256,200.256,0,0,0,35.257-2.76,71.467,71.467,0,0,0,11.251-2.758l1.79,4.669a73.289,73.289,0,0,1-11.918,2.968c-4.588.839-9.633,1.506-14.992,1.985-6.679.6-13.874.9-21.387.9-16.562,0-32.56-2.919-48.031-5.741-7.614-1.389-15.487-2.825-23.272-3.88a174.6,174.6,0,0,0-23.482-1.746h-.016a176.965,176.965,0,0,0-23.7,1.764c-7.871,1.063-15.831,2.508-23.528,3.9-15.44,2.8-31.406,5.7-47.577,5.7-16.226,0-32.337-2.913-47.917-5.73-7.693-1.391-15.649-2.829-23.471-3.886a157.395,157.395,0,0,0-46.853,0c-7.837,1.059-15.806,2.5-23.513,3.892-15.56,2.812-31.648,5.719-47.764,5.719h-.086c-16.062-.01-32.018-2.9-47.448-5.692-7.726-1.4-15.716-2.845-23.612-3.91a177.428,177.428,0,0,0-23.74-1.766,170.79,170.79,0,0,0-23.163,1.733c-7.664,1.047-15.417,2.475-22.916,3.856C2955.3,2944.928,2939.354,2947.866,2922.546,2947.866Z" transform="translate(287.813 745.399)"/>
        </g>
        <path id="路径_419-8" data-name="路径 419" class="cls-4" d="M2922.546,2947.866H2922c-17.106-.065-33.834-3.061-50.011-5.957-15.534-2.781-30.214-5.41-44.466-5.41h-.308c-14.575.039-30.936,2.886-46.759,5.641-16.175,2.815-32.9,5.727-48.049,5.727-15.285,0-32.418-2.958-48.987-5.819-7.92-1.368-16.111-2.781-23.846-3.819a169.231,169.231,0,0,0-21.972-1.729h-.155a168.928,168.928,0,0,0-22.11,1.726c-7.863,1.052-16.183,2.489-24.23,3.878-16.408,2.833-33.374,5.763-48.122,5.763h-.185c-14.825-.025-32.025-2.963-48.659-5.805-8.052-1.375-16.378-2.8-24.189-3.84A168.694,168.694,0,0,0,2448,2936.5c-13.665,0-30.521,2.866-46.822,5.637-16.571,2.817-33.706,5.73-47.905,5.73h-.077c-14.473-.011-32.424-3.008-49.784-5.906-16.823-2.809-32.713-5.461-45.015-5.461a236.453,236.453,0,0,0-32.944,2.45c-8.508,1.213-14,2.443-14.05,2.456l-1.1-4.877c.229-.052,5.694-1.278,14.385-2.52a244.657,244.657,0,0,1,33.711-2.509c12.716,0,28.805,2.686,45.838,5.53,17.16,2.865,34.9,5.827,48.965,5.837h.073c13.778,0,30.7-2.877,47.067-5.66,16.505-2.806,33.573-5.708,47.659-5.708a173.458,173.458,0,0,1,22.61,1.766c7.9,1.054,16.275,2.484,24.371,3.867,16.431,2.807,33.42,5.71,47.825,5.734h.177c14.32,0,31.07-2.893,47.27-5.69,16.164-2.792,32.877-5.677,47.193-5.677h.16a174.007,174.007,0,0,1,22.629,1.773c7.829,1.05,16.066,2.472,24.033,3.848,16.361,2.825,33.279,5.746,48.135,5.746,14.716,0,31.225-2.874,47.191-5.653,16.029-2.79,32.6-5.675,47.6-5.715h.323c14.7,0,29.587,2.667,45.346,5.489,15.966,2.859,32.477,5.815,49.148,5.879h.525a176.427,176.427,0,0,0,23.67-1.739c7.949-1.073,15.911-2.539,23.611-3.958,7.554-1.391,15.366-2.83,23.145-3.893a175.658,175.658,0,0,1,23.84-1.779c16.449,0,32.612,2.926,48.242,5.755,7.641,1.383,15.542,2.813,23.307,3.865a174.056,174.056,0,0,0,23.254,1.748h.082a174.448,174.448,0,0,0,23.349-1.747c7.837-1.058,15.813-2.5,23.526-3.893,15.578-2.815,31.686-5.727,47.842-5.727s32.228,2.906,47.774,5.717c7.708,1.394,15.677,2.834,23.524,3.894a157.7,157.7,0,0,0,46.858.012c7.782-1.053,15.686-2.487,23.33-3.874,15.57-2.825,31.67-5.747,48.117-5.749h.015c16.369,0,32.272,2.9,47.652,5.707,7.649,1.4,15.559,2.839,23.4,3.9a176.564,176.564,0,0,0,23.729,1.76,200.256,200.256,0,0,0,35.257-2.76,71.467,71.467,0,0,0,11.251-2.758l1.79,4.669a73.3,73.3,0,0,1-11.918,2.968c-4.588.839-9.633,1.506-14.993,1.985-6.678.6-13.874.9-21.386.9-16.562,0-32.56-2.919-48.031-5.741-7.614-1.389-15.487-2.825-23.273-3.88a174.6,174.6,0,0,0-23.482-1.746h-.016a176.965,176.965,0,0,0-23.7,1.764c-7.871,1.063-15.831,2.508-23.528,3.9-15.44,2.8-31.406,5.7-47.577,5.7-16.226,0-32.337-2.913-47.917-5.73-7.693-1.391-15.648-2.829-23.471-3.886a157.395,157.395,0,0,0-46.853,0c-7.837,1.059-15.806,2.5-23.513,3.892-15.559,2.812-31.648,5.719-47.764,5.719h-.086c-16.062-.01-32.018-2.9-47.448-5.692-7.726-1.4-15.716-2.845-23.611-3.91a177.437,177.437,0,0,0-23.74-1.766,170.793,170.793,0,0,0-23.163,1.733c-7.664,1.047-15.417,2.475-22.916,3.856C2955.3,2944.928,2939.354,2947.866,2922.546,2947.866Z" transform="translate(2833.039 788.117)"/>
        <path id="路径_418-8" data-name="路径 418" class="cls-4" d="M2922.546,2947.866H2922c-17.106-.065-33.834-3.061-50.011-5.957-15.534-2.781-30.214-5.41-44.466-5.41h-.309c-14.575.039-30.936,2.886-46.759,5.641-16.175,2.815-32.9,5.727-48.049,5.727-15.284,0-32.417-2.958-48.986-5.819-7.92-1.367-16.111-2.781-23.846-3.819a169.227,169.227,0,0,0-21.972-1.729h-.155a168.932,168.932,0,0,0-22.11,1.726c-7.863,1.052-16.184,2.489-24.23,3.878-16.408,2.833-33.374,5.763-48.121,5.763h-.185c-14.825-.025-32.025-2.963-48.659-5.805-8.052-1.375-16.378-2.8-24.19-3.84A168.684,168.684,0,0,0,2448,2936.5c-13.665,0-30.521,2.866-46.821,5.637-16.571,2.817-33.706,5.73-47.905,5.73h-.076c-14.474-.011-32.425-3.008-49.785-5.906-16.823-2.809-32.713-5.461-45.015-5.461a235.8,235.8,0,0,0-32.929,2.454c-8.5,1.216-13.982,2.448-14.037,2.46l-1.1-4.877c.228-.052,5.688-1.281,14.372-2.524a243.958,243.958,0,0,1,33.7-2.513c12.716,0,28.8,2.686,45.838,5.53,17.16,2.865,34.9,5.827,48.965,5.837h.073c13.778,0,30.7-2.877,47.067-5.66,16.505-2.806,33.573-5.708,47.659-5.708a173.458,173.458,0,0,1,22.61,1.766c7.9,1.054,16.275,2.484,24.371,3.867,16.43,2.807,33.42,5.71,47.825,5.734h.177c14.32,0,31.069-2.893,47.27-5.69,16.164-2.792,32.876-5.677,47.193-5.677h.16a174.007,174.007,0,0,1,22.629,1.773c7.829,1.05,16.066,2.472,24.032,3.848,16.361,2.825,33.28,5.746,48.136,5.746,14.716,0,31.225-2.874,47.191-5.653,16.029-2.79,32.6-5.675,47.6-5.715h.323c14.7,0,29.586,2.667,45.346,5.489,15.967,2.859,32.477,5.815,49.149,5.879h.525a176.427,176.427,0,0,0,23.67-1.739c7.949-1.073,15.911-2.539,23.611-3.958,7.555-1.391,15.366-2.83,23.145-3.893a175.658,175.658,0,0,1,23.84-1.779c16.449,0,32.612,2.926,48.242,5.755,7.641,1.383,15.543,2.813,23.307,3.865a174.059,174.059,0,0,0,23.253,1.748h.083a174.442,174.442,0,0,0,23.349-1.747c7.838-1.058,15.813-2.5,23.526-3.893,15.578-2.815,31.686-5.727,47.843-5.727s32.228,2.906,47.774,5.717c7.708,1.394,15.677,2.834,23.524,3.894a157.7,157.7,0,0,0,46.858.012c7.782-1.053,15.686-2.487,23.33-3.874,15.57-2.825,31.67-5.747,48.117-5.749h.016c16.369,0,32.272,2.9,47.652,5.707,7.649,1.4,15.559,2.839,23.4,3.9a176.6,176.6,0,0,0,23.729,1.76,200.256,200.256,0,0,0,35.257-2.76,71.467,71.467,0,0,0,11.251-2.758l1.79,4.669a73.289,73.289,0,0,1-11.918,2.968c-4.589.839-9.633,1.506-14.993,1.985-6.679.6-13.874.9-21.387.9-16.562,0-32.56-2.919-48.031-5.741-7.614-1.389-15.487-2.825-23.272-3.88a174.609,174.609,0,0,0-23.482-1.746h-.016a176.967,176.967,0,0,0-23.7,1.764c-7.871,1.063-15.831,2.508-23.528,3.9-15.44,2.8-31.406,5.7-47.577,5.7-16.226,0-32.337-2.913-47.917-5.73-7.693-1.391-15.648-2.829-23.471-3.886a157.395,157.395,0,0,0-46.853,0c-7.837,1.059-15.806,2.5-23.513,3.892-15.56,2.812-31.648,5.719-47.764,5.719h-.086c-16.062-.01-32.018-2.9-47.448-5.692-7.726-1.4-15.716-2.845-23.611-3.91a177.434,177.434,0,0,0-23.74-1.766,170.79,170.79,0,0,0-23.163,1.733c-7.664,1.047-15.417,2.475-22.916,3.856C2955.3,2944.928,2939.354,2947.866,2922.546,2947.866Z" transform="translate(2832.854 797.878)"/>
      </g>
      <rect id="矩形_1610" data-name="矩形 1610" class="cls-5" width="324" height="270" transform="translate(4527.58 3657.704)"/>
      <rect id="矩形_1611" data-name="矩形 1611" class="cls-5" width="305.185" height="270" transform="translate(6178.815 3675.452)"/>
    </g>
  </g>
</svg>
